<?xml version="1.0" encoding="UTF-8" standalone="no"?>
<!-- Generator: Adobe Illustrator 27.5.0, SVG Export Plug-In . SVG Version: 6.00 Build 0)  -->

<svg
   version="1.1"
   x="0px"
   y="0px"
   viewBox="0 0 750 500"
   style="enable-background:new 0 0 750 500;"
   xml:space="preserve"
   id="svg84"
   sodipodi:docname="18493603_5994425.svg"
   inkscape:version="1.3.2 (091e20e, 2023-11-25, custom)"
   xmlns:inkscape="http://www.inkscape.org/namespaces/inkscape"
   xmlns:sodipodi="http://sodipodi.sourceforge.net/DTD/sodipodi-0.dtd"
   xmlns="http://www.w3.org/2000/svg"
   xmlns:svg="http://www.w3.org/2000/svg"><defs
   id="defs84" /><sodipodi:namedview
   id="namedview84"
   pagecolor="#ffffff"
   bordercolor="#000000"
   borderopacity="0.25"
   inkscape:showpageshadow="2"
   inkscape:pageopacity="0.0"
   inkscape:pagecheckerboard="0"
   inkscape:deskcolor="#d1d1d1"
   inkscape:zoom="1.016"
   inkscape:cx="375"
   inkscape:cy="249.50787"
   inkscape:window-width="1366"
   inkscape:window-height="745"
   inkscape:window-x="-8"
   inkscape:window-y="-8"
   inkscape:window-maximized="1"
   inkscape:current-layer="Plant" />
<g
   id="Background_Simple"
   transform="matrix(1,0,0,1.0346994,0,5.3842925)">
	<g
   id="g2">
		<path
   style="fill:#92e3a9"
   d="m 699.461,265.471 c 0,0 10,-178 -141,-227 -151,-49 -227,-13 -275,33 -48,46 -64,76 -119,82 -55,6 -106,16 -132,83 -26,67 7,120 57,153 50,33 108,-2 154,19 46,21 75,56 169,60 94,4 97,-23 145,-65 48,-42 133,2 142,-138 z"
   id="path1" />
		<path
   style="opacity:0.7;fill:#ffffff"
   d="m 699.461,265.471 c 0,0 10,-178 -141,-227 -151,-49 -227,-13 -275,33 -48,46 -64,76 -119,82 -55,6 -106,16 -132,83 -26,67 7,120 57,153 50,33 108,-2 154,19 46,21 75,56 169,60 94,4 97,-23 145,-65 48,-42 133,2 142,-138 z"
   id="path2" />
	</g>
</g>
<g
   id="Plant"
   transform="translate(-9.8425197,-7.8740157)">
	<g
   id="g8"
   transform="translate(0,2)">
		<g
   id="g5">
			<path
   style="fill:#263238"
   d="m 590.989,228.104 c 4.073,1.779 14.034,1.554 14.042,1.554 0.103,-0.003 -2.141,-6.521 -2.33,-6.916 -2.185,-4.572 -9.097,-12.122 -14.721,-11.361 -4.051,0.547 -6.305,4.602 -5.39,8.417 0.933,3.896 4.93,6.789 8.399,8.306 z"
   id="path3" />
			<path
   style="fill:#263238"
   d="m 594.427,256.957 c 4.225,0.616 13.114,-1.962 13.821,-2.17 1.404,4.977 3.247,9.97 5.392,14.919 1.222,2.831 2.543,5.645 3.901,8.449 -0.81,-1.188 -1.544,-2.244 -1.663,-2.381 -3.317,-3.833 -11.976,-9.288 -17.199,-7.069 -3.765,1.598 -4.865,6.103 -2.976,9.54 1.929,3.511 6.55,5.248 10.294,5.793 3.801,0.554 11.424,-1.492 13.435,-2.06 0.532,1.071 1.052,2.145 1.589,3.213 2.574,5.126 5.165,10.23 7.553,15.314 0.842,1.791 1.606,3.586 2.377,5.38 -0.722,-1.055 -1.338,-1.936 -1.446,-2.062 -3.316,-3.832 -11.975,-9.288 -17.199,-7.07 -3.763,1.598 -4.865,6.104 -2.976,9.541 1.931,3.511 6.55,5.247 10.296,5.792 3.626,0.529 10.68,-1.296 13.072,-1.96 0.734,1.86 1.472,3.722 2.1,5.558 0.4,1.263 0.874,2.451 1.203,3.742 0.356,1.272 0.706,2.53 1.054,3.777 0.582,2.424 1.197,4.923 1.705,7.302 0.366,1.652 0.684,3.234 1.009,4.826 -0.818,-1.793 -2.493,-5.269 -2.666,-5.544 -2.695,-4.29 -10.429,-10.994 -15.929,-9.594 -3.962,1.01 -5.734,5.296 -4.386,8.98 1.375,3.762 5.678,6.178 9.298,7.285 3.985,1.218 12.808,0.105 13.91,-0.041 0.529,2.636 1.018,5.206 1.441,7.638 0.946,5.367 1.66,10.178 2.203,14.249 h 3.72 c -0.649,-4.212 -1.496,-9.231 -2.618,-14.866 -0.526,-2.679 -1.141,-5.532 -1.801,-8.455 0.663,-0.264 4.426,-1.786 7.761,-3.649 2.904,3.146 10.347,6.827 11.311,7.295 -1.013,2.491 -2.023,4.904 -3.011,7.165 -2.058,4.736 -4.013,8.937 -5.739,12.511 h 4.023 c 1.483,-3.294 3.114,-7.045 4.814,-11.202 1.039,-2.525 2.1,-5.244 3.162,-8.046 1.068,0.223 9.802,1.997 13.873,1.078 3.691,-0.835 8.163,-2.923 9.816,-6.573 1.618,-3.573 0.169,-7.98 -3.707,-9.282 -5.378,-1.808 -13.59,4.302 -16.599,8.38 -0.178,0.24 -1.812,3.066 -2.813,4.865 0.428,-1.147 0.856,-2.256 1.282,-3.442 0.86,-2.34 1.647,-4.701 2.503,-7.237 0.371,-1.24 0.745,-2.492 1.124,-3.756 0.401,-1.246 0.667,-2.614 1.011,-3.931 0.732,-3.072 1.323,-6.22 1.849,-9.405 2.051,0.746 9.373,3.294 13.166,3.026 3.776,-0.265 8.511,-1.652 10.698,-5.01 2.141,-3.286 1.377,-7.862 -2.256,-9.737 -5.044,-2.601 -14.087,2.195 -17.678,5.77 -0.224,0.222 -2.513,3.077 -3.74,4.67 0.301,-1.917 0.611,-3.829 0.852,-5.778 0.699,-5.627 1.23,-11.344 1.786,-17.045 0.169,-1.747 0.359,-3.485 0.542,-5.225 0.727,0.274 9.364,3.489 13.613,3.191 3.775,-0.265 8.512,-1.652 10.698,-5.01 2.141,-3.286 1.377,-7.862 -2.257,-9.735 -5.044,-2.602 -14.086,2.193 -17.677,5.768 -0.271,0.269 -3.559,4.382 -4.344,5.469 0.405,-3.834 0.844,-7.65 1.43,-11.396 0.8,-5.167 1.873,-10.194 3.271,-14.987 0.338,0.129 9.338,3.525 13.689,3.22 3.776,-0.266 8.513,-1.653 10.698,-5.01 2.14,-3.287 1.377,-7.862 -2.257,-9.736 -5.044,-2.601 -14.085,2.194 -17.678,5.769 -0.281,0.281 -3.816,4.707 -4.4,5.556 0.084,-0.285 0.139,-0.589 0.227,-0.872 1.558,-5.098 3.707,-9.84 5.937,-14.182 1.291,-2.526 2.666,-4.867 4.054,-7.115 1.612,0.805 9.016,4.4 12.962,4.558 3.782,0.151 8.642,-0.707 11.183,-3.804 2.489,-3.032 2.233,-7.664 -1.173,-9.925 -4.728,-3.139 -14.242,0.634 -18.204,3.793 -0.215,0.172 -2.212,2.161 -3.646,3.629 0.642,-1.006 1.286,-2.055 1.92,-3.005 2.374,-3.576 4.768,-6.702 6.911,-9.456 1.231,-1.554 2.375,-2.937 3.46,-4.219 1.992,-0.035 10.022,-0.279 13.533,-1.927 3.425,-1.609 7.344,-4.61 8.173,-8.53 0.811,-3.838 -1.552,-7.831 -5.615,-8.268 -5.643,-0.608 -12.348,7.125 -14.409,11.754 -0.178,0.401 -2.245,6.978 -2.141,6.977 0,0 0.097,-10e-4 0.121,-10e-4 -1.069,1.213 -2.199,2.525 -3.406,3.984 -2.208,2.712 -4.676,5.795 -7.137,9.333 -2.469,3.529 -5.051,7.432 -7.401,11.789 -2.361,4.364 -4.62,9.075 -6.321,14.231 -0.02,0.058 -0.032,0.121 -0.052,0.18 0.03,-1.662 -0.044,-6.314 -0.09,-6.669 -0.651,-5.026 -4.863,-14.354 -10.445,-15.386 -4.02,-0.742 -7.425,2.407 -7.746,6.317 -0.326,3.993 2.568,7.989 5.391,10.511 3.183,2.843 12.02,5.597 12.724,5.815 -1.575,4.924 -2.791,10.105 -3.733,15.416 -0.542,3.037 -0.993,6.111 -1.407,9.2 -0.021,-1.438 -0.05,-2.724 -0.074,-2.903 -0.652,-5.026 -4.863,-14.353 -10.445,-15.385 -4.021,-0.743 -7.425,2.407 -7.745,6.317 -0.328,3.993 2.567,7.989 5.39,10.51 2.865,2.558 10.351,5.059 12.341,5.693 -0.146,1.186 -0.305,2.37 -0.446,3.557 -0.681,5.695 -1.335,11.381 -2.148,16.939 -0.285,1.959 -0.638,3.877 -0.985,5.798 -0.02,-1.277 -0.048,-2.353 -0.069,-2.516 -0.651,-5.026 -4.863,-14.354 -10.443,-15.386 -4.022,-0.742 -7.427,2.407 -7.748,6.318 -0.327,3.991 2.569,7.989 5.392,10.51 2.732,2.442 9.623,4.811 11.984,5.576 -0.414,1.956 -0.825,3.917 -1.315,5.794 -0.364,1.274 -0.625,2.525 -1.061,3.785 -0.405,1.255 -0.806,2.5 -1.204,3.73 -0.853,2.343 -1.718,4.766 -2.607,7.032 -0.607,1.58 -1.214,3.074 -1.821,4.581 0.306,-1.946 0.828,-5.77 0.835,-6.093 0.077,-3.366 -1.118,-8.839 -3.497,-12.686 0.015,-0.497 -0.014,-0.992 -0.093,-1.485 -0.623,-3.873 -4.261,-6.75 -8.212,-5.697 -5.484,1.46 -8.962,11.086 -9.221,16.146 -0.016,0.299 0.18,3.557 0.337,5.61 -0.277,-1.193 -0.53,-2.354 -0.83,-3.579 -0.575,-2.426 -1.221,-4.829 -1.905,-7.418 -0.374,-1.238 -0.754,-2.488 -1.136,-3.753 -0.352,-1.26 -0.885,-2.547 -1.325,-3.836 -1.085,-2.965 -2.328,-5.918 -3.646,-8.865 2.124,-0.509 9.635,-2.424 12.651,-4.739 3.003,-2.304 6.188,-6.074 6.16,-10.079 -0.028,-3.923 -3.188,-7.318 -7.253,-6.877 -5.642,0.612 -10.539,9.601 -11.563,14.564 -0.063,0.31 -0.398,3.953 -0.543,5.959 -0.806,-1.764 -1.603,-3.531 -2.477,-5.29 -2.521,-5.079 -5.231,-10.141 -7.913,-15.202 -0.823,-1.55 -1.623,-3.104 -2.431,-4.657 0.758,-0.174 9.736,-2.257 13.115,-4.849 3.002,-2.303 6.188,-6.074 6.159,-10.08 -0.028,-3.922 -3.189,-7.317 -7.253,-6.875 -5.642,0.613 -10.538,9.6 -11.563,14.564 -0.077,0.374 -0.55,5.617 -0.605,6.956 -1.776,-3.42 -3.516,-6.846 -5.094,-10.293 -2.182,-4.752 -4.062,-9.535 -5.539,-14.304 0.353,-0.08 9.733,-2.213 13.193,-4.867 3.003,-2.304 6.188,-6.074 6.159,-10.08 -0.027,-3.923 -3.188,-7.317 -7.253,-6.875 -5.642,0.612 -10.538,9.601 -11.562,14.563 -0.081,0.39 -0.587,6.032 -0.605,7.06 -0.088,-0.283 -0.21,-0.568 -0.293,-0.851 -1.512,-5.112 -2.336,-10.253 -2.871,-15.105 -0.316,-2.818 -0.461,-5.529 -0.543,-8.17 1.788,-0.218 9.947,-1.304 13.325,-3.35 3.239,-1.961 6.818,-5.358 7.229,-9.342 0.402,-3.902 -2.367,-7.624 -6.454,-7.632 -5.675,-0.011 -11.529,8.386 -13.092,13.206 -0.085,0.262 -0.654,3.023 -1.04,5.039 -0.018,-1.192 -0.06,-2.423 -0.055,-3.566 0.008,-4.292 0.279,-8.221 0.547,-11.699 0.169,-1.977 0.361,-3.761 0.558,-5.427 1.642,-1.13 8.205,-5.763 10.224,-9.074 1.97,-3.232 3.581,-7.896 2.11,-11.622 -1.44,-3.649 -5.613,-5.675 -9.244,-3.799 -5.042,2.606 -6.368,12.755 -5.534,17.754 0.073,0.431 1.977,7.058 2.063,7 0,0 0.081,-0.055 0.099,-0.068 -0.222,1.6 -0.44,3.319 -0.641,5.202 -0.346,3.479 -0.704,7.413 -0.804,11.722 -0.112,4.304 -0.113,8.986 0.331,13.916 0.439,4.941 1.152,10.118 2.578,15.356 0.016,0.059 0.041,0.119 0.057,0.178 -0.893,-1.403 -3.521,-5.241 -3.757,-5.513 -3.315,-3.833 -11.975,-9.289 -17.198,-7.071 -3.763,1.599 -4.866,6.105 -2.976,9.542 1.931,3.504 6.55,5.24 10.295,5.786 z"
   id="path4" />
			<path
   style="fill:#263238"
   d="m 691.744,230.295 c 0.088,0.055 1.812,-6.62 1.872,-7.054 0.698,-5.019 -0.902,-15.128 -6.013,-17.597 -3.681,-1.778 -7.796,0.361 -9.137,4.048 -1.371,3.764 0.366,8.383 2.423,11.561 2.416,3.729 10.849,9.037 10.855,9.042 z"
   id="path5" />
		</g>
		<polygon
   style="fill:#ffffff;stroke:#263238;stroke-linecap:round;stroke-linejoin:round;stroke-miterlimit:10"
   points="678.843,412.156 624.395,412.156 617.59,351.687 685.649,351.687 "
   id="polygon5" />
		<g
   id="g7">
			<polygon
   style="fill:#263238"
   points="618.836,362.765 619.496,368.624 683.743,368.624 684.402,362.765 "
   id="polygon6" />
			<polygon
   style="fill:#263238"
   points="682.292,381.513 682.951,375.654 620.287,375.654 620.946,381.513 "
   id="polygon7" />
		</g>
	</g>
<path
   style="fill:#cccccc;fill-opacity:0.384314;stroke-width:0.984252"
   d="m 706.26589,210.38386 c 1.50754,-4.83934 2.30747,-6.38801 4.87658,-9.44123 4.84599,-5.75914 10.61554,-7.56583 13.60656,-4.2608 4.48128,4.95176 -0.8478,12.83855 -10.00142,14.80165 -7.96764,1.70875 -9.30266,1.53567 -8.48172,-1.09962 z"
   id="path84" /><path
   style="fill:#cccccc;fill-opacity:0.384314;stroke-width:0.984252"
   d="m 686.36053,225.56726 c -6.3338,-5.00658 -9.17346,-11.22108 -7.07885,-15.49183 1.76933,-3.60752 3.9045,-4.79826 7.1454,-3.98485 4.92669,1.23652 7.99366,12.73866 5.63677,21.13973 -0.65131,2.32158 -0.66887,2.31646 -5.70332,-1.66305 z"
   id="path85" /><path
   style="fill:#cccccc;fill-opacity:0.384314;stroke-width:0.984252"
   d="m 697.17733,233.1028 -5.08644,-2.00575 3.23888,-2.84378 c 4.01741,-3.52733 10.95743,-6.74629 14.6067,-6.77496 2.75319,-0.0216 7.58322,3.73875 7.58322,5.90386 0,2.19484 -2.09469,4.916 -4.90156,6.36749 -3.87165,2.0021 -9.29989,1.77469 -15.4408,-0.64686 z"
   id="path86" /><path
   style="fill:#cccccc;fill-opacity:0.384314;stroke-width:0.984252"
   d="m 689.4685,255.38132 c -2.70669,-0.74659 -5.25344,-1.37698 -5.65944,-1.40087 -2.88731,-0.1699 4.17156,-7.53516 9.59645,-10.013 7.20617,-3.29143 13.2874,-1.56934 13.2874,3.76275 0,2.88648 -3.45952,6.86336 -6.62813,7.61932 -1.49724,0.35721 -3.38663,0.81592 -4.19864,1.01935 -0.81201,0.20343 -3.69094,-0.24097 -6.39764,-0.98755 z"
   id="path87" /><path
   style="fill:#cccccc;fill-opacity:0.384314;stroke-width:0.984252"
   d="m 673.68025,249.63891 c -6.2186,-2.89576 -10.29963,-7.56919 -10.27935,-11.77151 0.008,-1.71782 0.34047,-3.61064 0.73819,-4.20627 1.34019,-2.00713 4.61997,-3.12874 6.77121,-2.31561 2.62427,0.99192 6.60272,6.24624 8.08763,10.68127 1.26453,3.77684 1.50183,9.94669 0.38199,9.9321 -0.406,-0.005 -2.97085,-1.04928 -5.69967,-2.31998 z"
   id="path88" /><path
   style="fill:#cccccc;fill-opacity:0.384314;stroke-width:0.984252"
   d="m 677.32076,268.70079 c 0,-1.35335 0.2234,-1.90699 0.49645,-1.23032 0.27304,0.67668 0.27304,1.78396 0,2.46063 -0.27305,0.67668 -0.49645,0.12303 -0.49645,-1.23031 z"
   id="path89" /><path
   style="fill:#cccccc;fill-opacity:0.384314;stroke-width:0.984252"
   d="m 683.72574,281.9809 c -2.61719,-0.7192 -4.96979,-1.51891 -5.22801,-1.77713 -0.97974,-0.97974 5.82195,-7.51844 9.8484,-9.46762 5.01944,-2.42986 8.27892,-2.57581 11.23802,-0.50317 4.71812,3.30469 1.48049,10.19187 -5.76847,12.27084 -3.98939,1.14414 -4.03145,1.14196 -10.08994,-0.52292 z"
   id="path90" /><path
   style="fill:#cccccc;fill-opacity:0.384314;stroke-width:0.984252"
   d="m 657.73564,350.28194 c 7.97728,-19.13159 14.3235,-37.15301 13.29026,-37.74045 -0.142,-0.0807 -2.25129,-0.98497 -4.68732,-2.00942 -6.43946,-2.70807 -9.22566,-4.84413 -11.26998,-8.6402 -2.20492,-4.09429 -1.50323,-7.90895 1.86022,-10.11277 2.14106,-1.40288 2.65331,-1.40638 5.30273,-0.0363 3.47713,1.79809 6.44611,6.33166 8.01869,12.24436 0.62644,2.35533 1.30344,4.11797 1.50443,3.91697 0.6665,-0.66649 3.55231,-24.70139 3.10561,-25.86547 -0.24118,-0.6285 -2.34278,-1.77119 -4.67022,-2.53932 -5.09169,-1.68041 -11.31262,-7.33444 -12.27095,-11.15272 -0.5072,-2.02085 -0.16802,-3.47875 1.25419,-5.39095 4.79354,-6.44505 11.52628,-1.64758 15.54393,11.07594 1.17312,3.71515 1.27662,3.80216 1.36656,1.14885 0.0535,-1.57891 0.35574,-2.61231 0.67159,-2.29646 0.90935,0.90935 -3.4,36.80895 -5.47496,45.60988 -1.03249,4.3793 -2.77773,10.33224 -3.87832,13.22874 -1.10058,2.89649 -1.83843,5.42899 -1.63966,5.62776 0.19877,0.19876 1.39432,-1.10358 2.65679,-2.8941 5.94602,-8.43304 15.00286,-12.19066 18.92822,-7.85318 2.16347,2.39061 2.05705,5.26434 -0.30622,8.26874 -3.04625,3.87269 -7.06279,5.04311 -15.19567,4.42802 l -7.19581,-0.54422 -2.3544,5.99868 c -1.29492,3.29927 -2.97862,6.19973 -3.74156,6.44546 -0.8853,0.28515 -1.1813,-0.0469 -0.81815,-0.91783 z"
   id="path91" /><path
   style="fill:#cccccc;fill-opacity:0.384314;stroke-width:0.984252"
   d="m 680.11811,311.29672 c -0.81201,-0.30565 -2.54419,-0.95119 -3.84928,-1.43451 l -2.37291,-0.87877 3.35716,-3.49529 c 8.84042,-9.20417 21.25434,-9.82289 20.38866,-1.01619 -0.42152,4.28812 -5.47707,7.56183 -11.51761,7.45821 -2.4913,-0.0427 -5.19401,-0.32779 -6.00602,-0.63345 z"
   id="path92" /><path
   style="fill:#cccccc;fill-opacity:0.384314;stroke-width:0.984252"
   d=""
   id="path93" /></g>

<g
   id="Device"
   transform="matrix(0.90375581,0,0,1.1989936,32.469972,-16.094626)">
	<g
   id="g14">
		<path
   style="fill:#92e3a9;stroke:#263238;stroke-width:0.997277;stroke-linecap:round;stroke-linejoin:round;stroke-miterlimit:10"
   d="M 620.63455,389.44253 H 145.04845 V 92.826193 c 0,-5.742566 4.68103,-10.399076 10.45607,-10.399076 h 454.67496 c 5.77504,0 10.45607,4.655516 10.45607,10.399076 V 389.44253 Z"
   id="path10" />
		
			<rect
   x="220.509"
   y="374.58099"
   style="fill:#263238;stroke:#263238;stroke-linecap:round;stroke-linejoin:round;stroke-miterlimit:10"
   width="326.84601"
   height="16.104"
   id="rect10" />
		
			<rect
   x="220.509"
   y="382.33401"
   style="fill:#ffffff;stroke:#263238;stroke-linecap:round;stroke-linejoin:round;stroke-miterlimit:10"
   width="326.84601"
   height="8.3500004"
   id="rect11" />
		<path
   style="fill:#263238;stroke:#263238;stroke-linecap:round;stroke-linejoin:round;stroke-miterlimit:10"
   d="m 106.59,400.227 c 0,0 5.368,6.561 21.472,11.928 h 511.741 c 0,0 11.929,-2.982 17.297,-11.332 z"
   id="path11" />
		<path
   style="fill:#92e3a9;stroke:#263238;stroke-linecap:round;stroke-linejoin:round;stroke-miterlimit:10"
   d="M 656.361,401.017 H 107.393 c -1.047,0 -1.895,-0.848 -1.895,-1.895 v -8.751 c 0,-1.046 0.848,-1.895 1.895,-1.895 h 548.968 c 1.046,0 1.895,0.848 1.895,1.895 v 8.751 c 0,1.047 -0.849,1.895 -1.895,1.895 z"
   id="path12" />
		<circle
   style="fill:#263238"
   cx="382.73901"
   cy="90.081001"
   r="4.1750002"
   id="circle12" />
		<g
   id="g12">
			
				<rect
   id="XMLID_1_"
   x="164.343"
   y="104.863"
   style="fill:#ffffff;stroke:#263238;stroke-linecap:round;stroke-linejoin:round;stroke-miterlimit:10"
   width="436.99701"
   height="246.95599" />
		</g>
		<g
   id="g13">
			
				<rect
   id="XMLID_2_"
   x="164.343"
   y="104.863"
   style="fill:#c9c9c9;stroke:#263238;stroke-linecap:round;stroke-linejoin:round;stroke-miterlimit:10"
   width="436.99701"
   height="14.946" />
		</g>
	</g>
</g>
<g
   id="Table"
   transform="translate(0,-4)">
	
		<line
   style="fill:none;stroke:#263238;stroke-linecap:round;stroke-linejoin:round;stroke-miterlimit:10"
   x1="23.223"
   y1="412.15601"
   x2="719.31799"
   y2="412.15601"
   id="line14" />
</g>
<g
   id="Video"
   transform="translate(-5.1102356,41.338582)">
	<g
   id="g18">
		<g
   id="g16">
			
				<rect
   x="385.86099"
   y="233.242"
   style="fill:none;stroke:#263238;stroke-linecap:round;stroke-linejoin:round;stroke-miterlimit:10"
   width="180.48801"
   height="101.979"
   id="rect14" />
			
				<rect
   x="385.86099"
   y="322.96301"
   style="fill:none;stroke:#263238;stroke-linecap:round;stroke-linejoin:round;stroke-miterlimit:10"
   width="180.48801"
   height="12.259"
   id="rect15" />
			
				<rect
   x="385.86099"
   y="327.45001"
   style="fill:none;stroke:#263238;stroke-linecap:round;stroke-linejoin:round;stroke-miterlimit:10"
   width="180.48801"
   height="3.2839999"
   id="rect16" />
		</g>
		<g
   id="g17">
			
				<circle
   style="fill:none;stroke:#263238;stroke-linecap:round;stroke-linejoin:round;stroke-miterlimit:10"
   cx="477.073"
   cy="278.97299"
   r="19.076"
   id="circle16" />
			<polygon
   style="fill:none;stroke:#263238;stroke-linecap:round;stroke-linejoin:round;stroke-miterlimit:10"
   points="491.734,279.053 467.18,264.878 467.18,293.229 "
   id="polygon16" />
		</g>
	</g>
</g>
<g
   id="Picture"
   transform="translate(-6)">
	<g
   id="g19">
		
			<rect
   x="386.164"
   y="137.737"
   style="fill:none;stroke:#263238;stroke-linecap:round;stroke-linejoin:round;stroke-miterlimit:10"
   width="180.02901"
   height="85.199997"
   id="rect18" />
		<polyline
   style="fill:none;stroke:#263238;stroke-linecap:round;stroke-linejoin:round;stroke-miterlimit:10"
   points="    386.164,222.937 451.141,172.267 486.313,191.939 528.041,154.979 566.193,179.42   "
   id="polyline18" />
		
			<circle
   style="fill:none;stroke:#263238;stroke-linecap:round;stroke-linejoin:round;stroke-miterlimit:10"
   cx="410.009"
   cy="161.537"
   r="13.115"
   id="circle18" />
	</g>
</g>
<g
   id="Chart"
   transform="translate(12.795276,7.8740157)">
	<g
   id="g31">
		
			<rect
   x="200.77"
   y="237.244"
   style="fill:none;stroke:#263238;stroke-linecap:round;stroke-linejoin:round;stroke-miterlimit:10"
   width="13.115"
   height="95.379997"
   id="rect19" />
		
			<rect
   x="219.84599"
   y="280.16501"
   style="fill:none;stroke:#263238;stroke-linecap:round;stroke-linejoin:round;stroke-miterlimit:10"
   width="13.115"
   height="52.459"
   id="rect20" />
		
			<rect
   x="238.922"
   y="295.06799"
   style="fill:none;stroke:#263238;stroke-linecap:round;stroke-linejoin:round;stroke-miterlimit:10"
   width="13.115"
   height="37.556"
   id="rect21" />
		
			<rect
   x="257.99799"
   y="265.26199"
   style="fill:none;stroke:#263238;stroke-linecap:round;stroke-linejoin:round;stroke-miterlimit:10"
   width="13.115"
   height="67.362"
   id="rect22" />
		
			<rect
   x="277.07401"
   y="271.819"
   style="fill:none;stroke:#263238;stroke-linecap:round;stroke-linejoin:round;stroke-miterlimit:10"
   width="13.115"
   height="60.805"
   id="rect23" />
		
			<rect
   x="296.14999"
   y="319.509"
   style="fill:none;stroke:#263238;stroke-linecap:round;stroke-linejoin:round;stroke-miterlimit:10"
   width="13.115"
   height="13.115"
   id="rect24" />
		
			<line
   style="fill:none;stroke:#263238;stroke-linecap:round;stroke-linejoin:round;stroke-miterlimit:10"
   x1="317.60999"
   y1="244.39799"
   x2="355.16599"
   y2="244.39799"
   id="line24" />
		
			<line
   style="fill:none;stroke:#263238;stroke-linecap:round;stroke-linejoin:round;stroke-miterlimit:10"
   x1="317.60999"
   y1="256.91599"
   x2="355.16599"
   y2="256.91599"
   id="line25" />
		
			<line
   style="fill:none;stroke:#263238;stroke-linecap:round;stroke-linejoin:round;stroke-miterlimit:10"
   x1="317.60999"
   y1="269.435"
   x2="355.16599"
   y2="269.435"
   id="line26" />
		
			<line
   style="fill:none;stroke:#263238;stroke-linecap:round;stroke-linejoin:round;stroke-miterlimit:10"
   x1="317.60999"
   y1="281.953"
   x2="355.16599"
   y2="281.953"
   id="line27" />
		
			<line
   style="fill:none;stroke:#263238;stroke-linecap:round;stroke-linejoin:round;stroke-miterlimit:10"
   x1="317.60999"
   y1="294.47198"
   x2="355.16599"
   y2="294.47198"
   id="line28" />
		
			<line
   style="fill:none;stroke:#263238;stroke-linecap:round;stroke-linejoin:round;stroke-miterlimit:10"
   x1="317.60999"
   y1="306.991"
   x2="355.16599"
   y2="306.991"
   id="line29" />
		
			<line
   style="fill:none;stroke:#263238;stroke-linecap:round;stroke-linejoin:round;stroke-miterlimit:10"
   x1="317.60999"
   y1="319.509"
   x2="355.16599"
   y2="319.509"
   id="line30" />
		
			<line
   style="fill:none;stroke:#263238;stroke-linecap:round;stroke-linejoin:round;stroke-miterlimit:10"
   x1="317.60999"
   y1="332.02802"
   x2="355.16599"
   y2="332.02802"
   id="line31" />
	</g>
</g>
<g
   id="Text_1_">
	<g
   id="g36">
		<g
   id="g32">
			<path
   style="fill:#263238;"
   d="M207.509,193.683l-8.182-50.21h5.827l5.393,36.077l6.756-35.891h4.959l6.819,36.077l5.268-36.263     h5.703l-8.059,50.21h-5.083l-7.004-37.192l-7.066,37.192H207.509z"
   id="path31" />
		</g>
		
			<line
   style="fill:none;stroke:#263238;stroke-linecap:round;stroke-linejoin:round;stroke-miterlimit:10;"
   x1="253.824"
   y1="146.084"
   x2="357.818"
   y2="146.084"
   id="line32" />
		
			<line
   style="fill:none;stroke:#263238;stroke-linecap:round;stroke-linejoin:round;stroke-miterlimit:10;"
   x1="253.824"
   y1="157.114"
   x2="357.818"
   y2="157.114"
   id="line33" />
		
			<line
   style="fill:none;stroke:#263238;stroke-linecap:round;stroke-linejoin:round;stroke-miterlimit:10;"
   x1="253.824"
   y1="168.144"
   x2="357.818"
   y2="168.144"
   id="line34" />
		
			<line
   style="fill:none;stroke:#263238;stroke-linecap:round;stroke-linejoin:round;stroke-miterlimit:10;"
   x1="253.824"
   y1="179.173"
   x2="357.818"
   y2="179.173"
   id="line35" />
		
			<line
   style="fill:none;stroke:#263238;stroke-linecap:round;stroke-linejoin:round;stroke-miterlimit:10;"
   x1="253.824"
   y1="190.203"
   x2="357.818"
   y2="190.203"
   id="line36" />
	</g>
</g>
<g
   id="Code_3"
   transform="translate(18.700787,-0.98425197)">
	<g
   id="g40">
		<path
   style="fill:#263238;stroke:#263238;stroke-linecap:round;stroke-linejoin:round;stroke-miterlimit:10"
   d="m 580.317,211.015 h -60.439 c -3.379,0 -6.144,3.4 -6.144,7.554 V 258.9 c 0,4.155 2.765,7.554 6.144,7.554 h 14.479 l -9.471,20.864 25.257,-20.864 h 30.174 c 3.379,0 6.144,-3.399 6.144,-7.554 v -40.331 c 0,-4.155 -2.765,-7.554 -6.144,-7.554 z"
   id="path36" />
		<g
   id="g39">
			<path
   style="fill:#92e3a9"
   d="m 539.622,251.522 -12.715,-8.98 v -4.757 l 12.715,-9.069 v 4.802 l -9.113,6.624 9.113,6.624 z"
   id="path37" />
			<path
   style="fill:#92e3a9"
   d="m 543.488,253.122 9.692,-36.011 h 4.134 l -9.736,36.011 z"
   id="path38" />
			<path
   style="fill:#92e3a9"
   d="m 561.183,251.522 v -4.757 l 9.158,-6.669 -9.158,-6.58 v -4.802 l 12.759,9.025 v 4.757 z"
   id="path39" />
		</g>
	</g>
</g>
<g
   id="Code_2"
   transform="translate(-26.574803,-30.511811)">
	<g
   id="g44">
		<path
   style="fill:#263238;stroke:#263238;stroke-linecap:round;stroke-linejoin:round;stroke-miterlimit:10"
   d="m 576.385,75.846 h -60.439 c -3.379,0 -6.144,3.399 -6.144,7.554 v 40.331 c 0,4.155 2.765,7.554 6.144,7.554 h 14.479 l -9.471,20.864 25.257,-20.864 h 30.174 c 3.379,0 6.144,-3.399 6.144,-7.554 V 83.4 c 0,-4.155 -2.765,-7.554 -6.144,-7.554 z"
   id="path40" />
		<g
   id="g43">
			<path
   style="fill:#92e3a9"
   d="m 535.689,116.353 -12.715,-8.98 v -4.757 l 12.715,-9.069 v 4.802 l -9.113,6.624 9.113,6.624 v 4.756 z"
   id="path41" />
			<path
   style="fill:#92e3a9"
   d="m 539.556,117.953 9.692,-36.011 h 4.134 l -9.736,36.011 z"
   id="path42" />
			<path
   style="fill:#92e3a9"
   d="m 557.251,116.353 v -4.757 l 9.158,-6.669 -9.158,-6.58 v -4.802 l 12.759,9.025 v 4.757 z"
   id="path43" />
		</g>
	</g>
</g>
<g
   id="Code_1">
	<g
   id="g48">
		<path
   style="fill:#263238;stroke:#263238;stroke-linecap:round;stroke-linejoin:round;stroke-miterlimit:10;"
   d="M338.887,180.016    h-60.439c-3.379,0-6.144,3.4-6.144,7.554v40.331c0,4.155,2.765,7.554,6.144,7.554h14.479l-9.471,20.864l25.257-20.864h30.174    c3.379,0,6.144-3.399,6.144-7.554v-40.331C345.032,183.416,342.267,180.016,338.887,180.016z"
   id="path44" />
		<g
   id="g47">
			<path
   style="fill:#92E3A9;"
   d="M298.192,220.523l-12.715-8.98v-4.757l12.715-9.069v4.802l-9.113,6.624l9.113,6.624V220.523z"
   id="path45" />
			<path
   style="fill:#92E3A9;"
   d="M302.059,222.124l9.692-36.011h4.134l-9.736,36.011H302.059z"
   id="path46" />
			<path
   style="fill:#92E3A9;"
   d="M319.754,220.523v-4.757l9.158-6.668l-9.158-6.58v-4.802l12.759,9.025v4.757L319.754,220.523z"
   id="path47" />
		</g>
	</g>
</g>
<g
   id="Mug"
   transform="translate(8.8582682,18.637795)">
	<g
   id="g53">
		<g
   id="g50">
			<g
   id="g49">
				<path
   style="fill:#263238"
   d="m 189.94,385.079 c -0.045,0 -0.091,-0.002 -0.137,-0.006 -0.58,-0.053 -5.698,-0.612 -6.828,-4.003 -0.876,-2.628 -0.898,-9.995 1.146,-12.332 1.866,-2.132 4.748,-1.101 6.01,-0.26 0.689,0.46 0.876,1.391 0.416,2.08 -0.458,0.686 -1.385,0.874 -2.073,0.421 -0.035,-0.022 -1.512,-0.928 -2.095,-0.266 -0.975,1.114 -1.33,7.093 -0.559,9.407 0.367,1.1 2.757,1.822 4.257,1.965 0.823,0.077 1.43,0.808 1.354,1.632 -0.073,0.778 -0.725,1.362 -1.491,1.362 z"
   id="path48" />
			</g>
			
				<rect
   x="189.086"
   y="366.04501"
   style="fill:#263238;stroke:#263238;stroke-linecap:round;stroke-linejoin:round;stroke-miterlimit:10"
   width="18.000999"
   height="22.106001"
   id="rect49" />
		</g>
		<g
   id="g52">
			<path
   style="fill:none;stroke:#263238;stroke-linecap:round;stroke-linejoin:round;stroke-miterlimit:10"
   d="m 193.537,362.992 c 0,0 -1.068,-3.632 1.068,-7.05 2.136,-3.418 6.409,-4.059 6.196,-10.041"
   id="path50" />
			<path
   style="fill:none;stroke:#263238;stroke-linecap:round;stroke-linejoin:round;stroke-miterlimit:10"
   d="m 204.647,353.806 c 0,0 -1.068,1.923 -2.777,4.059 -1.709,2.137 -1.496,5.128 -1.496,5.128"
   id="path51" />
			<path
   style="fill:none;stroke:#263238;stroke-linecap:round;stroke-linejoin:round;stroke-miterlimit:10"
   d="m 206.57,349.96 c 0,0 1.282,-2.777 0.855,-6.623"
   id="path52" />
		</g>
	</g>
</g>
<g
   id="Character"
   transform="translate(5.9055122,19.748031)">
	<g
   id="g84">
		<g
   id="g54">
			<path
   style="fill:#263238;stroke:#263238;stroke-linecap:round;stroke-linejoin:round;stroke-miterlimit:10"
   d="m 145.716,230.881 c 0,0 -0.875,-3.83 -3.121,-3.56 -2.246,0.27 -1.535,1.013 -3.675,0.442 -2.14,-0.571 -2.565,-2.384 -3.619,-0.808 -1.053,1.577 0.932,2.581 -0.955,2.393 -1.887,-0.187 -2.647,-1.339 -3.39,-0.628 -0.743,0.711 -1.078,1.372 -1.078,1.372 l -0.31,0.866 c 0,0 1.004,-1.985 3.014,-0.777 2.01,1.208 3.488,1.445 3.774,0.375 0.285,-1.07 2.785,-0.957 2.859,-0.344 0.074,0.613 0.785,1.356 0.785,1.356 0,0 -5.538,0.459 -7.171,0.656 -1.634,0.197 -2.826,-1.11 -5.178,0.002 -2.352,1.111 -4.296,2.174 -5.169,3.522 -0.874,1.348 1.185,2.965 0.9,4.035 -0.286,1.07 -4.475,2.403 -4.303,3.832 0.172,1.429 2.059,1.617 0.14,2.883 -1.919,1.267 -3.609,2.713 -3.054,3.889 0.556,1.176 1.953,2.458 1.692,3.732 -0.261,1.274 -2.466,3.611 -1.297,4.713 1.168,1.102 1.887,0.187 1.675,1.87 -0.212,1.683 -1.248,5.122 0.051,5.587 1.299,0.465 2.827,1.11 2.819,2.768 -0.008,1.658 -0.269,2.932 0.875,3.831 1.144,0.898 3.823,0.783 4.118,3.233 0.295,2.45 0.597,3.242 1.692,3.732 1.095,0.49 2.81,-0.752 3.668,1.216 0.858,1.968 3.333,1.878 4.509,1.322 1.176,-0.556 2.099,-1.495 3.186,0.652 1.087,2.148 2.361,2.409 3.946,1.804 1.584,-0.605 3.904,-0.263 4.868,0.864 0.964,1.127 3.21,0.857 4.337,-0.108 1.127,-0.964 1.927,-2.925 2.94,-1.389 1.013,1.535 3.456,2.899 4.329,1.551 0.874,-1.348 1.445,-3.488 2.817,-2.41 1.372,1.078 3.365,0.424 4.059,-0.695 0.694,-1.119 2.205,-2.337 3.887,-2.125 1.683,0.212 3.749,0.17 3.708,-1.896 -0.041,-2.066 -0.213,-3.496 1.469,-3.284 1.683,0.212 4.231,0.734 4.19,-1.333 -0.042,-2.066 -0.189,-3.292 1.036,-3.439 1.225,-0.147 3.095,-1.822 2.743,-3.023 -0.352,-1.201 -1.276,-5.439 -0.663,-5.513 0.613,-0.074 1.437,-1.83 0.579,-3.798 -0.858,-1.968 -1.055,-3.602 -0.467,-3.88 0.588,-0.278 1.134,-2.622 -0.287,-4.108 -1.422,-1.486 -1.977,-2.662 -0.851,-3.626 1.127,-0.964 1.314,-2.851 -0.083,-4.133 -1.397,-1.282 -2.133,-2.229 -2.255,-3.25 -0.123,-1.021 -2.868,-3.176 -3.758,-3.691 -0.89,-0.514 -1.879,-1.845 -2.149,-4.092 -0.27,-2.246 -0.703,-2.401 -4.575,-3.592 -3.872,-1.191 -4.812,-2.114 -6.388,-3.167 -1.577,-1.053 -5.456,-0.587 -6.992,0.427 -1.539,1.012 -7.583,0.704 -9.877,5.744 z"
   id="path53" />
		</g>
		<g
   id="g55">
			<path
   style="fill:#ffffff;stroke:#263238;stroke-linecap:round;stroke-linejoin:round;stroke-miterlimit:10"
   d="m 104.486,335.496 c 6.61,-5.121 20.589,-28.33 20.589,-28.33 0,0 1.687,11.853 3.649,17.512 1.962,5.659 4.626,9.369 3.958,15.871 -0.002,0.023 -0.057,-1.004 -0.061,-0.981 l 35.848,1.052 c -1.097,-1.978 -1.798,-2.343 -1.962,-3.206 -0.581,-3.058 2.545,-9.822 2.579,-12.914 0.035,-3.092 2.385,-8.989 2.385,-8.989 0,0 10.337,22.913 12.71,24.841 2.373,1.928 9.023,3.001 8.625,-4.186 -0.399,-7.187 -12.447,-34.949 -14.568,-39.775 -2.121,-4.826 -4.779,-8.18 -9.901,-7.69 -5.122,0.49 -6.309,1.38 -9.8,1.573 -3.491,0.194 -1.949,-16.576 -1.949,-16.576 0,0 -5.499,4.837 -12.663,1.938 0,0 0.9,8.807 -0.594,11.568 -1.495,2.761 -2.271,3.628 -5.841,2.384 -3.571,-1.244 -9.16,-5.465 -12.571,-3.834 -3.411,1.631 -27.361,41.477 -29.232,44.876 -1.237,2.247 -4.576,8.013 -3.578,9.551 z"
   id="path54" />
		</g>
		<g
   id="g56">
			<path
   style="fill:#92e3a9;stroke:#263238;stroke-linecap:round;stroke-linejoin:round;stroke-miterlimit:10"
   d="m 132.682,340.548 c 0.034,-0.334 0.054,-0.657 0.072,-0.977 l -0.133,-0.004 c 0.004,-0.023 0.058,1.004 0.061,0.981 z"
   id="path55" />
			<path
   style="fill:#263238;stroke:#263238;stroke-linecap:round;stroke-linejoin:round;stroke-miterlimit:10"
   d="m 124.918,285.753 c -3.411,1.631 -27.361,41.477 -29.232,44.876 -1.237,2.247 -4.576,8.013 -3.578,9.551 l 12.378,-4.684 c 6.61,-5.121 20.589,-28.331 20.589,-28.331 0,0 1.687,11.853 3.649,17.512 1.861,5.367 4.348,8.986 4.03,14.893 l 35.715,1.048 c -1.097,-1.978 -1.798,-2.343 -1.962,-3.206 -0.581,-3.058 2.545,-9.822 2.579,-12.914 0.035,-3.091 2.385,-8.989 2.385,-8.989 0,0 10.337,22.913 12.71,24.841 2.373,1.928 9.023,3.001 8.625,-4.186 -0.398,-7.187 -12.447,-34.949 -14.568,-39.775 -2.121,-4.826 -4.779,-8.18 -9.901,-7.69 -2.515,0.241 -4.079,0.577 -5.435,0.881 l -14.846,18.074 -10.566,-18.068 c -3.572,-1.243 -9.161,-5.464 -12.572,-3.833 z"
   id="path56" />
		</g>
		<path
   style="fill:#263238;stroke:#263238;stroke-linecap:round;stroke-linejoin:round;stroke-miterlimit:10"
   d="m 133.08,337.791 c 0,0 -18.914,16.346 -19.343,31.742 -0.149,5.339 0.875,17.267 9.985,18.524 9.111,1.257 49.571,0 49.571,0 0,0 3.142,-0.943 5.027,-11.624 1.885,-10.682 -11.938,-38.014 -11.938,-38.014 z"
   id="path57" />
		<g
   id="g64">
			<path
   style="fill:#ffffff;stroke:#263238;stroke-linecap:round;stroke-linejoin:round;stroke-miterlimit:10"
   d="m 146.97,344.297 c 0,0 -3.446,4.282 -3.968,4.491 -0.522,0.209 -1.149,1.88 -2.298,4.386 -1.149,2.506 -0.835,2.715 0.522,2.089 1.358,-0.627 2.715,-3.446 2.715,-3.446 l 2.611,-1.671 c 0,0 2.611,-6.58 0.418,-5.849 z"
   id="path58" />
			<path
   style="fill:#ffffff;stroke:#263238;stroke-linecap:round;stroke-linejoin:round;stroke-miterlimit:10"
   d="m 182.377,332.826 c 0,0 -3.232,4.371 -10.742,7.711 -7.51,3.34 -14.8,2.346 -18.909,2.529 -4.109,0.183 -4.727,-0.737 -6.474,2.552 -1.748,3.289 -0.193,12.319 0.656,12.899 0.849,0.58 0.952,-3.583 0.952,-3.583 0,0 0.754,4.001 1.951,4.072 1.197,0.07 1.578,-3.405 1.578,-3.405 0,0 1.057,2.465 2.03,2.133 0.973,-0.332 0.774,-2.958 0.774,-2.958 0,0 1.181,1.553 1.761,0.704 0.58,-0.849 -0.817,-6.013 -0.817,-6.013 0,0 5.323,0.872 7.27,0.209 1.947,-0.663 2.991,-2.192 2.991,-2.192 0,0 9.686,0.035 15.572,-0.926 5.886,-0.962 14.054,-7.089 12.157,-10.875 -1.898,-3.786 -8.133,-4.638 -8.133,-4.638"
   id="path59" />
			<path
   style="fill:none;stroke:#263238;stroke-linecap:round;stroke-linejoin:round;stroke-miterlimit:10"
   d="m 154.194,354.775 c 0,0 -1.935,-5.555 -1.169,-7.771"
   id="path60" />
			<path
   style="fill:none;stroke:#263238;stroke-linecap:round;stroke-linejoin:round;stroke-miterlimit:10"
   d="m 151.39,355.6 c 0,0 -1.31,-5.377 -1.045,-8.682"
   id="path61" />
			<path
   style="fill:none;stroke:#263238;stroke-linecap:round;stroke-linejoin:round;stroke-miterlimit:10"
   d="m 147.86,354.933 c 0,0 -0.962,-5.886 -0.32,-7.191"
   id="path62" />
			<path
   style="fill:#ffffff;stroke:#263238;stroke-linecap:round;stroke-linejoin:round;stroke-miterlimit:10"
   d="M 144.986,348.579"
   id="path63" />
			<path
   style="fill:#263238;stroke:#263238;stroke-linecap:round;stroke-linejoin:round;stroke-miterlimit:10"
   d="m 182.378,332.826 c 0,0 -1.705,2.292 -5.49,4.824 2.005,1.507 4.079,4.151 4.781,8.77 5.81,-1.3 13.282,-7.098 11.458,-10.737 -1.898,-3.786 -8.133,-4.638 -8.133,-4.638"
   id="path64" />
		</g>
		<g
   id="g69">
			<path
   style="fill:#ffffff;stroke:#263238;stroke-linecap:round;stroke-linejoin:round;stroke-miterlimit:10"
   d="m 123.36,320.583 c 0,0 2.108,-0.48 4.333,-1.507 2.225,-1.027 3.765,-3.252 4.45,-2.396 0.685,0.856 0.19,2.419 -1.103,3.52 -1.293,1.101 -5.058,2.983 -5.058,2.983 0,0 -4.061,-0.786 -2.622,-2.6 z"
   id="path65" />
			<path
   style="fill:#ffffff;stroke:#263238;stroke-linecap:round;stroke-linejoin:round;stroke-miterlimit:10"
   d="m 113.983,329.385 c 0,0 5.092,-13.532 7.421,-13.578 2.328,-0.046 13.315,1.913 12.793,3.011 -0.522,1.097 -1.835,1.434 -3.156,1.382 -1.321,-0.052 -6.24,-1.431 -6.24,-1.431 l -1.44,1.814 c 0,0 5.075,1.453 5.859,1.826 0.784,0.373 3.792,3.342 3.039,4.522 -0.753,1.179 -1.074,0.642 -1.074,0.642 0,0 0.411,1.157 -0.037,2.097 -0.447,0.941 -0.918,0.717 -0.918,0.717 v 0 c -0.099,1.041 -1.163,1.702 -2.139,1.326 -1.144,-0.441 -1.16,-2.611 -2.565,-2.436 -1.588,0.197 -1.841,-0.082 -1.841,-0.082 0,0 -2.82,2.695 -4.812,4.054 -1.992,1.359 -4.477,1.33 -4.477,1.33 0,0 -9.367,7.889 -17.296,8.88 -8.828,1.103 -5.83,-8.395 -1.413,-12.83 4.415,-4.435 18.296,-1.244 18.296,-1.244 z"
   id="path66" />
			<path
   style="fill:none;stroke:#263238;stroke-linecap:round;stroke-linejoin:round;stroke-miterlimit:10"
   d="m 131.184,327.573 c 0,0 -1.687,-2.771 -2.78,-3.291 -1.093,-0.52 -4.689,-1.058 -4.689,-1.058"
   id="path67" />
			<path
   style="fill:none;stroke:#263238;stroke-linecap:round;stroke-linejoin:round;stroke-miterlimit:10"
   d="m 130.23,330.387 c 0,0 -2.592,-3.79 -3.405,-3.842 -0.813,-0.052 -3.46,-0.474 -3.46,-0.474"
   id="path68" />
			<path
   style="fill:#263238;stroke:#263238;stroke-linecap:round;stroke-linejoin:round;stroke-miterlimit:10"
   d="m 99.252,335.652 c 0.356,-3.082 2.269,-5.685 3.843,-7.352 -2.971,0.12 -5.811,0.724 -7.409,2.329 -4.417,4.435 -7.415,13.932 1.413,12.83 1.734,-0.217 3.533,-0.773 5.291,-1.495 -1.756,-1.452 -3.452,-3.589 -3.138,-6.312 z"
   id="path69" />
		</g>
		<g
   id="g79">
			<path
   style="fill:none;stroke:#ffffff;stroke-linecap:round;stroke-linejoin:round;stroke-miterlimit:10"
   d="m 166.601,273.377 c 0.687,2.999 0.17,5.677 -1.155,5.98 -1.325,0.303 -2.955,-1.883 -3.641,-4.882 -0.687,-2.999 -0.17,-5.677 1.155,-5.98 1.324,-0.304 2.954,1.882 3.641,4.882 z"
   id="path70" />
			<path
   style="fill:none;stroke:#ffffff;stroke-linecap:round;stroke-linejoin:round;stroke-miterlimit:10"
   d="m 139.239,275.289 c -0.031,2.901 -1.104,5.242 -2.396,5.228 -1.292,-0.014 -2.315,-2.377 -2.284,-5.278 0.031,-2.901 1.104,-5.242 2.396,-5.228 1.292,0.013 2.315,2.376 2.284,5.278 z"
   id="path71" />
			<path
   style="fill:#ffffff;stroke:#263238;stroke-linecap:round;stroke-linejoin:round;stroke-miterlimit:10"
   d="m 148.466,248.788 c 0,0 -3.008,0.716 -3.037,3.015 -0.029,2.299 0.31,3.076 -1.446,3.79 -1.757,0.713 -2.702,1.29 -2.429,2.912 0.274,1.622 0.985,2.128 -1.246,2.504 -2.231,0.376 -2.064,-1.112 -2.534,1.053 -0.469,2.165 -0.569,2.807 -1.38,2.944 -0.811,0.137 0.184,7.269 2.153,11.525 1.969,4.256 6.58,10.57 9.354,10.936 2.773,0.366 6.331,-2.977 8.813,-5.867 2.23,-2.597 5.524,-10.526 5.524,-10.526 l 0.709,-0.745 c 0,0 1.251,-0.003 1.586,-1.728 0,0 -0.242,-2.671 -1.595,-3.276 -1.354,-0.606 -2.744,-2.665 -2.847,-3.274 -0.103,-0.608 0.572,-1.556 -0.342,-2.028 -0.914,-0.471 -2.436,-0.84 -2.878,-2.226 -0.442,-1.385 1.075,-3.518 -0.718,-4.259 -1.794,-0.74 -2.739,-0.164 -2.979,-1.583 -0.24,-1.419 0.535,-3.01 -0.819,-3.616 -1.355,-0.604 -3.889,0.449 -3.889,0.449 z"
   id="path72" />
			<g
   id="g78">
				<path
   style="fill:#263238"
   d="m 144.498,267.587 c 0.214,1.265 -0.036,2.363 -0.557,2.451 -0.521,0.088 -1.117,-0.867 -1.33,-2.132 -0.213,-1.265 0.036,-2.362 0.557,-2.45 0.521,-0.089 1.117,0.866 1.33,2.131 z"
   id="path73" />
				<path
   style="fill:#263238"
   d="m 153.792,267.716 c -0.014,1.283 -0.453,2.319 -0.982,2.313 -0.528,-0.006 -0.945,-1.051 -0.932,-2.334 0.014,-1.283 0.453,-2.319 0.982,-2.313 0.528,0.006 0.946,1.051 0.932,2.334 z"
   id="path74" />
				<path
   style="fill:none;stroke:#263238;stroke-linecap:round;stroke-linejoin:round;stroke-miterlimit:10"
   d="m 145.034,277.339 c 0,0 1.974,2.637 7.631,0.019"
   id="path75" />
				<path
   style="fill:none;stroke:#263238;stroke-linecap:round;stroke-linejoin:round;stroke-miterlimit:10"
   d="m 139.21,264.182 c 0,0 2.826,-2.972 6.2,-1.046"
   id="path76" />
				<path
   style="fill:none;stroke:#263238;stroke-linecap:round;stroke-linejoin:round;stroke-miterlimit:10"
   d="m 149.814,262.948 c 0,0 3.725,-2.569 7.778,1.737"
   id="path77" />
				<path
   style="fill:none;stroke:#263238;stroke-linecap:round;stroke-linejoin:round;stroke-miterlimit:10"
   d="m 146.081,271.05 c 0,0 -0.362,0.924 -0.277,1.427 0.085,0.503 0.871,2.096 2.549,1.813 1.678,-0.283 2.29,-1.767 1.728,-3.052"
   id="path78" />
			</g>
		</g>
		<g
   id="g80">
			<path
   style="fill:#ffffff;stroke:#263238;stroke-linecap:round;stroke-linejoin:round;stroke-miterlimit:10"
   d="m 153.147,361.598 c -1.527,0.233 -3.01,0.81 -4.346,1.788 -5.857,4.29 -4.35,13.974 -4.552,20.389 -0.254,8.063 -0.512,16.126 -0.778,24.188 -0.391,11.853 -0.568,23.749 -1.331,35.587 -0.585,9.077 -3.139,23.223 -1.189,32.876 1.95,9.653 7.023,7.534 9.734,-1.377 2.711,-8.911 -1.028,-26.255 -1.35,-30.181 -0.25,-3.054 13.779,-49.339 17.545,-70.297 1.393,-7.754 -6.644,-14.056 -13.733,-12.973 z"
   id="path79" />
			<path
   style="fill:#263238;stroke:#263238;stroke-linecap:round;stroke-linejoin:round;stroke-miterlimit:10"
   d="m 146.036,465.31 c -2.578,-0.586 -4.281,-3.77 -5.337,-6.759 -0.543,6.269 -0.792,12.714 0.251,17.875 1.95,9.653 7.024,7.534 9.734,-1.377 1.022,-3.36 1.126,-7.918 0.844,-12.505 -1.353,1.843 -3.184,3.291 -5.492,2.766 z"
   id="path80" />
		</g>
		<g
   id="g82">
			<path
   style="fill:#ffffff;stroke:#263238;stroke-linecap:round;stroke-linejoin:round;stroke-miterlimit:10"
   d="m 129.426,360.877 c 1.544,-0.052 3.108,0.24 4.601,0.955 6.548,3.136 6.854,12.931 8.237,19.198 1.737,7.878 3.479,15.754 5.228,23.629 2.572,11.578 4.941,23.237 7.875,34.73 2.25,8.814 7.37,22.245 7.235,32.092 -0.135,9.847 -5.512,8.7 -9.821,0.443 -4.309,-8.258 -3.835,-25.993 -4.243,-29.911 -0.317,-3.048 -22.647,-45.949 -30.215,-65.853 -2.8,-7.363 3.936,-15.04 11.103,-15.283 z"
   id="path81" />
			<path
   style="fill:#263238;stroke:#263238;stroke-linecap:round;stroke-linejoin:round;stroke-miterlimit:10"
   d="m 155.553,461.495 c 2.425,-1.051 3.512,-4.495 3.998,-7.628 1.691,6.061 3.124,12.349 3.052,17.615 -0.135,9.847 -5.513,8.7 -9.821,0.443 -1.625,-3.114 -2.568,-7.575 -3.137,-12.134 1.671,1.561 3.737,2.645 5.908,1.704 z"
   id="path82" />
		</g>
		<g
   id="g83">
			
				<rect
   x="111.176"
   y="322.681"
   style="fill:#c9c9c9;stroke:#263238;stroke-linecap:round;stroke-linejoin:round;stroke-miterlimit:10"
   width="61.556"
   height="38.241001"
   id="rect82" />
			
				<rect
   x="111.176"
   y="360.048"
   style="fill:#c9c9c9;stroke:#263238;stroke-linecap:round;stroke-linejoin:round;stroke-miterlimit:10"
   width="61.556"
   height="2.2119999"
   id="rect83" />
		</g>
	</g>
</g>
</svg>
