<?xml version="1.0" encoding="utf-8"?>
<!-- Generator: Adobe Illustrator 27.5.0, SVG Export Plug-In . SVG Version: 6.00 Build 0)  -->
<svg version="1.1" xmlns="http://www.w3.org/2000/svg" xmlns:xlink="http://www.w3.org/1999/xlink" x="0px" y="0px"
	 viewBox="-15 0 500 500" style="enable-background:new 0 0 500 500;" xml:space="preserve">
<g id="Background_Simple">
	<g>
		<path style="fill:#92E3A9;" d="M482.767,243.253c-5.184,43.903-25.23,94.949-65.266,118.399
			c-60.491,35.438-55.428,89.944-173.499,113.64c-18.409,3.696-35.879,5.252-52.352,4.944c-8.855-0.164-17.428-0.878-25.695-2.095
			C90.913,467.179,40.414,415.018,21.886,352.053c-24.381-82.81,24.302-137.024,56.571-169.688
			c32.269-32.664,55.902-134.44,171.792-158.647c17.67-3.683,35.74-5.563,53.805-5.112c41.233,1.012,86.207,14.551,117.327,42.811
			c2.337,2.123,4.609,4.325,6.824,6.593C471.459,112.407,489.838,183.399,482.767,243.253z"/>
		<path style="opacity:0.7;fill:#FFFFFF;" d="M482.767,243.253c-5.184,43.903-25.23,94.949-65.266,118.399
			c-60.491,35.438-55.428,89.944-173.499,113.64c-18.409,3.696-35.879,5.252-52.352,4.944c-8.855-0.164-17.428-0.878-25.695-2.095
			C90.913,467.179,40.414,415.018,21.886,352.053c-24.381-82.81,24.302-137.024,56.571-169.688
			c32.269-32.664,55.902-134.44,171.792-158.647c17.67-3.683,35.74-5.563,53.805-5.112c41.233,1.012,86.207,14.551,117.327,42.811
			c2.337,2.123,4.609,4.325,6.824,6.593C471.459,112.407,489.838,183.399,482.767,243.253z"/>
	</g>
</g>
<g id="Mountains">
	<g>
		<path style="fill:#FFFFFF;" d="M15.334,288.083l85.225,12.371c0,0,29.691,4.399,36.839,3.849
			c7.148-0.55,12.646-0.275,21.444-1.924c8.797-1.649,88.799-23.918,88.799-23.918s43.422-11.56,60.471-14.66
			c17.049-3.1,29.642-5.618,41.072-4.262c11.431,1.356,11.431,1.744,30.804,8.912c19.374,7.168,115.081,53.665,115.081,53.665
			v63.159H23.51c0,0-7.556-26.93-9.881-44.947C11.304,322.31,15.334,288.083,15.334,288.083z"/>
		<g>
			<path style="fill:none;stroke:#263238;stroke-linecap:round;stroke-linejoin:round;stroke-miterlimit:10;" d="M245.544,297.831
				c10.026-6.135,10.026-6.135,10.026-6.135"/>
			<path style="fill:none;stroke:#263238;stroke-linecap:round;stroke-linejoin:round;stroke-miterlimit:10;" d="M169.485,338.049
				c38.295,12.672,78.421,21.723,78.421,21.723s-21.189-8.566-52.297-25.247c-31.108-16.681-0.451-5.861,29.755-24.345
				c4.851-2.969,8.924-5.461,12.342-7.553"/>
			<path style="fill:none;stroke:#263238;stroke-linecap:round;stroke-linejoin:round;stroke-miterlimit:10;" d="M90.107,308.262
				c13.751,5.072,32.914,12.286,54.557,20.853c6.458,2.556,13.288,5.033,20.235,7.396"/>
			<path style="fill:none;stroke:#263238;stroke-linecap:round;stroke-linejoin:round;stroke-miterlimit:10;" d="M68.022,300.261
				c0,0,5.444,1.913,14.788,5.323"/>
		</g>
		<path style="fill:none;stroke:#263238;stroke-linecap:round;stroke-linejoin:round;stroke-miterlimit:10;" d="M19.225,288.454
			c0,0,59.439,9.565,107.946,15.714c48.507,6.149,188.565-58.072,235.022-42.359c46.458,15.714,131.175,59.439,131.175,59.439"/>
	</g>
</g>
<g id="Hole">
	<path style="fill:#263238;stroke:#263238;stroke-linecap:round;stroke-linejoin:round;stroke-miterlimit:10;" d="M100.563,405.656
		c0,2.748-12.7,4.977-28.366,4.977s-28.366-2.228-28.366-4.977c0-2.749,12.7-4.977,28.366-4.977S100.563,402.908,100.563,405.656z"
		/>
	<g>
		<path style="fill:#FFFFFF;stroke:#263238;stroke-linecap:round;stroke-linejoin:round;stroke-miterlimit:10;" d="M123.923,394.423
			c0,0,8.246,3.641,19.07-1.821s22.678-5.007,22.162-3.186c-0.515,1.821-0.515,1.821-0.515,1.821s6.185-0.91,8.246,0.91
			c2.062,1.82,2.062,1.82,2.062,1.82s5.746-1.462,8.246-0.91c6.185,1.365,9.277-0.455,11.339,0.91
			c2.062,1.365,2.062,1.365,2.062,1.365s0.515,1.365-2.577,2.731c-3.092,1.365-26.286,0.91-21.132,2.731
			c5.154,1.82,26.801,2.731,19.585,6.827c-7.216,4.096-18.555,2.731-24.739,2.731c-6.185,0-14.431,2.276-17.524,0.91
			c-3.092-1.365,17.008-3.641,13.4-5.007c-3.608-1.365-11.339-1.821-17.008-2.276c-5.669-0.455-10.823,1.365-11.339-1.366
			c-0.515-2.731,1.546-1.365-5.154-2.731c-6.7-1.365-12.885-1.821-17.524-3.186C107.946,395.333,115.677,394.878,123.923,394.423z"
			/>
		<path style="fill:#FFFFFF;stroke:#263238;stroke-linecap:round;stroke-linejoin:round;stroke-miterlimit:10;" d="M170.814,423.296
			c0,0-20.138-4.027-28.696-4.027c-8.558,0-17.117,3.524-27.186,4.531s-19.131-0.504-21.145,1.51
			c-2.014,2.014-9.565,3.021-9.565,3.021l-18.627,0.503l-15.607,1.51c0,0,22.655,2.517,43.8,2.517
			c21.145,0,38.262,0.503,50.848,0.503c12.586,0,4.531-4.531,4.531-4.531s18.124,1.51,23.662,1.51s19.634-0.504,16.614-2.517
			C186.421,425.813,170.814,423.296,170.814,423.296z"/>
		
			<ellipse style="fill:#FFFFFF;stroke:#263238;stroke-linecap:round;stroke-linejoin:round;stroke-miterlimit:10;" cx="208.673" cy="422.796" rx="3.078" ry="1.894"/>
		
			<ellipse style="fill:#FFFFFF;stroke:#263238;stroke-linecap:round;stroke-linejoin:round;stroke-miterlimit:10;" cx="208.2" cy="412.851" rx="3.552" ry="1.421"/>
		
			<ellipse style="fill:#FFFFFF;stroke:#263238;stroke-linecap:round;stroke-linejoin:round;stroke-miterlimit:10;" cx="176.469" cy="417.35" rx="2.605" ry="1.184"/>
		
			<ellipse style="fill:#FFFFFF;stroke:#263238;stroke-linecap:round;stroke-linejoin:round;stroke-miterlimit:10;" cx="150.894" cy="400.063" rx="3.078" ry="1.421"/>
		
			<ellipse style="fill:#FFFFFF;stroke:#263238;stroke-linecap:round;stroke-linejoin:round;stroke-miterlimit:10;" cx="136.212" cy="425.638" rx="1.658" ry="0.474"/>
		<path style="fill:#FFFFFF;stroke:#263238;stroke-linecap:round;stroke-linejoin:round;stroke-miterlimit:10;" d="M112.769,442.451
			c0,0.654-1.272,1.184-2.842,1.184c-1.569,0-2.842-0.53-2.842-1.184c0-0.654,1.272-1.184,2.842-1.184
			C111.497,441.267,112.769,441.797,112.769,442.451z"/>
		<path style="fill:#FFFFFF;stroke:#263238;stroke-linecap:round;stroke-linejoin:round;stroke-miterlimit:10;" d="M69.672,442.214
			c0,1.046-2.333,1.895-5.21,1.895c-2.877,0-5.21-0.848-5.21-1.895c0-1.046,2.332-1.894,5.21-1.894
			C67.339,440.319,69.672,441.168,69.672,442.214z"/>
		
			<ellipse style="fill:#FFFFFF;stroke:#263238;stroke-linecap:round;stroke-linejoin:round;stroke-miterlimit:10;" cx="97.377" cy="420.428" rx="3.078" ry="0.947"/>
	</g>
</g>
<g id="Clouds">
	<path style="fill:none;stroke:#263238;stroke-linecap:round;stroke-linejoin:round;stroke-miterlimit:10;" d="M404.692,61.831
		c0,0-24.775-27.338-51.258-27.338c-26.483,0-27.337,24.775-31.609,28.192c-4.271,3.417-21.357-5.98-27.338,0
		s-5.98,11.106-9.397,11.96s-17.086-4.271-23.066-2.563c-5.98,1.709-11.106,5.98-11.106,5.98s-11.106-0.854-17.086,4.271
		c-5.98,5.126-11.96,6.834-11.96,6.834h244.33c0,0-0.854-15.377-13.669-21.357c-12.815-5.98-14.98-4.849-23.066-0.854
		c-8.086,3.995-3.861-9.111-11.96-9.397C408.365,57.236,410.672,60.977,404.692,61.831z"/>
	<path style="fill:none;stroke:#263238;stroke-linecap:round;stroke-linejoin:round;stroke-miterlimit:10;" d="M170.551,149.843
		c0,0-11.814-13.036-24.443-13.036c-12.629,0-13.036,11.814-15.073,13.443c-2.037,1.63-10.185-2.852-13.036,0
		c-2.852,2.852-2.852,5.296-4.481,5.703c-1.63,0.407-8.148-2.037-10.999-1.222c-2.852,0.815-5.296,2.852-5.296,2.852
		s-5.296-0.407-8.148,2.037c-2.852,2.444-5.703,3.259-5.703,3.259h116.51c0,0-0.407-7.333-6.518-10.184
		c-6.111-2.852-7.143-2.312-10.999-0.407c-3.856,1.905-1.841-4.344-5.703-4.481C172.302,147.652,173.403,149.436,170.551,149.843z"
		/>
	<path style="fill:none;stroke:#263238;stroke-linecap:round;stroke-linejoin:round;stroke-miterlimit:10;" d="M91.177,75.204
		c0,0-9.071-10.009-18.768-10.009S62.4,74.266,60.836,75.517c-1.564,1.251-7.82-2.19-10.009,0c-2.19,2.189-2.19,4.066-3.441,4.379
		c-1.251,0.313-6.256-1.564-8.445-0.938c-2.189,0.626-4.066,2.19-4.066,2.19s-4.066-0.313-6.256,1.564
		c-2.19,1.877-4.379,2.502-4.379,2.502h89.459c0,0-0.313-5.63-5.005-7.82c-4.692-2.189-5.485-1.775-8.445-0.313
		c-2.961,1.463-1.414-3.336-4.379-3.441C92.521,73.522,93.366,74.892,91.177,75.204z"/>
</g>
<g id="Character">
	
		<line style="fill:#FFFFFF;stroke:#263238;stroke-linecap:round;stroke-linejoin:round;stroke-miterlimit:10;" x1="21.436" y1="384.975" x2="493.711" y2="384.975"/>
	<g>
		<g>
			<g>
				<path style="fill:#263238;stroke:#263238;stroke-linecap:round;stroke-linejoin:round;stroke-miterlimit:10;" d="
					M281.398,293.234c0,0-11.076-3.021-9.565,17.117c1.51,20.138,16.378,68.447,16.378,68.447s-7.819,0.525-7.316,3.043
					c0.503,2.517-0.564,7.46-0.564,7.46s-20.581,0.595-21.085,6.133c-0.504,5.538,5.538,11.076,15.607,11.076
					c10.069,0,40.779-3.524,40.779-3.524l-15.103-109.247C300.529,293.738,289.453,291.22,281.398,293.234z"/>
				<path style="fill:#263238;stroke:#263238;stroke-linecap:round;stroke-linejoin:round;stroke-miterlimit:10;" d="M289.68,382.99
					c0,0-5.843,4.441-9.349,6.311c-3.506,1.87-14.725,1.636-17.763,7.012c-3.039,5.376,6.311,11.686,8.414,12.388
					c2.104,0.701,31.319,2.337,43.707,1.402c12.387-0.935,15.609-2.152,17.296-4.908c1.686-2.756,1.402-4.674,1.402-5.843
					c0-1.169-20.1-7.246-27.813-10.985C297.861,384.626,289.68,382.99,289.68,382.99z"/>
				<path style="fill:#92E3A9;stroke:#263238;stroke-linecap:round;stroke-linejoin:round;stroke-miterlimit:10;" d="
					M331.985,405.194c0.745-1.217,1.094-2.261,1.264-3.159c-0.33,0.117-0.67,0.234-1.03,0.354
					c-4.908,1.636-35.76,4.441-50.719,3.506c-9.564-0.598-15.015-1.959-17.706-2.864c2.26,2.934,5.959,5.259,7.188,5.668
					c2.104,0.701,31.319,2.337,43.707,1.402C327.076,409.167,330.298,407.95,331.985,405.194z"/>
			</g>
			<g>
				<path style="fill:#92E3A9;stroke:#263238;stroke-linecap:round;stroke-linejoin:round;stroke-miterlimit:10;" d="
					M288.438,298.788c0,0-2.046,5.001-1.364,10.683c0.682,5.683,5.228,51.825,5.683,58.871c0.455,7.046,0.455,8.41,0.455,8.41
					s-5.001,0-5.001,2.046c0,2.046-0.682,6.592-0.682,6.592s19.548,8.637,22.958,10.229c3.409,1.591,23.185,6.819,23.185,6.819
					s1.818-0.909,2.955-5.001c1.136-4.091,1.364-6.364,1.591-9.547c0.227-3.182-3.41-34.777-3.41-34.777l-4.319-21.366
					c0,0,9.547,7.728,32.959,9.774c23.412,2.046,38.869-3.182,43.869-7.728c5.001-4.546,7.956-12.502,7.956-12.502
					s-8.41-8.865-21.366-17.048c-12.956-8.183-43.415-17.957-64.099-20.457c-20.684-2.5-32.959,2.5-36.141,5.001
					C290.484,291.287,288.438,298.788,288.438,298.788z"/>
				<path style="fill:none;stroke:#263238;stroke-linecap:round;stroke-linejoin:round;stroke-miterlimit:10;" d="M329.965,325.144
					c0.069,2.459,0.069,4.102,0.069,4.102"/>
				<path style="fill:none;stroke:#263238;stroke-linecap:round;stroke-linejoin:round;stroke-miterlimit:10;" d="M319.124,310.153
					c0,0,10.456,6.365,10.683,10.91c0.024,0.471,0.045,0.932,0.064,1.38"/>
				<path style="fill:none;stroke:#263238;stroke-linecap:round;stroke-linejoin:round;stroke-miterlimit:10;" d="M325.715,309.926
					c0,0,5.001,4.773,5.228,7.046"/>
				<path style="fill:none;stroke:#263238;stroke-linecap:round;stroke-linejoin:round;stroke-miterlimit:10;" d="M324.806,316.517
					c0,0-8.638-2.273-10.229-7.728"/>
				<path style="fill:none;stroke:#263238;stroke-linecap:round;stroke-linejoin:round;stroke-miterlimit:10;" d="M294.348,340.157
					c0,0,8.865,27.503,26.822,38.869"/>
				<path style="fill:none;stroke:#263238;stroke-linecap:round;stroke-linejoin:round;stroke-miterlimit:10;" d="M316.303,384.972
					c1.415,1.292,2.831,2.321,4.185,2.918"/>
				<path style="fill:none;stroke:#263238;stroke-linecap:round;stroke-linejoin:round;stroke-miterlimit:10;" d="M302.985,366.978
					c0,0,5.108,9.147,10.858,15.504"/>
				<path style="fill:none;stroke:#263238;stroke-linecap:round;stroke-linejoin:round;stroke-miterlimit:10;" d="M397.095,323.459
					c0.518,1.891,0.858,3.782,0.902,5.56"/>
				<path style="fill:none;stroke:#263238;stroke-linecap:round;stroke-linejoin:round;stroke-miterlimit:10;" d="M389.814,307.88
					c0,0,3.855,5.837,6.274,12.451"/>
				<path style="fill:none;stroke:#263238;stroke-linecap:round;stroke-linejoin:round;stroke-miterlimit:10;" d="M395.724,313.335
					c0,0,6.137,6.592,7.046,13.183"/>
			</g>
			<path style="fill:#263238;stroke:#263238;stroke-linecap:round;stroke-linejoin:round;stroke-miterlimit:10;" d="
				M263.315,250.709c0,0,0.995,1.493,0.249,3.733c-0.746,2.24-12.691,0.747-14.433,2.986c-1.742,2.24-2.488,7.466-1.244,9.456
				c1.244,1.991,17.668,2.24,20.406,2.24s11.945,0.995,12.194-1.742c0.249-2.737,1.244-6.221-0.747-7.714
				c-1.991-1.493-11.945-2.737-12.193-3.982c-0.249-1.244,1.742-2.986,1.742-2.986L263.315,250.709z"/>
			<path style="fill:none;stroke:#263238;stroke-width:0.5;stroke-linecap:round;stroke-linejoin:round;stroke-miterlimit:10;" d="
				M310.845,272.109c-23.143,2.488-32.35-15.677-32.35-15.677s-4.728,1.991-18.664-0.747c-13.935-2.737-30.359-17.668-30.359-17.668
				s-2.986,1.244-16.922,0.747s-44.046-13.687-44.046-13.687s-7.217,3.982-21.65,4.479c-14.433,0.498-37.327-5.723-37.327-5.723
				s-5.972,3.733-14.931,6.47s-24.044-0.265-24.044-0.265v180.594"/>
			<g>
				<path style="fill:#A1A1A1;stroke:#263238;stroke-linecap:round;stroke-linejoin:round;stroke-miterlimit:10;" d="
					M323.67,257.874c0,0-17.957-9.319-24.321-10.91c-6.364-1.591-17.048,0.455-19.321,2.728c-2.273,2.273-2.955,12.274-2.955,13.865
					s11.592,6.365,21.139,8.41c9.547,2.046,28.413,1.591,28.413,1.591S326.397,263.102,323.67,257.874z"/>
				<g>
					<path style="fill:#263238;" d="M332.14,284.719c-19.872-11.157-40.439-21.255-61.342-30.447
						c-10.459-4.594-21.044-8.9-31.753-12.866c-10.697-3.958-21.582-7.336-32.708-9.882c-22.24-5.065-45.027-7.785-67.857-8.406
						c-11.414-0.285-22.857-0.061-34.212,1.014c-5.653,0.614-11.319,1.508-16.944,2.47c-2.813,0.491-5.618,1.026-8.403,1.632
						c-1.394,0.299-2.778,0.633-4.154,0.988c-1.354,0.367-2.778,0.756-3.992,1.264l-0.058,0.024
						c-0.254,0.106-0.546-0.013-0.653-0.268c-0.106-0.253,0.012-0.543,0.263-0.651c1.422-0.611,2.77-0.971,4.171-1.369
						c1.391-0.372,2.787-0.721,4.188-1.033c2.801-0.634,5.615-1.195,8.436-1.71c5.648-1.013,11.287-1.951,17.009-2.621
						c11.429-1.177,22.913-1.494,34.382-1.302c22.935,0.436,45.85,2.977,68.295,7.895c11.218,2.47,22.265,5.798,33.064,9.695
						c10.79,3.896,21.454,8.133,31.992,12.658c21.078,9.066,41.744,18.998,61.887,30.091c0.787,0.433,1.074,1.423,0.64,2.21
						c-0.433,0.787-1.423,1.074-2.21,0.64l-0.012-0.006L332.14,284.719z"/>
				</g>
				<path style="fill:#A1A1A1;stroke:#263238;stroke-linecap:round;stroke-linejoin:round;stroke-miterlimit:10;" d="
					M304.122,250.145c0,0-8.865-5.228-11.138-4.773c-2.273,0.455-8.865,15.684-8.865,15.684s0,4.319,3.637,4.546
					c3.637,0.227,7.956-4.319,7.956-4.319s2.955,7.501,10.001,0.227"/>
			</g>
			<path style="fill:#263238;stroke:#263238;stroke-linecap:round;stroke-linejoin:round;stroke-miterlimit:10;" d="
				M328.898,206.958c0,0-10.456,31.14-10.001,40.005c0.455,8.865,7.274,21.821,7.046,22.503c-0.227,0.682,2.728,8.41,2.728,8.41
				l-2.046,5.228c0,0,1.364,5.228,10.229,5.682c8.865,0.455,28.867,7.274,42.051,12.047c13.183,4.773,21.366,14.093,25.912,17.048
				c4.546,2.955,7.046,8.41,10.001,6.819s8.637-7.274,8.41-13.184c-0.227-5.91,1.591-25.912-0.909-36.368
				c-2.5-10.456-13.411-53.87-14.547-57.053c-1.137-3.182-7.501-16.138-15.911-26.594c-8.41-10.456-16.083-13.016-16.083-13.016
				l-6.193-1.531L328.898,206.958z"/>
			<g>
				<path style="fill:#92E3A9;stroke:#263238;stroke-linecap:round;stroke-linejoin:round;stroke-miterlimit:10;" d="
					M422.319,275.148c-2.5-10.456-13.411-53.87-14.547-57.053c-0.183-0.513-0.504-1.283-0.946-2.252l-18.375,7.935
					c0,0-5.001,8.865-8.865,13.638c-3.864,4.773-5.001,5.228-5.001,8.41c0,3.182-6.819,27.731-9.319,33.413
					c-1.591,3.615-4.743,10.263-6.828,14.623c7.108,2.222,14.488,4.806,20.466,6.97c13.183,4.773,21.366,14.093,25.912,17.048
					c4.546,2.955,7.046,8.41,10.001,6.819s8.637-7.274,8.41-13.184C423,305.607,424.819,285.604,422.319,275.148z"/>
				<path style="fill:none;stroke:#263238;stroke-linecap:round;stroke-linejoin:round;stroke-miterlimit:10;" d="M390.097,288.307
					c1.915,0.221,3.88,0.592,5.855,1.161"/>
				<path style="fill:none;stroke:#263238;stroke-linecap:round;stroke-linejoin:round;stroke-miterlimit:10;" d="M369.585,290.832
					c0,0,7.213-2.911,16.447-2.783"/>
				<path style="fill:none;stroke:#263238;stroke-linecap:round;stroke-linejoin:round;stroke-miterlimit:10;" d="M387.996,291.287
					c0,0,14.32,0.227,14.093,5.683c-0.227,5.455-3.864-0.909-3.864-0.909"/>
				<path style="fill:none;stroke:#263238;stroke-linecap:round;stroke-linejoin:round;stroke-miterlimit:10;" d="M388.538,267.406
					c2.488-1.017,5.029-1.823,7.186-2.032"/>
				<path style="fill:none;stroke:#263238;stroke-linecap:round;stroke-linejoin:round;stroke-miterlimit:10;" d="M377.54,273.103
					c0,0,3.473-2.197,7.767-4.257"/>
			</g>
			<path style="fill:none;stroke:#263238;stroke-linecap:round;stroke-linejoin:round;stroke-miterlimit:10;" d="M340.49,221.278
				c0,0-10.456-3.182-12.502,2.273c-2.046,5.455-3.637,20.912-2.046,24.548c1.591,3.637,9.319,8.41,9.774,7.274
				c0.455-1.137,6.364-18.184,6.819-24.549C342.99,224.46,340.49,221.278,340.49,221.278z"/>
			<g>
				<path style="fill:#FFFFFF;stroke:#263238;stroke-linecap:round;stroke-linejoin:round;stroke-miterlimit:10;" d="
					M308.377,147.954c0,0-2.348,9.587-0.587,12.131c1.761,2.544,2.739,3.913,2.544,5.479c-0.196,1.565-3.326,10.37-2.739,12.522
					c0.587,2.152,5.478,2.544,5.478,2.544s1.565,5.674,1.37,9.196c-0.196,3.522,3.131,8.609,9.392,7.826
					c6.261-0.783,12.718-6.652,15.849-9.979c3.131-3.326,5.87-8.022,5.87-8.022s-2.152-9.979-9-19.175
					C329.704,151.281,310.921,146.389,308.377,147.954z"/>
				<path style="fill:#263238;stroke:#263238;stroke-linecap:round;stroke-linejoin:round;stroke-miterlimit:10;" d="
					M312.486,131.323c0,0-6.848,5.87-8.218,10.761c-1.37,4.892,0.391,8.022,2.348,9c1.957,0.978,11.348,2.544,16.631,4.696
					c5.283,2.152,8.805,6.261,9.392,6.652c0.587,0.391,4.305,5.87,4.696,10.174c0.391,4.305-1.957,9,0.391,10.761
					c2.348,1.761,5.674,1.37,11.153-1.957c5.478-3.326,13.696-21.914,13.892-25.436c0.196-3.522-1.37-9-1.565-12.914
					c-0.196-3.913,4.305-4.892,4.5-7.044c0.196-2.152-1.957-7.826-3.913-8.609c-1.957-0.783-8.805-3.326-8.805-3.326
					s-18.979-3.131-25.827-0.978C320.313,125.257,312.486,131.323,312.486,131.323z"/>
				<path style="fill:none;stroke:#263238;stroke-linecap:round;stroke-linejoin:round;stroke-miterlimit:10;" d="M313.073,180.63
					c0,0,5.283-0.587,5.87-2.348c0.587-1.761-2.152-4.305-3.131-4.5"/>
				<path style="fill:#263238;stroke:#263238;stroke-linecap:round;stroke-linejoin:round;stroke-miterlimit:10;" d="
					M318.858,176.074c0,0,3.297-2.58,6.594-1.505c3.297,1.075,7.597,7.382,8.314,12.471c0.717,5.089-0.072,5.949-0.502,6.522
					c-0.43,0.573-5.375,3.798-8.744,4.085c-3.368,0.287-5.232,0.215-7.382-2.007c-2.15-2.222-2.523-3.172-2.695-5.815
					s3.34-3.288,3.77-2.427c0.43,0.86-0.573,2.867,0.86,4.085c1.433,1.218,5.662,1.72,8.457,0c2.795-1.72,4.085-4.73,2.293-9.245
					c-1.792-4.515-3.584-6.665-5.662-6.379c-2.078,0.287-5.218,2.423-5.218,2.423L318.858,176.074z"/>
				<path style="fill:none;stroke:#263238;stroke-linecap:round;stroke-linejoin:round;stroke-miterlimit:10;" d="M316.278,183.098
					c0,0,4.945,0.645,7.167-5.089"/>
				<path style="fill:none;stroke:#263238;stroke-linecap:round;stroke-linejoin:round;stroke-miterlimit:10;" d="M316.278,168.477
					c0,0,1.003,2.508,4.515,1.648"/>
				<path style="fill:#263238;stroke:#263238;stroke-linecap:round;stroke-linejoin:round;stroke-miterlimit:10;" d="
					M312.766,161.238c0,0-1.863-1.003-0.215-2.652c1.648-1.648,6.665-1.648,7.167-0.502s-1.075,0.645-2.509,1.362
					C315.776,160.163,313.913,161.525,312.766,161.238z"/>
				<path style="fill:#263238;" d="M318.359,163.802c0.369,1.066,0.138,2.114-0.516,2.341c-0.655,0.227-1.485-0.453-1.854-1.519
					c-0.369-1.066-0.138-2.114,0.516-2.341C317.159,162.056,317.989,162.736,318.359,163.802z"/>
			</g>
			<g>
				<path style="fill:#92E3A9;stroke:#263238;stroke-linecap:round;stroke-linejoin:round;stroke-miterlimit:10;" d="
					M330.35,208.929c0,0-5.048,0.946-5.363-1.104c-0.315-2.051,9.937-17.193,16.72-30.916c6.783-13.723,16.878-23.345,22.398-24.291
					c5.521-0.946,6.94,2.681,6.94,6.152c0,3.47-0.473,6.467-0.473,6.467s7.729,2.366,7.414,7.414
					c-0.315,5.048-1.735,5.836-2.208,5.836s-11.988,5.205-25.238,15.458C337.29,204.197,330.981,208.14,330.35,208.929z"/>
				<path style="fill:none;stroke:#263238;stroke-linecap:round;stroke-linejoin:round;stroke-miterlimit:10;" d="M368.049,166.025
					c0,0-33.598,33.913-30.916,32.02c2.682-1.893,22.398-19.086,24.134-20.506"/>
			</g>
			<g>
				<path style="fill:#263238;stroke:#263238;stroke-linecap:round;stroke-linejoin:round;stroke-miterlimit:10;" d="
					M353.446,205.367c0,0-16.593,11.138-16.138,15.002c0.455,3.864,1.137,10.001,1.137,10.001l-6.137,32.277
					c0,0-3.182-0.909-3.864,0.909c-0.682,1.818-1.364,4.546-1.364,4.546s-2.046-1.364-3.182-0.682
					c-1.137,0.682-2.955,2.273-2.955,2.273l-9.774,0.455l-0.682,14.775c0,0,17.502,3.182,23.412,5.455
					c5.91,2.273,20.457,6.592,27.049,6.137c6.592-0.455,15.002-27.049,16.366-33.868c1.364-6.819,3.41-20.684,3.41-20.684
					s8.41-4.546,10.001-9.774c1.591-5.228,1.591-10.229,1.591-10.229l-0.909-12.956"/>
				<path style="fill:none;stroke:#969696;stroke-linecap:round;stroke-linejoin:round;stroke-miterlimit:10;" d="M344.329,211.173
					c0,0-4.98,6.31-7.021,9.196c-2.041,2.887,1.137,10.001,1.137,10.001l-6.137,32.277c0,0-2.5-3.637-3.864,0.909"/>
				<path style="fill:none;stroke:#969696;stroke-linecap:round;stroke-linejoin:round;stroke-miterlimit:10;" d="M331.853,268.329
					c0,0,15.684,9.547,14.775,6.819c-0.909-2.728-7.046-7.728-9.319-8.41"/>
			</g>
			<path style="fill:#A1A1A1;stroke:#263238;stroke-linecap:round;stroke-linejoin:round;stroke-miterlimit:10;" d="
				M314.578,265.147l0.227,20.685c0,0-12.956,0.909-18.184,4.546c-5.228,3.637-8.183,8.41-8.183,8.41s-14.547-3.41-18.184-4.546
				c-3.637-1.137-5.683-2.955-6.819-6.364c-1.137-3.41-1.818-5.228-1.818-5.228s-4.773-2.273-4.773-5.001s0.909-5.228,2.273-6.364
				c1.364-1.137,7.046-6.137,7.046-6.137s1.137-5.455,4.546-5.455c3.41,0,12.047-1.136,13.411,1.364
				c1.364,2.5,3.637,4.546,3.637,4.546L314.578,265.147z"/>
		</g>
		<path style="fill:#A1A1A1;stroke:#263238;stroke-linecap:round;stroke-linejoin:round;stroke-miterlimit:10;" d="M409.246,408.287
			l-10.127,1.135c-13.728,1.538-27.586,1.504-41.306-0.103l-8.812-1.032v-67.676h60.245V408.287z"/>
	</g>
	<path style="fill:#263238;stroke:#263238;stroke-linecap:round;stroke-linejoin:round;stroke-miterlimit:10;" d="M469.781,433.841"
		/>
</g>
<g id="Fishes">
	<g>
		<g>
			
				<rect x="366.677" y="367.093" style="fill:none;stroke:#263238;stroke-linecap:round;stroke-linejoin:round;stroke-miterlimit:10;" width="97.319" height="52.715"/>
			
				<rect x="364.744" y="366.649" style="fill:#92E3A9;stroke:#263238;stroke-linecap:round;stroke-linejoin:round;stroke-miterlimit:10;" width="101.186" height="5.83"/>
		</g>
		<g>
			<g>
				<g>
					<path style="fill:#92E3A9;" d="M385.119,397.785c2.066-1.851,2.562-4.192,6.195-4.576c3.633-0.384,10.335,1.201,13.666,3.286
						c3.331,2.085,5.239,3.861,7.723,6.458c-4.725-0.943-8.918-3.917-13.629-4.668C394.364,397.534,389.891,398.172,385.119,397.785
						z"/>
					<path style="opacity:0.12;" d="M385.119,397.785c2.066-1.851,2.562-4.192,6.195-4.576c3.633-0.384,10.335,1.201,13.666,3.286
						c3.331,2.085,5.239,3.861,7.723,6.458c-4.725-0.943-8.918-3.917-13.629-4.668C394.364,397.534,389.891,398.172,385.119,397.785
						z"/>
					
						<path style="fill:none;stroke:#263238;stroke-width:0.75;stroke-linecap:round;stroke-linejoin:round;stroke-miterlimit:10;" d="
						M385.119,397.785c2.066-1.851,2.562-4.192,6.195-4.576c3.633-0.384,10.335,1.201,13.666,3.286
						c3.331,2.085,5.239,3.861,7.723,6.458c-4.725-0.943-8.918-3.917-13.629-4.668C394.364,397.534,389.891,398.172,385.119,397.785
						z"/>
					
						<path style="fill:none;stroke:#263238;stroke-width:0.75;stroke-linecap:round;stroke-linejoin:round;stroke-miterlimit:10;" d="
						M387.557,397.44c0.515-0.712,1.126-1.34,1.718-1.988"/>
					
						<path style="fill:none;stroke:#263238;stroke-width:0.75;stroke-linecap:round;stroke-linejoin:round;stroke-miterlimit:10;" d="
						M390.402,396.702c0.636-0.833,1.29-1.653,1.941-2.474"/>
					
						<path style="fill:none;stroke:#263238;stroke-width:0.75;stroke-linecap:round;stroke-linejoin:round;stroke-miterlimit:10;" d="
						M391.988,397.261c0.385-0.587,0.76-1.179,1.154-1.76"/>
					
						<path style="fill:none;stroke:#263238;stroke-width:0.75;stroke-linecap:round;stroke-linejoin:round;stroke-miterlimit:10;" d="
						M394.864,397.183c0.614-0.849,1.258-1.678,1.886-2.517"/>
					
						<path style="fill:none;stroke:#263238;stroke-width:0.75;stroke-linecap:round;stroke-linejoin:round;stroke-miterlimit:10;" d="
						M399.061,397.603c0.414-0.748,0.838-1.491,1.233-2.249"/>
					
						<path style="fill:none;stroke:#263238;stroke-width:0.75;stroke-linecap:round;stroke-linejoin:round;stroke-miterlimit:10;" d="
						M401.227,398.244c0.413-0.656,0.79-1.333,1.173-2.007"/>
					
						<path style="fill:none;stroke:#263238;stroke-width:0.75;stroke-linecap:round;stroke-linejoin:round;stroke-miterlimit:10;" d="
						M403.682,397.783c0.179-0.334,0.358-0.668,0.536-1.002"/>
					
						<path style="fill:none;stroke:#263238;stroke-width:0.75;stroke-linecap:round;stroke-linejoin:round;stroke-miterlimit:10;" d="
						M393.416,394.926c0.156-0.21,0.312-0.42,0.467-0.63"/>
					
						<path style="fill:none;stroke:#263238;stroke-width:0.75;stroke-linecap:round;stroke-linejoin:round;stroke-miterlimit:10;" d="
						M406.111,398.832c0.13-0.162,0.26-0.323,0.382-0.491"/>
				</g>
				
					<path style="fill:#92E3A9;stroke:#263238;stroke-width:0.75;stroke-linecap:round;stroke-linejoin:round;stroke-miterlimit:10;" d="
					M371.068,412.617c7.681,0.715,15.764,1.933,23.437,2.11c7.673,0.177,15.166-1.988,21.629-4.94
					c2.338-1.068,2.362,0.26,3.791,1.436c1.429,1.176,3.657,2.668,5.496,2.945c1.839,0.277,3.093,0.169,2.418-1.935
					c-0.675-2.105-4.706-5.082-3.377-7.62c1.329-2.538,4.066-0.466,6.035-2.346c1.969-1.88-2.138-3.887-5.106-3.413
					c-2.969,0.473-5.078,3.055-8.533,4.749c-3.455,1.695-7.908-3.337-12.365-5.132c-4.457-1.795-16.109-2.172-20.845,0.092
					c-4.736,2.264-10.451,5.965-12.493,8.842c-2.042,2.877-0.466,2.446,0.286,3.954
					C370.692,411.404,370.409,411.945,371.068,412.617z"/>
				<path style="fill:#92E3A9;" d="M425.46,398.879c-2.622,0.599-6.065,2.698-8.297,4.836c-0.105,0.101-0.219,0.094-0.264,0.19
					c1.169,0.324,4.195,0.56,3.979,2.096c-0.272,1.935-2.076,2.271-3.484,2.966c-0.073,0.127-0.073,0.317-0.131,0.451
					c1.261,0.209,1.79,0.733,2.699,1.758c1.257,1.417,3.682,2.622,5.471,2.977c1.789,0.355,3.093,0.152,2.412-1.924
					c-0.681-2.076-4.733-5.097-3.375-7.615c1.358-2.517,3.972-0.501,6.049-2.34S428.082,398.28,425.46,398.879z"/>
				<path style="opacity:0.12;" d="M425.46,398.879c-2.622,0.599-6.065,2.698-8.297,4.836c-0.105,0.101-0.219,0.094-0.264,0.19
					c1.169,0.324,4.195,0.56,3.979,2.096c-0.272,1.935-2.076,2.271-3.484,2.966c-0.073,0.127-0.073,0.317-0.131,0.451
					c1.261,0.209,1.79,0.733,2.699,1.758c1.257,1.417,3.682,2.622,5.471,2.977c1.789,0.355,3.093,0.152,2.412-1.924
					c-0.681-2.076-4.733-5.097-3.375-7.615c1.358-2.517,3.972-0.501,6.049-2.34S428.082,398.28,425.46,398.879z"/>
				
					<path style="fill:none;stroke:#263238;stroke-width:0.75;stroke-linecap:round;stroke-linejoin:round;stroke-miterlimit:10;" d="
					M425.46,398.879c-2.622,0.599-6.065,2.698-8.297,4.836c-0.105,0.101-0.219,0.094-0.264,0.19c1.169,0.324,4.195,0.56,3.979,2.096
					c-0.272,1.935-2.076,2.271-3.484,2.966c-0.073,0.127-0.073,0.317-0.131,0.451c1.261,0.209,1.79,0.733,2.699,1.758
					c1.257,1.417,3.682,2.622,5.471,2.977c1.789,0.355,3.093,0.152,2.412-1.924c-0.681-2.076-4.733-5.097-3.375-7.615
					c1.358-2.517,3.972-0.501,6.049-2.34S428.082,398.28,425.46,398.879z"/>
				
					<path style="fill:none;stroke:#263238;stroke-width:0.75;stroke-linecap:round;stroke-linejoin:round;stroke-miterlimit:10;" d="
					M418.715,408.66c1.152,0.548,2.259,1.155,3.342,1.828"/>
				
					<path style="fill:none;stroke:#263238;stroke-width:0.75;stroke-linecap:round;stroke-linejoin:round;stroke-miterlimit:10;" d="
					M419.714,407.922c0.621,0.262,1.228,0.551,1.827,0.86"/>
				
					<path style="fill:none;stroke:#263238;stroke-width:0.75;stroke-linecap:round;stroke-linejoin:round;stroke-miterlimit:10;" d="
					M420.902,406.994c0.673,0.189,1.331,0.411,1.99,0.642"/>
				
					<path style="fill:none;stroke:#263238;stroke-width:0.75;stroke-linecap:round;stroke-linejoin:round;stroke-miterlimit:10;" d="
					M420.973,406.077c0.677-0.137,1.365-0.249,2.05-0.336"/>
				
					<path style="fill:none;stroke:#263238;stroke-width:0.75;stroke-linecap:round;stroke-linejoin:round;stroke-miterlimit:10;" d="
					M420.398,404.605c0.72-0.393,1.448-0.771,2.182-1.138"/>
				
					<path style="fill:none;stroke:#263238;stroke-width:0.75;stroke-linecap:round;stroke-linejoin:round;stroke-miterlimit:10;" d="
					M418.774,404.16c1.203-1.105,2.405-2.209,3.638-3.281"/>
				<path style="fill:#92E3A9;" d="M371.019,407.518c-1.255,2.201-0.802,2.744,0.457,3.811c-0.831,0.105-1.038,0.61-0.415,1.277
					c2.836,0.334,5.656,0.424,8.53,0.577c1.614-1.847,3.997-4.231,2.987-6.899c-0.77-2.036-3.15-3.301-5.138-4.03
					C375.502,403.091,371.72,406.289,371.019,407.518z"/>
				<path style="opacity:0.12;" d="M371.019,407.518c-1.255,2.201-0.802,2.744,0.457,3.811c-0.831,0.105-1.038,0.61-0.415,1.277
					c2.836,0.334,5.656,0.424,8.53,0.577c1.614-1.847,3.997-4.231,2.987-6.899c-0.77-2.036-3.15-3.301-5.138-4.03
					C375.502,403.091,371.72,406.289,371.019,407.518z"/>
				
					<path style="fill:none;stroke:#263238;stroke-width:0.75;stroke-linecap:round;stroke-linejoin:round;stroke-miterlimit:10;" d="
					M371.019,407.518c-1.255,2.201-0.802,2.744,0.457,3.811c-0.831,0.105-1.038,0.61-0.415,1.277
					c2.836,0.334,5.656,0.424,8.53,0.577c1.614-1.847,3.997-4.231,2.987-6.899c-0.77-2.036-3.15-3.301-5.138-4.03
					C375.502,403.091,371.72,406.289,371.019,407.518z"/>
				
					<path style="fill:#FFFFFF;stroke:#263238;stroke-width:0.75;stroke-linecap:round;stroke-linejoin:round;stroke-miterlimit:10;" d="
					M373.112,407.208c0.546-0.055,1.159,0.203,1.209,0.799c0.049,0.596-0.528,0.977-1.055,1.03
					c-0.528,0.053-1.164-0.203-1.228-0.791C371.974,407.657,372.566,407.263,373.112,407.208z"/>
				<path style="fill:#263238;" d="M372.978,407.686c0.24-0.026,0.497,0.089,0.518,0.351c0.021,0.262-0.209,0.424-0.447,0.45
					c-0.238,0.026-0.515-0.085-0.536-0.346C372.492,407.88,372.738,407.712,372.978,407.686z"/>
				<g>
					<path style="fill:#92E3A9;" d="M385.969,406.293c0.664,0.87,2.524,1.719,3.365,2.05c0.841,0.331,3.619,1.861,4.096,0.966
						c0.477-0.895,0.725-3.476-0.748-4.011c-1.473-0.535-4.546-0.214-6.242-0.119"/>
					<path style="opacity:0.12;" d="M385.969,406.293c0.664,0.87,2.524,1.719,3.365,2.05c0.841,0.331,3.619,1.861,4.096,0.966
						c0.477-0.895,0.725-3.476-0.748-4.011c-1.473-0.535-4.546-0.214-6.242-0.119"/>
					
						<path style="fill:none;stroke:#263238;stroke-width:0.75;stroke-linecap:round;stroke-linejoin:round;stroke-miterlimit:10;" d="
						M385.969,406.293c0.664,0.87,2.524,1.719,3.365,2.05c0.841,0.331,3.619,1.861,4.096,0.966c0.477-0.895,0.725-3.476-0.748-4.011
						c-1.473-0.535-4.546-0.214-6.242-0.119"/>
					
						<path style="fill:none;stroke:#263238;stroke-width:0.75;stroke-linecap:round;stroke-linejoin:round;stroke-miterlimit:10;" d="
						M385.589,406.397c0.555-0.248,0.762-1.151,0.645-1.553c-0.117-0.402-0.453-0.721-0.73-0.553"/>
					
						<path style="fill:none;stroke:#263238;stroke-width:0.75;stroke-linecap:round;stroke-linejoin:round;stroke-miterlimit:10;" d="
						M385.938,406.276c1.351,0.559,2.718,1.076,4.068,1.637"/>
					
						<path style="fill:none;stroke:#263238;stroke-width:0.75;stroke-linecap:round;stroke-linejoin:round;stroke-miterlimit:10;" d="
						M386.727,406.177c1.391,0.194,2.787,0.418,4.116,0.881"/>
					
						<path style="fill:none;stroke:#263238;stroke-width:0.75;stroke-linecap:round;stroke-linejoin:round;stroke-miterlimit:10;" d="
						M386.423,405.759c0.715-0.041,1.429-0.085,2.144-0.123"/>
				</g>
			</g>
			<path style="fill:#FFFFFF;" d="M395.39,407.752c3.328-0.201,11.941,1.161,13.843,1.61c1.902,0.449,8.818-1.502,6.628-2.263
				c-2.19-0.762-12.172-1.602-15.164-2.252C397.704,404.197,392.293,405.72,395.39,407.752z"/>
			<path style="fill:#FFFFFF;" d="M374.191,405.74c1.107-0.595,2.308-0.772,3.505-0.775c1.197-0.004,2.59,2.076,3.49,1.702
				c0.899-0.374-0.859-1.69-1.452-2.19c-0.592-0.499-2.512-1.239-3.281-0.727C375.685,404.262,373.508,405.421,374.191,405.74z"/>
			<path style="fill:#FFFFFF;" d="M381.087,402.366c2.62-3.1,8.243-2.793,11.289-3.307c3.046-0.514,14.193,3.013,12.68,1.321
				c-1.513-1.692-10.316-2.856-13.588-2.395c-3.272,0.461-8.03,0.835-10.169,2.504C379.161,402.159,379.888,401.636,381.087,402.366
				z"/>
		</g>
		<g>
			<g>
				<g>
					<path style="fill:#92E3A9;" d="M446.488,396.445c-1.849-2.069-2.082-4.45-5.65-5.233c-3.568-0.784-10.404,0.05-13.946,1.753
						c-3.542,1.703-5.634,3.257-8.391,5.563c4.8-0.414,9.297-2.905,14.062-3.13S441.703,396.301,446.488,396.445z"/>
					<path style="opacity:0.12;" d="M446.488,396.445c-1.849-2.069-2.082-4.45-5.65-5.233c-3.568-0.784-10.404,0.05-13.946,1.753
						c-3.542,1.703-5.634,3.257-8.391,5.563c4.8-0.414,9.297-2.905,14.062-3.13S441.703,396.301,446.488,396.445z"/>
					
						<path style="fill:none;stroke:#263238;stroke-width:0.75;stroke-linecap:round;stroke-linejoin:round;stroke-miterlimit:10;" d="
						M446.488,396.445c-1.849-2.069-2.082-4.45-5.65-5.233c-3.568-0.784-10.404,0.05-13.946,1.753
						c-3.542,1.703-5.634,3.257-8.391,5.563c4.8-0.414,9.297-2.905,14.062-3.13S441.703,396.301,446.488,396.445z"/>
					
						<path style="fill:none;stroke:#263238;stroke-width:0.75;stroke-linecap:round;stroke-linejoin:round;stroke-miterlimit:10;" d="
						M444.104,395.832c-0.433-0.764-0.971-1.457-1.488-2.166"/>
					
						<path style="fill:none;stroke:#263238;stroke-width:0.75;stroke-linecap:round;stroke-linejoin:round;stroke-miterlimit:10;" d="
						M441.359,394.783c-0.54-0.898-1.099-1.785-1.655-2.674"/>
					
						<path style="fill:none;stroke:#263238;stroke-width:0.75;stroke-linecap:round;stroke-linejoin:round;stroke-miterlimit:10;" d="
						M439.72,395.163c-0.318-0.626-0.625-1.257-0.952-1.877"/>
					
						<path style="fill:none;stroke:#263238;stroke-width:0.75;stroke-linecap:round;stroke-linejoin:round;stroke-miterlimit:10;" d="
						M436.87,394.767c-0.517-0.912-1.065-1.807-1.596-2.71"/>
					
						<path style="fill:none;stroke:#263238;stroke-width:0.75;stroke-linecap:round;stroke-linejoin:round;stroke-miterlimit:10;" d="
						M432.653,394.72c-0.329-0.789-0.668-1.574-0.977-2.371"/>
					
						<path style="fill:none;stroke:#263238;stroke-width:0.75;stroke-linecap:round;stroke-linejoin:round;stroke-miterlimit:10;" d="
						M430.429,395.117c-0.338-0.698-0.638-1.412-0.944-2.124"/>
					
						<path style="fill:none;stroke:#263238;stroke-width:0.75;stroke-linecap:round;stroke-linejoin:round;stroke-miterlimit:10;" d="
						M428.04,394.387c-0.141-0.352-0.281-0.703-0.422-1.055"/>
					
						<path style="fill:none;stroke:#263238;stroke-width:0.75;stroke-linecap:round;stroke-linejoin:round;stroke-miterlimit:10;" d="
						M438.559,392.685c-0.132-0.226-0.263-0.452-0.395-0.678"/>
					
						<path style="fill:none;stroke:#263238;stroke-width:0.75;stroke-linecap:round;stroke-linejoin:round;stroke-miterlimit:10;" d="
						M425.51,395.161c-0.112-0.175-0.223-0.35-0.326-0.53"/>
				</g>
				
					<path style="fill:#92E3A9;stroke:#263238;stroke-width:0.75;stroke-linecap:round;stroke-linejoin:round;stroke-miterlimit:10;" d="
					M458.811,412.741c-7.713-0.14-15.882,0.175-23.527-0.498c-7.645-0.673-14.853-3.655-20.949-7.304
					c-2.205-1.32-2.377-0.003-3.927,1.008c-1.55,1.01-3.929,2.247-5.788,2.319c-1.858,0.072-3.093-0.174-2.189-2.191
					c0.904-2.017,5.24-4.53,4.2-7.199c-1.04-2.669-3.989-0.913-5.738-3c-1.749-2.087,2.555-3.626,5.453-2.827
					c2.898,0.799,4.708,3.598,7.954,5.665s8.229-2.441,12.857-3.731c4.628-1.29,16.25-0.375,20.707,2.4
					c4.456,2.775,9.726,7.086,11.437,10.171c1.711,3.085,0.192,2.482-0.722,3.899C459.319,411.577,459.54,412.146,458.811,412.741z"
					/>
				<path style="fill:#92E3A9;" d="M406.275,393.065c2.54,0.886,5.729,3.353,7.71,5.725c0.093,0.112,0.207,0.118,0.242,0.218
					c-1.198,0.193-4.231,0.092-4.187,1.643c0.056,1.953,1.811,2.487,3.134,3.334c0.058,0.134,0.038,0.323,0.081,0.463
					c-1.276,0.068-1.86,0.53-2.877,1.448c-1.406,1.269-3.95,2.198-5.767,2.353c-1.817,0.155-3.091-0.192-2.185-2.18
					c0.907-1.988,5.268-4.542,4.197-7.194c-1.071-2.652-3.892-0.938-5.753-2.995C399.01,393.823,403.735,392.179,406.275,393.065z"
					/>
				<path style="opacity:0.12;" d="M406.275,393.065c2.54,0.886,5.729,3.353,7.71,5.725c0.093,0.112,0.207,0.118,0.242,0.218
					c-1.198,0.193-4.231,0.092-4.187,1.643c0.056,1.953,1.811,2.487,3.134,3.334c0.058,0.134,0.038,0.323,0.081,0.463
					c-1.276,0.068-1.86,0.53-2.877,1.448c-1.406,1.269-3.95,2.198-5.767,2.353c-1.817,0.155-3.091-0.192-2.185-2.18
					c0.907-1.988,5.268-4.542,4.197-7.194c-1.071-2.652-3.892-0.938-5.753-2.995C399.01,393.823,403.735,392.179,406.275,393.065z"
					/>
				
					<path style="fill:none;stroke:#263238;stroke-width:0.75;stroke-linecap:round;stroke-linejoin:round;stroke-miterlimit:10;" d="
					M406.275,393.065c2.54,0.886,5.729,3.353,7.71,5.725c0.093,0.112,0.207,0.118,0.242,0.218c-1.198,0.193-4.231,0.092-4.187,1.643
					c0.056,1.953,1.811,2.487,3.134,3.334c0.058,0.134,0.038,0.323,0.081,0.463c-1.276,0.068-1.86,0.53-2.877,1.448
					c-1.406,1.269-3.95,2.198-5.767,2.353c-1.817,0.155-3.091-0.192-2.185-2.18c0.907-1.988,5.268-4.542,4.197-7.194
					c-1.071-2.652-3.892-0.938-5.753-2.995C399.01,393.823,403.735,392.179,406.275,393.065z"/>
				
					<path style="fill:none;stroke:#263238;stroke-width:0.75;stroke-linecap:round;stroke-linejoin:round;stroke-miterlimit:10;" d="
					M411.895,403.533c-1.206,0.417-2.373,0.897-3.524,1.447"/>
				
					<path style="fill:none;stroke:#263238;stroke-width:0.75;stroke-linecap:round;stroke-linejoin:round;stroke-miterlimit:10;" d="
					M410.984,402.689c-0.647,0.192-1.281,0.411-1.911,0.652"/>
				
					<path style="fill:none;stroke:#263238;stroke-width:0.75;stroke-linecap:round;stroke-linejoin:round;stroke-miterlimit:10;" d="
					M409.907,401.635c-0.69,0.113-1.369,0.261-2.049,0.418"/>
				
					<path style="fill:none;stroke:#263238;stroke-width:0.75;stroke-linecap:round;stroke-linejoin:round;stroke-miterlimit:10;" d="
					M409.938,400.716c-0.658-0.211-1.329-0.398-2-0.562"/>
				
					<path style="fill:none;stroke:#263238;stroke-width:0.75;stroke-linecap:round;stroke-linejoin:round;stroke-miterlimit:10;" d="
					M410.671,399.316c-0.672-0.47-1.353-0.927-2.042-1.372"/>
				
					<path style="fill:none;stroke:#263238;stroke-width:0.75;stroke-linecap:round;stroke-linejoin:round;stroke-miterlimit:10;" d="
					M412.335,399.055c-1.073-1.232-2.145-2.462-3.252-3.664"/>
				<path style="fill:#92E3A9;" d="M459.425,407.679c1.004,2.326,0.494,2.816-0.876,3.737c0.815,0.197,0.964,0.721,0.271,1.315
					c-2.856,0.018-5.669-0.204-8.542-0.371c-1.4-2.014-3.504-4.648-2.205-7.188c0.991-1.939,3.496-2.932,5.553-3.437
					C455.459,402.783,458.864,406.38,459.425,407.679z"/>
				<path style="opacity:0.12;" d="M459.425,407.679c1.004,2.326,0.494,2.816-0.876,3.737c0.815,0.197,0.964,0.721,0.271,1.315
					c-2.856,0.018-5.669-0.204-8.542-0.371c-1.4-2.014-3.504-4.648-2.205-7.188c0.991-1.939,3.496-2.932,5.553-3.437
					C455.459,402.783,458.864,406.38,459.425,407.679z"/>
				
					<path style="fill:none;stroke:#263238;stroke-width:0.75;stroke-linecap:round;stroke-linejoin:round;stroke-miterlimit:10;" d="
					M459.425,407.679c1.004,2.326,0.494,2.816-0.876,3.737c0.815,0.197,0.964,0.721,0.271,1.315
					c-2.856,0.018-5.669-0.204-8.542-0.371c-1.4-2.014-3.504-4.648-2.205-7.188c0.991-1.939,3.496-2.932,5.553-3.437
					C455.459,402.783,458.864,406.38,459.425,407.679z"/>
				
					<path style="fill:#FFFFFF;stroke:#263238;stroke-width:0.75;stroke-linecap:round;stroke-linejoin:round;stroke-miterlimit:10;" d="
					M457.379,407.139c-0.537-0.115-1.175,0.073-1.29,0.66c-0.115,0.587,0.416,1.03,0.935,1.141c0.518,0.111,1.18-0.073,1.308-0.651
					C458.46,407.712,457.916,407.254,457.379,407.139z"/>
				<path style="fill:#263238;" d="M457.459,407.629c-0.236-0.052-0.503,0.034-0.553,0.292s0.161,0.445,0.394,0.497
					c0.234,0.052,0.522-0.027,0.571-0.285C457.921,407.876,457.695,407.681,457.459,407.629z"/>
				<g>
					<path style="fill:#92E3A9;" d="M444.702,404.807c-0.756,0.791-2.699,1.429-3.571,1.665c-0.872,0.236-3.803,1.448-4.177,0.506
						c-0.375-0.942-0.336-3.535,1.188-3.903c1.523-0.368,4.541,0.291,6.217,0.573"/>
					<path style="opacity:0.12;" d="M444.702,404.807c-0.756,0.791-2.699,1.429-3.571,1.665c-0.872,0.236-3.803,1.448-4.177,0.506
						c-0.375-0.942-0.336-3.535,1.188-3.903c1.523-0.368,4.541,0.291,6.217,0.573"/>
					
						<path style="fill:none;stroke:#263238;stroke-width:0.75;stroke-linecap:round;stroke-linejoin:round;stroke-miterlimit:10;" d="
						M444.702,404.807c-0.756,0.791-2.699,1.429-3.571,1.665c-0.872,0.236-3.803,1.448-4.177,0.506
						c-0.375-0.942-0.336-3.535,1.188-3.903c1.523-0.368,4.541,0.291,6.217,0.573"/>
					
						<path style="fill:none;stroke:#263238;stroke-width:0.75;stroke-linecap:round;stroke-linejoin:round;stroke-miterlimit:10;" d="
						M445.069,404.952c-0.524-0.308-0.63-1.228-0.469-1.615c0.161-0.387,0.53-0.666,0.787-0.468"/>
					
						<path style="fill:none;stroke:#263238;stroke-width:0.75;stroke-linecap:round;stroke-linejoin:round;stroke-miterlimit:10;" d="
						M444.735,404.793c-1.404,0.406-2.82,0.768-4.224,1.176"/>
					
						<path style="fill:none;stroke:#263238;stroke-width:0.75;stroke-linecap:round;stroke-linejoin:round;stroke-miterlimit:10;" d="
						M443.962,404.607c-1.404,0.039-2.816,0.106-4.189,0.419"/>
					
						<path style="fill:none;stroke:#263238;stroke-width:0.75;stroke-linecap:round;stroke-linejoin:round;stroke-miterlimit:10;" d="
						M444.31,404.225c-0.705-0.12-1.411-0.243-2.117-0.359"/>
				</g>
			</g>
			<path style="fill:#FFFFFF;" d="M435.178,405.213c-3.285-0.568-11.996-0.168-13.936,0.068c-1.94,0.236-8.597-2.469-6.337-2.983
				c2.26-0.514,12.275-0.245,15.32-0.56C433.271,401.424,438.481,403.537,435.178,405.213z"/>
			<path style="fill:#FFFFFF;" d="M456.469,405.561c-1.035-0.714-2.208-1.022-3.397-1.159c-1.189-0.136-2.805,1.777-3.657,1.306
				c-0.852-0.471,1.041-1.585,1.685-2.016c0.644-0.431,2.634-0.954,3.341-0.359C455.148,403.927,457.183,405.32,456.469,405.561z"/>
			<path style="fill:#FFFFFF;" d="M449.989,401.444c-2.261-3.371-7.883-3.689-10.854-4.537c-2.971-0.848-14.439,1.423-12.749-0.091
				c1.691-1.514,10.569-1.696,13.77-0.876c3.201,0.82,7.888,1.719,9.829,3.615C451.926,401.451,451.261,400.851,449.989,401.444z"/>
		</g>
		<g>
			<g>
				<g>
					<path style="fill:#92E3A9;" d="M404.631,399.719c2.474-1.731,3.625-4.347,7.379-4.557c3.754-0.209,9.831,1.857,12.783,4.535
						c2.952,2.678,4.038,5.148,5.736,8.366c-3.725-2.925-7.009-6.172-11.573-7.682C414.392,398.872,409.412,399.29,404.631,399.719z
						"/>
					<path style="opacity:0.12;" d="M404.631,399.719c2.474-1.731,3.625-4.347,7.379-4.557c3.754-0.209,9.831,1.857,12.783,4.535
						c2.952,2.678,4.038,5.148,5.736,8.366c-3.725-2.925-7.009-6.172-11.573-7.682C414.392,398.872,409.412,399.29,404.631,399.719z
						"/>
					
						<path style="fill:none;stroke:#263238;stroke-width:0.75;stroke-linecap:round;stroke-linejoin:round;stroke-miterlimit:10;" d="
						M404.631,399.719c2.474-1.731,3.625-4.347,7.379-4.557c3.754-0.209,9.831,1.857,12.783,4.535
						c2.952,2.678,4.038,5.148,5.736,8.366c-3.725-2.925-7.009-6.172-11.573-7.682C414.392,398.872,409.412,399.29,404.631,399.719z
						"/>
					
						<path style="fill:none;stroke:#263238;stroke-width:0.75;stroke-linecap:round;stroke-linejoin:round;stroke-miterlimit:10;" d="
						M407.597,399.043c0.658-0.685,1.355-1.305,2.081-1.916"/>
					
						<path style="fill:none;stroke:#263238;stroke-width:0.75;stroke-linecap:round;stroke-linejoin:round;stroke-miterlimit:10;" d="
						M410.526,398.285c0.776-0.723,1.552-1.445,2.324-2.172"/>
					
						<path style="fill:none;stroke:#263238;stroke-width:0.75;stroke-linecap:round;stroke-linejoin:round;stroke-miterlimit:10;" d="
						M411.96,398.797c0.489-0.515,0.97-1.04,1.474-1.54"/>
					
						<path style="fill:none;stroke:#263238;stroke-width:0.75;stroke-linecap:round;stroke-linejoin:round;stroke-miterlimit:10;" d="
						M414.858,398.899c0.765-0.693,1.537-1.378,2.317-2.054"/>
					
						<path style="fill:none;stroke:#263238;stroke-width:0.75;stroke-linecap:round;stroke-linejoin:round;stroke-miterlimit:10;" d="
						M419.046,399.784c0.5-0.628,1.025-1.237,1.544-1.85"/>
					
						<path style="fill:none;stroke:#263238;stroke-width:0.75;stroke-linecap:round;stroke-linejoin:round;stroke-miterlimit:10;" d="
						M421.086,400.73c0.455-0.548,0.916-1.09,1.386-1.625"/>
					
						<path style="fill:none;stroke:#263238;stroke-width:0.75;stroke-linecap:round;stroke-linejoin:round;stroke-miterlimit:10;" d="
						M423.49,400.673c0.214-0.275,0.433-0.541,0.632-0.827"/>
					
						<path style="fill:none;stroke:#263238;stroke-width:0.75;stroke-linecap:round;stroke-linejoin:round;stroke-miterlimit:10;" d="
						M413.791,396.78c0.185-0.17,0.372-0.337,0.561-0.503"/>
					
						<path style="fill:none;stroke:#263238;stroke-width:0.75;stroke-linecap:round;stroke-linejoin:round;stroke-miterlimit:10;" d="
						M425.476,402.142c0.13-0.149,0.261-0.299,0.391-0.448"/>
				</g>
				
					<path style="fill:#92E3A9;stroke:#263238;stroke-width:0.75;stroke-linecap:round;stroke-linejoin:round;stroke-miterlimit:10;" d="
					M391.796,418.317c7.486-0.659,15.96-1.881,23.227-2.092c7.266-0.212,12.888,2.286,19.779,2.104
					c2.492-0.066,3.726-0.647,6.373-1.315s5.359-4.477,6.587-6.519c1.229-2.042,0.695-2.806-0.739-3.081
					c-1.434-0.275-5.796,6.009-5.726,3.386c0.069-2.623,2.914-1.687,4.02-3.8c1.107-2.113-2.334-2.659-4.473-1.53
					c-2.139,1.13-3.414,5.316-6.271,5.764c-2.857,0.449-6.198-6.982-10.623-9.85c-4.426-2.868-16.453-3.559-21.61-0.466
					c-5.157,3.093-9.22,8.336-10.845,11.855c-1.625,3.519-0.403,2.477,0.575,4.175C391.364,417.068,391.056,417.718,391.796,418.317
					z"/>
				<path style="fill:#92E3A9;" d="M440.881,405.525c-1.95,1.404-3.937,4.535-6.175,5.951c-0.105,0.067-0.193,0.069-0.259,0.085
					c1.059,1.048,4.175,0.56,4.514,2.046c0.428,1.872-1.345,3.314-2.854,4.056c-0.013,0.151,0.061,0.285,0.043,0.433
					c1.892-0.297,2.975-0.4,4.988-1.036c2.782-0.88,5.348-4.449,6.615-6.552c1.268-2.103,0.684-2.802-0.733-3.088
					c-1.417-0.286-5.814,5.989-5.722,3.387c0.092-2.602,2.861-1.761,4.029-3.789C446.496,404.989,442.831,404.122,440.881,405.525z"
					/>
				<path style="opacity:0.12;" d="M440.881,405.525c-1.95,1.404-3.937,4.535-6.175,5.951c-0.105,0.067-0.193,0.069-0.259,0.085
					c1.059,1.048,4.175,0.56,4.514,2.046c0.428,1.872-1.345,3.314-2.854,4.056c-0.013,0.151,0.061,0.285,0.043,0.433
					c1.892-0.297,2.975-0.4,4.988-1.036c2.782-0.88,5.348-4.449,6.615-6.552c1.268-2.103,0.684-2.802-0.733-3.088
					c-1.417-0.286-5.814,5.989-5.722,3.387c0.092-2.602,2.861-1.761,4.029-3.789C446.496,404.989,442.831,404.122,440.881,405.525z"
					/>
				
					<path style="fill:none;stroke:#263238;stroke-width:0.75;stroke-linecap:round;stroke-linejoin:round;stroke-miterlimit:10;" d="
					M440.881,405.525c-1.95,1.404-3.937,4.535-6.175,5.951c-0.105,0.067-0.193,0.069-0.259,0.085
					c1.059,1.048,4.175,0.56,4.514,2.046c0.428,1.872-1.345,3.314-2.854,4.056c-0.013,0.151,0.061,0.285,0.043,0.433
					c1.892-0.297,2.975-0.4,4.988-1.036c2.782-0.88,5.348-4.449,6.615-6.552c1.268-2.103,0.684-2.802-0.733-3.088
					c-1.417-0.286-5.814,5.989-5.722,3.387c0.092-2.602,2.861-1.761,4.029-3.789C446.496,404.989,442.831,404.122,440.881,405.525z"
					/>
				
					<path style="fill:none;stroke:#263238;stroke-width:0.75;stroke-linecap:round;stroke-linejoin:round;stroke-miterlimit:10;" d="
					M437.758,416.896c1.819-0.086,3.53-1.268,4.887-2.383"/>
				
					<path style="fill:none;stroke:#263238;stroke-width:0.75;stroke-linecap:round;stroke-linejoin:round;stroke-miterlimit:10;" d="
					M438.57,415.741c0.856-0.244,1.58-0.558,2.357-0.993"/>
				
					<path style="fill:none;stroke:#263238;stroke-width:0.75;stroke-linecap:round;stroke-linejoin:round;stroke-miterlimit:10;" d="
					M439.359,414.315c0.761-0.245,1.367-0.702,1.987-1.193"/>
				
					<path style="fill:none;stroke:#263238;stroke-width:0.75;stroke-linecap:round;stroke-linejoin:round;stroke-miterlimit:10;" d="
					M439.042,413.586c0.527-0.456,1.02-0.925,1.534-1.396"/>
				
					<path style="fill:none;stroke:#263238;stroke-width:0.75;stroke-linecap:round;stroke-linejoin:round;stroke-miterlimit:10;" d="
					M438.067,412.529c0.559-0.502,1.066-1.122,1.511-1.726"/>
				
					<path style="fill:none;stroke:#263238;stroke-width:0.75;stroke-linecap:round;stroke-linejoin:round;stroke-miterlimit:10;" d="
					M436.43,412.262c1.004-1.166,1.826-2.524,2.492-3.905"/>
				<path style="fill:#92E3A9;" d="M391.339,413.017c-0.799,2.226-0.727,2.986,0.768,3.876c-0.803,0.242-0.998,0.792-0.338,1.423
					c2.595-0.197,5.147-0.53,7.734-0.936c1.212-2.372,2.119-4.85,0.889-7.415c-0.939-1.957-2.613-3.086-4.708-3.515
					C394.263,407.786,391.785,411.774,391.339,413.017z"/>
				<path style="opacity:0.12;" d="M391.339,413.017c-0.799,2.226-0.727,2.986,0.768,3.876c-0.803,0.242-0.998,0.792-0.338,1.423
					c2.595-0.197,5.147-0.53,7.734-0.936c1.212-2.372,2.119-4.85,0.889-7.415c-0.939-1.957-2.613-3.086-4.708-3.515
					C394.263,407.786,391.785,411.774,391.339,413.017z"/>
				
					<path style="fill:none;stroke:#263238;stroke-width:0.75;stroke-linecap:round;stroke-linejoin:round;stroke-miterlimit:10;" d="
					M391.339,413.017c-0.799,2.226-0.727,2.986,0.768,3.876c-0.803,0.242-0.998,0.792-0.338,1.423
					c2.595-0.197,5.147-0.53,7.734-0.936c1.212-2.372,2.119-4.85,0.889-7.415c-0.939-1.957-2.613-3.086-4.708-3.515
					C394.263,407.786,391.785,411.774,391.339,413.017z"/>
				
					<path style="fill:#FFFFFF;stroke:#263238;stroke-width:0.75;stroke-linecap:round;stroke-linejoin:round;stroke-miterlimit:10;" d="
					M393.249,412.433c0.521-0.128,0.987,0.129,1.11,0.659c0.123,0.53-0.181,1.025-0.695,1.176c-0.514,0.151-0.976-0.167-1.091-0.678
					C392.459,413.078,392.728,412.561,393.249,412.433z"/>
				<path style="fill:#263238;" d="M393.24,412.943c0.224-0.049,0.426,0.099,0.479,0.314c0.053,0.216-0.08,0.442-0.302,0.492
					s-0.423-0.083-0.473-0.305C392.895,413.223,393.016,412.992,393.24,412.943z"/>
				<g>
					<path style="fill:#92E3A9;" d="M404.065,409.022c0.997,0.682,3.401,1.085,4.363,1.235c0.963,0.15,4.452,1.358,4.707,0.367
						c0.255-0.991,0.22-3.773-1.44-4.144s-5.288,0.601-7.091,1.17"/>
					<path style="opacity:0.12;" d="M404.065,409.022c0.997,0.682,3.401,1.085,4.363,1.235c0.963,0.15,4.452,1.358,4.707,0.367
						c0.255-0.991,0.22-3.773-1.44-4.144s-5.288,0.601-7.091,1.17"/>
					
						<path style="fill:none;stroke:#263238;stroke-width:0.75;stroke-linecap:round;stroke-linejoin:round;stroke-miterlimit:10;" d="
						M404.065,409.022c0.997,0.682,3.401,1.085,4.363,1.235c0.963,0.15,4.452,1.358,4.707,0.367c0.255-0.991,0.22-3.773-1.44-4.144
						s-5.288,0.601-7.091,1.17"/>
					
						<path style="fill:none;stroke:#263238;stroke-width:0.75;stroke-linecap:round;stroke-linejoin:round;stroke-miterlimit:10;" d="
						M403.578,409.271c0.573-0.38,0.965-1.406,0.742-1.916c-0.223-0.51-0.538-0.608-0.855-0.401"/>
					
						<path style="fill:none;stroke:#263238;stroke-width:0.75;stroke-linecap:round;stroke-linejoin:round;stroke-miterlimit:10;" d="
						M404.02,409.011c1.711,0.068,3.44,0.309,5.114,0.66"/>
					
						<path style="fill:none;stroke:#263238;stroke-width:0.75;stroke-linecap:round;stroke-linejoin:round;stroke-miterlimit:10;" d="
						M405.039,408.626c1.631-0.181,3.28-0.289,4.904-0.017"/>
					
						<path style="fill:none;stroke:#263238;stroke-width:0.75;stroke-linecap:round;stroke-linejoin:round;stroke-miterlimit:10;" d="
						M404.621,408.265c0.849-0.269,1.725-0.489,2.591-0.697"/>
				</g>
			</g>
			<path style="fill:#FFFFFF;" d="M414.789,408.743c3.614-1.181,11.157,4.313,12.696,5.351c1.539,1.038,8.71,3.02,6.48,1.165
				c-2.229-1.855-11.362-7.377-14.038-8.971C417.251,404.694,410.924,407.036,414.789,408.743z"/>
			<path style="fill:#FFFFFF;" d="M393.779,410.714c0.729-0.758,1.583-1.191,2.57-1.374c0.987-0.184,2.35,1.768,2.992,1.263
				c0.642-0.505-0.854-1.616-1.449-2.137c-0.595-0.521-2.18-0.9-2.749-0.22C394.575,408.926,393.142,410.492,393.779,410.714z"/>
			<path style="fill:#FFFFFF;" d="M399.012,405.8c2.609-3.878,9.292-5.101,12.99-5.271c3.698-0.17,12.053,7.031,11.986,3.322
				c-0.067-3.709-9.458-4.35-12.839-4.331c-3.38,0.019-9.831,2.097-11.816,4.144C397.347,405.711,397.629,405.276,399.012,405.8z"/>
		</g>
	</g>
</g>
</svg>
