<?xml version="1.0" encoding="UTF-8"?>
<svg transform="rotate(-180 )" xmlns="http://www.w3.org/2000/svg" xmlns:xlink="http://www.w3.org/1999/xlink" width="2946" height="3502" viewBox="0 0 2946 3702" >
<path fill-rule="nonzero" fill="rgb(24.705505%, 41.967773%, 21.166992%)" fill-opacity="1" d="M 1755.328125 3699.546875 C 1741.851562 3695.125 1731.140625 3686.003906 1700.589844 3652.9375 C 1652.289062 3600.640625 1620.96875 3571.707031 1576.851562 3538.605469 C 1520.050781 3495.996094 1488.808594 3476.867188 1333.421875 3389.511719 C 1154.878906 3289.144531 1051.621094 3226.667969 931.445312 3146.28125 C 832.601562 3080.164062 779.480469 3038.886719 728.164062 2988.324219 C 684.34375 2945.148438 658.007812 2909.214844 640.847656 2869.195312 C 617.164062 2813.949219 617.742188 2764.644531 642.773438 2706.035156 C 660.761719 2663.910156 701.367188 2594.070312 742.453125 2534.578125 C 800.710938 2450.230469 858.972656 2374.960938 1047.570312 2140.410156 C 1121.269531 2048.75 1167.390625 1986.96875 1209.96875 1922.839844 C 1253.28125 1857.621094 1281.128906 1805.660156 1294.871094 1764.429688 C 1309.289062 1721.128906 1307.820312 1690.449219 1290.75 1678.621094 C 1278.390625 1670.050781 1255.660156 1668.53125 1231.070312 1674.640625 C 1190.761719 1684.628906 1152.128906 1710.460938 1098.421875 1763.308594 C 1065.300781 1795.890625 1040.738281 1822.929688 983.644531 1889.671875 C 966.429688 1909.789062 932.859375 1949.039062 909.042969 1976.890625 C 753.832031 2158.371094 695.761719 2236.53125 611.414062 2377.5 C 572.199219 2443.03125 542.765625 2496.628906 508 2565.800781 C 474.558594 2632.339844 469.09375 2641.269531 458.722656 2646.339844 C 449.386719 2650.910156 441.183594 2648.78125 430.628906 2639.050781 C 415.359375 2624.960938 372.378906 2564.441406 342.925781 2515.550781 C 321.960938 2480.75 309.011719 2456.640625 263.816406 2368.230469 C 250.648438 2342.46875 228.167969 2299.230469 213.859375 2272.128906 C 152.578125 2156.070312 135.878906 2116.941406 126.832031 2068.210938 C 124.433594 2055.28125 124.410156 2026.898438 126.792969 2016.019531 C 134.136719 1982.441406 156.101562 1945.269531 196.25 1898.449219 C 221.382812 1869.140625 273.527344 1816.140625 311.902344 1780.910156 C 376.632812 1721.46875 496.917969 1616.648438 600.210938 1529.660156 C 831.972656 1334.488281 870.15625 1300.558594 911.503906 1253.050781 C 933.589844 1227.679688 948.488281 1203.660156 952.367188 1187.191406 C 961.886719 1146.738281 926.410156 1122.910156 863.617188 1127.558594 C 819.738281 1130.820312 779.683594 1140.910156 725.398438 1162.390625 C 660.503906 1188.070312 601.863281 1220.769531 533.867188 1269.191406 C 456.351562 1324.378906 363.253906 1408.679688 230.503906 1543.871094 C 104.621094 1672.070312 71.652344 1703.519531 53.699219 1712.511719 C 44.113281 1717.308594 33.433594 1715.058594 29.199219 1707.351562 C 25 1699.699219 20.820312 1680.890625 15.398438 1645.269531 C 5.472656 1580.03125 1.722656 1528.988281 0.960938 1448.671875 C 0.289062 1378.308594 1.695312 1337.121094 6.597656 1283.300781 C 16.621094 1173.300781 43.273438 1067.871094 83.550781 978.929688 C 103.421875 935.050781 121.4375 902.011719 166.742188 826.390625 C 188.039062 790.851562 190.589844 785.390625 202.140625 750.589844 C 209.527344 728.328125 214.84375 709.761719 224.070312 674 C 252.21875 564.898438 290.550781 484.949219 352.710938 405.691406 C 358.390625 398.441406 367.386719 385.28125 372.699219 376.421875 C 432.996094 275.949219 498.542969 208.210938 600.699219 140.808594 C 657.46875 103.359375 720.832031 71.75 790.460938 46.160156 C 921.515625 -1.988281 1009.171875 -10.429688 1123.601562 14.078125 C 1183.441406 26.910156 1241.980469 52.429688 1302.21875 91.96875 C 1385.621094 146.699219 1443.679688 210.140625 1489.320312 296.421875 C 1508.78125 333.191406 1533.929688 397.761719 1545.960938 441.789062 L 1549.820312 455.941406 L 1552.601562 455.628906 C 1558.148438 455.03125 1565.480469 450.699219 1572.910156 443.648438 C 1587.140625 430.128906 1600.019531 407.351562 1618.640625 362.761719 C 1649.070312 289.910156 1662.648438 262.648438 1684.738281 230.058594 C 1728.320312 165.761719 1783.230469 123.28125 1848.039062 103.738281 C 1874.980469 95.609375 1902.558594 91.589844 1936.480469 90.828125 C 2021.96875 88.910156 2109.28125 110.628906 2204.199219 157.421875 C 2251.511719 180.75 2289.050781 203.390625 2369.078125 256.898438 C 2473.589844 326.769531 2586.929688 409.570312 2639.28125 454.289062 C 2695.660156 502.460938 2725.710938 535.488281 2759.921875 586.929688 C 2789.398438 631.269531 2814.449219 682.640625 2837.070312 745.191406 C 2873.570312 846.140625 2910.429688 1037.871094 2929.058594 1223.78125 C 2941.308594 1346.050781 2946.179688 1464.039062 2944.828125 1606.238281 C 2943.261719 1772.570312 2936.949219 1874.179688 2924.128906 1939.429688 C 2917.910156 1971.109375 2910.421875 1984.46875 2898.890625 1984.46875 C 2890.171875 1984.46875 2880.628906 1976.621094 2863.789062 1955.589844 C 2833.039062 1917.171875 2811.519531 1884.511719 2778.878906 1826.738281 C 2747.988281 1772.058594 2735.089844 1750.78125 2713.28125 1718.550781 C 2666.480469 1649.378906 2628.761719 1604.808594 2537.019531 1510.25 C 2446.53125 1416.988281 2356.820312 1336.171875 2247.609375 1249.511719 C 2154.28125 1175.449219 2067.058594 1115.609375 2011.019531 1087.179688 C 1977.910156 1070.378906 1957.648438 1063.679688 1942.359375 1064.46875 C 1931.621094 1065.019531 1925.359375 1067.648438 1919.269531 1074.148438 C 1908.320312 1085.859375 1905.851562 1102.28125 1910.648438 1131.578125 C 1914.070312 1152.449219 1923.671875 1184.78125 1933.730469 1209.261719 C 1958.289062 1269.058594 2008.628906 1336.039062 2075.75 1398.261719 C 2103.390625 1423.871094 2120.710938 1438.929688 2194.441406 1501.359375 C 2249.960938 1548.371094 2279.128906 1573.488281 2306.421875 1597.808594 C 2370.820312 1655.171875 2470.410156 1748.558594 2653.480469 1923.269531 C 2692.980469 1960.96875 2776.378906 2044.121094 2801.28125 2070.648438 C 2882.980469 2157.671875 2919.570312 2211.789062 2929.261719 2259.929688 C 2931.46875 2270.898438 2931.75 2301.890625 2929.75 2313.109375 C 2923.359375 2348.808594 2911.550781 2380 2879.148438 2446.769531 C 2834.230469 2539.351562 2772.679688 2642.339844 2669.46875 2797.636719 C 2612.601562 2883.207031 2572.921875 2934.058594 2556.679688 2942.167969 C 2550.929688 2945.035156 2544.949219 2945.0625 2542.308594 2942.230469 C 2539.378906 2939.082031 2539 2935.179688 2539.699219 2915.1875 C 2542.96875 2820.46875 2540.449219 2764.9375 2529.519531 2691.171875 C 2509.230469 2554.28125 2459.128906 2420.660156 2379.039062 2289.839844 C 2355.289062 2251.050781 2322.328125 2203.390625 2294.589844 2167.730469 C 2235.679688 2092 2144.28125 1994.730469 2086.929688 1946.730469 C 2040.101562 1907.53125 1990.671875 1882.171875 1964.761719 1884.03125 C 1956.839844 1884.601562 1952 1886.960938 1944.5 1893.929688 C 1928.328125 1908.960938 1920.769531 1935.921875 1920.769531 1978.53125 C 1920.769531 2026.21875 1932.019531 2082.511719 1955.851562 2154.070312 C 1974.230469 2209.261719 1996.398438 2261.21875 2033.039062 2335.050781 C 2071.890625 2413.328125 2094.460938 2453.800781 2186.140625 2609.699219 C 2270.679688 2753.457031 2324 2849.109375 2347.53125 2899.238281 C 2376.421875 2960.792969 2388.5 2997.0625 2392.039062 3032.894531 C 2396.429688 3077.332031 2375.769531 3113.980469 2317.859375 3164.5 C 2311.691406 3169.882812 2284.691406 3192.664062 2257.859375 3215.125 C 2135.679688 3317.410156 2075.289062 3372.523438 2001.878906 3448.777344 C 1951.839844 3500.738281 1927.710938 3529.152344 1853.941406 3622.921875 C 1819.71875 3666.429688 1805.46875 3682.257812 1791.671875 3692.105469 C 1779.46875 3700.808594 1766.988281 3703.363281 1755.328125 3699.542969 Z M 1755.328125 3699.546875 "/>
<path fill-rule="nonzero" fill="rgb(21.166992%, 36.473083%, 18.041992%)" fill-opacity="1" d="M 1755.46875 3699.542969 C 1741.988281 3695.121094 1731.28125 3686 1700.730469 3652.929688 C 1652.429688 3600.632812 1621.121094 3571.699219 1576.988281 3538.597656 C 1520.191406 3495.992188 1488.960938 3476.863281 1333.558594 3389.507812 C 1180.140625 3303.265625 1094.230469 3252.09375 993.933594 3187.234375 C 903.609375 3128.820312 828.917969 3076.339844 789.289062 3043.449219 C 756.976562 3016.628906 718.871094 2980.617188 700.425781 2959.472656 C 659.597656 2912.667969 635.476562 2868.550781 627.167969 2825.488281 C 616.125 2768.265625 629.710938 2719.984375 682.132812 2630.191406 C 730.992188 2546.488281 780.253906 2477.398438 896.390625 2329.691406 C 940.53125 2273.550781 1032.640625 2158.691406 1033.890625 2158.230469 C 1034.238281 2158.109375 1035.449219 2159.429688 1036.589844 2161.179688 C 1040.289062 2166.910156 1076.410156 2211.820312 1089.660156 2227.191406 C 1093.160156 2231.238281 1097.269531 2236.101562 1098.808594 2237.96875 C 1100.328125 2239.851562 1105.589844 2245.96875 1110.5 2251.570312 C 1154.898438 2302.308594 1199.089844 2348.210938 1247.679688 2394.078125 C 1280.78125 2425.328125 1292.621094 2436.019531 1318.039062 2457.609375 C 1347.238281 2482.398438 1360.019531 2492.550781 1393.46875 2517.5 C 1410.910156 2530.511719 1460.269531 2563.5 1474.539062 2571.679688 C 1476.691406 2572.910156 1482.179688 2576.238281 1486.738281 2579.089844 C 1502.871094 2589.171875 1556.070312 2616.789062 1570.019531 2622.328125 C 1573.898438 2623.871094 1581.230469 2627.011719 1586.300781 2629.300781 C 1611.46875 2640.671875 1666.71875 2658.070312 1691.621094 2662.46875 C 1697.800781 2663.558594 1707.238281 2665.300781 1712.609375 2666.328125 C 1717.96875 2667.371094 1725.351562 2668.671875 1729.011719 2669.230469 C 1734.78125 2670.109375 1736.949219 2671.121094 1745.589844 2676.878906 C 1751.058594 2680.53125 1757.289062 2684.53125 1759.441406 2685.769531 C 1761.578125 2687.019531 1766.410156 2690.109375 1770.171875 2692.628906 C 1785.058594 2702.652344 1820.558594 2721.476562 1837 2728.070312 C 1844.25 2730.976562 1854.339844 2735.121094 1859.441406 2737.277344 C 1871.738281 2742.484375 1888.160156 2747.699219 1903.78125 2751.363281 C 1910.789062 2753.007812 1920.910156 2755.386719 1926.269531 2756.652344 C 1938.679688 2759.578125 1952.261719 2761.375 1977.929688 2763.488281 C 1995.929688 2764.972656 2001.820312 2765.035156 2027.679688 2764.039062 C 2043.808594 2763.414062 2061.398438 2762.226562 2066.769531 2761.394531 C 2072.140625 2760.5625 2081.789062 2759.226562 2088.230469 2758.421875 C 2112.191406 2755.433594 2153.910156 2745.472656 2172.238281 2738.367188 C 2176.480469 2736.722656 2185.648438 2733.394531 2192.628906 2730.972656 C 2206.46875 2726.164062 2223.238281 2718.542969 2235.328125 2711.566406 C 2239.570312 2709.117188 2243.160156 2707.257812 2243.300781 2707.433594 C 2243.808594 2708.09375 2281.128906 2773.882812 2291.898438 2793.125 C 2332.269531 2865.21875 2356.359375 2914.234375 2373.890625 2959.960938 C 2383.628906 2985.34375 2389.988281 3010.722656 2392.179688 3032.894531 C 2396.570312 3077.332031 2375.921875 3113.980469 2318 3164.5 C 2311.828125 3169.882812 2284.828125 3192.664062 2258 3215.125 C 2135.820312 3317.410156 2075.441406 3372.523438 2002.019531 3448.777344 C 1951.988281 3500.738281 1927.851562 3529.152344 1854.078125 3622.921875 C 1819.859375 3666.429688 1805.609375 3682.257812 1791.808594 3692.105469 C 1779.609375 3700.808594 1767.128906 3703.363281 1755.46875 3699.542969 Z M 2542.449219 2942.230469 C 2539.519531 2939.082031 2539.140625 2935.179688 2539.839844 2915.1875 C 2543.109375 2820.464844 2540.589844 2764.9375 2529.660156 2691.171875 C 2516.539062 2602.640625 2489.351562 2510.199219 2452.558594 2429.039062 C 2447.78125 2418.488281 2443.859375 2409.371094 2443.859375 2408.78125 C 2443.859375 2408.191406 2447.328125 2397.289062 2451.558594 2384.550781 C 2458.539062 2363.550781 2466.578125 2338.078125 2473.648438 2314.558594 C 2480.5 2291.761719 2497.179688 2222.890625 2500.929688 2201.871094 C 2501.269531 2200 2502.601562 2193.628906 2503.890625 2187.730469 C 2505.179688 2181.820312 2507.601562 2170.410156 2509.261719 2162.359375 C 2514.300781 2138.011719 2521.539062 2105.601562 2526.269531 2086.261719 C 2531.539062 2064.710938 2536.769531 2043.019531 2545.449219 2006.738281 C 2554.589844 1968.519531 2555.519531 1964.789062 2564.949219 1928.691406 C 2572.429688 1900.039062 2581.441406 1868.550781 2584.320312 1860.980469 L 2585.390625 1858.160156 L 2593.410156 1865.871094 C 2597.820312 1870.121094 2620.53125 1891.78125 2643.871094 1914 C 2690.371094 1958.28125 2774 2041.429688 2801.429688 2070.648438 C 2883.160156 2157.71875 2919.71875 2211.78125 2929.410156 2259.929688 C 2931.609375 2270.890625 2931.890625 2301.878906 2929.890625 2313.101562 C 2923.5 2348.800781 2911.691406 2380 2879.289062 2446.769531 C 2834.371094 2539.339844 2772.820312 2642.339844 2669.609375 2797.628906 C 2612.738281 2883.199219 2573.058594 2934.050781 2556.820312 2942.164062 C 2551.070312 2945.03125 2545.089844 2945.058594 2542.449219 2942.222656 Z M 443.273438 2647.53125 C 435.988281 2644.929688 426.164062 2635.730469 414.339844 2620.429688 C 393.308594 2593.21875 362.941406 2548.53125 343.070312 2515.550781 C 322.101562 2480.75 309.15625 2456.640625 263.957031 2368.21875 C 250.792969 2342.46875 228.3125 2299.21875 214.003906 2272.121094 C 152.71875 2156.058594 136.019531 2116.929688 126.976562 2068.210938 C 124.574219 2055.28125 124.554688 2026.890625 126.933594 2016.011719 C 134.28125 1982.441406 156.242188 1945.261719 196.390625 1898.441406 C 221.527344 1869.140625 273.671875 1816.140625 312.046875 1780.898438 C 376.765625 1721.480469 497.011719 1616.679688 600.351562 1529.660156 C 645.066406 1492 728.097656 1421.839844 739.328125 1412.230469 C 742.246094 1409.730469 744.988281 1407.691406 745.425781 1407.691406 C 745.859375 1407.691406 746.214844 1409.71875 746.214844 1412.191406 C 746.214844 1414.679688 746.839844 1421.148438 747.609375 1426.589844 C 748.375 1432.019531 749.265625 1439.109375 749.59375 1442.320312 C 749.917969 1445.539062 750.808594 1452.789062 751.574219 1458.421875 C 752.339844 1464.058594 754.113281 1477.449219 755.511719 1488.179688 C 756.910156 1498.910156 758.722656 1511.640625 759.535156 1516.46875 C 760.351562 1521.308594 761.617188 1529.691406 762.351562 1535.121094 C 765.519531 1558.5 779.117188 1629.53125 783.8125 1647.210938 C 785.09375 1652.039062 786.820312 1659.28125 787.644531 1663.308594 C 788.472656 1667.339844 790.65625 1675.898438 792.5 1682.339844 C 794.34375 1688.769531 797.40625 1699.53125 799.304688 1706.238281 C 812.121094 1751.46875 831.21875 1802.820312 853.195312 1851.121094 C 866.351562 1880.039062 897.808594 1943.238281 908.074219 1961.371094 C 910.8125 1966.199219 913.050781 1970.660156 913.050781 1971.28125 C 913.050781 1971.890625 902.214844 1985.070312 888.972656 2000.550781 C 756.210938 2155.730469 692.226562 2242.679688 611.554688 2377.488281 C 572.339844 2443.03125 542.90625 2496.621094 508.140625 2565.800781 C 482.601562 2616.609375 475.894531 2628.871094 468.414062 2638.398438 C 461.609375 2647.058594 451.878906 2650.601562 443.273438 2647.53125 Z M 2895.820312 1984.230469 C 2888.238281 1982.648438 2878.921875 1974.269531 2863.898438 1955.519531 C 2833.269531 1917.300781 2811.671875 1884.511719 2779.03125 1826.730469 C 2736.710938 1751.839844 2710.46875 1711.050781 2674.039062 1663.550781 L 2665.621094 1652.570312 L 2670.449219 1639.640625 C 2680.648438 1612.359375 2690.460938 1583.058594 2699.578125 1552.570312 C 2701.671875 1545.601562 2704.480469 1536.378906 2705.828125 1532.089844 C 2707.179688 1527.789062 2709.320312 1520.550781 2710.578125 1515.980469 C 2711.839844 1511.429688 2714.730469 1501.109375 2717 1493.058594 C 2730.898438 1443.601562 2756.859375 1341.789062 2759.53125 1326.21875 C 2759.898438 1324.070312 2761 1319.25 2761.988281 1315.488281 C 2763.851562 1308.359375 2774.871094 1254.519531 2777.058594 1241.820312 C 2781.53125 1215.96875 2783.570312 1204.359375 2784.789062 1197.921875 C 2785.550781 1193.890625 2787.320312 1183.359375 2788.730469 1174.5 C 2790.140625 1165.648438 2792.328125 1151.820312 2793.609375 1143.769531 C 2794.890625 1135.71875 2796.820312 1122.988281 2797.910156 1115.480469 C 2799.671875 1103.339844 2800.910156 1094.320312 2806.28125 1054.5 C 2807.039062 1048.859375 2807.910156 1041.839844 2808.21875 1038.890625 C 2808.53125 1035.941406 2809.410156 1028.46875 2810.179688 1022.300781 C 2814.71875 985.921875 2819.050781 943.238281 2823.910156 887.171875 C 2825.699219 866.570312 2828.378906 829.828125 2829.671875 808.140625 C 2830.511719 794.191406 2831.628906 776.410156 2832.179688 768.628906 C 2832.71875 760.851562 2833.179688 750.089844 2833.199219 744.730469 C 2833.230469 735.140625 2833.238281 735.03125 2834.710938 738.390625 C 2837.609375 745.058594 2848.769531 779.128906 2853.558594 795.949219 C 2880.820312 891.609375 2908.171875 1038.101562 2923.328125 1169.621094 C 2940.148438 1315.621094 2946.511719 1443.871094 2944.980469 1606.230469 C 2943.398438 1772.570312 2937.089844 1874.179688 2924.28125 1939.421875 C 2917.558594 1973.621094 2909.070312 1986.980469 2895.820312 1984.230469 Z M 34.976562 1712.941406 C 30.648438 1710.308594 29.613281 1708.910156 27.082031 1702.339844 C 21.214844 1687.109375 10.34375 1617.210938 6.210938 1568.179688 C 0.0429688 1495.019531 -0.972656 1390.339844 3.800781 1319.390625 C 12.445312 1190.878906 39.046875 1077.519531 83.695312 978.921875 C 103.5625 935.039062 121.582031 902.011719 166.886719 826.390625 C 188.179688 790.851562 190.734375 785.378906 202.28125 750.578125 C 209.667969 728.320312 214.988281 709.75 224.214844 673.988281 C 252.363281 564.898438 290.691406 484.949219 352.851562 405.679688 C 358.535156 398.441406 367.53125 385.269531 372.84375 376.410156 C 433.136719 275.941406 498.6875 208.210938 600.839844 140.808594 C 668.324219 96.28125 742.28125 61.328125 829.632812 32.691406 C 853.625 24.828125 895.148438 13.128906 896.21875 13.929688 C 896.355469 14.03125 895.078125 16.660156 893.386719 19.78125 C 885.699219 33.980469 859.984375 92.109375 848.492188 121.28125 C 846.375 126.648438 843.523438 133.671875 842.148438 136.890625 C 832.714844 159.019531 810.1875 224.910156 800.289062 259.339844 C 793.597656 282.609375 780.371094 333.691406 778.433594 343.730469 C 777.8125 346.949219 776.230469 353.980469 774.921875 359.339844 C 773.609375 364.710938 771.945312 372.390625 771.21875 376.410156 C 770.496094 380.441406 768.777344 389.441406 767.40625 396.421875 C 762.976562 418.890625 760.894531 430.398438 759.449219 440.351562 C 758.675781 445.699219 757.152344 455.570312 756.070312 462.269531 C 745.898438 525.238281 737.464844 606.398438 732.550781 688.621094 C 731.992188 698.019531 731.097656 712.511719 730.566406 720.820312 C 729.554688 736.660156 727.40625 793.089844 725.699219 848.640625 C 723.828125 909.621094 724.613281 1036.691406 727.484375 1137.339844 L 728.164062 1161.148438 L 724.75 1162.53125 C 693.535156 1175.148438 650.621094 1195.800781 624.257812 1210.871094 C 512.59375 1274.738281 408.09375 1363.148438 230.648438 1543.871094 C 104.765625 1672.070312 71.792969 1703.519531 53.84375 1712.511719 C 47.371094 1715.75 39.859375 1715.921875 34.976562 1712.941406 Z M 34.976562 1712.941406 "/>
<path fill-rule="nonzero" fill="rgb(45.092773%, 61.131287%, 37.646484%)" fill-opacity="1" d="M 2042.601562 3008.363281 C 2038.320312 3006.480469 2036.171875 3002.675781 2033.378906 2992.0625 C 2025.570312 2962.3125 2001.101562 2891.214844 1979.359375 2835.085938 C 1923.570312 2691.050781 1861.980469 2565.441406 1791.359375 2451.648438 C 1732 2356.011719 1654.25 2244.121094 1601.53125 2178.46875 C 1584.140625 2156.820312 1572.75 2143.691406 1558.101562 2128.421875 C 1550.078125 2120.058594 1547.371094 2116.570312 1546.878906 2113.980469 C 1544.980469 2103.851562 1555.828125 2095.671875 1564.929688 2100.371094 C 1568.269531 2102.101562 1584.808594 2119.339844 1599.589844 2136.519531 C 1651.539062 2196.851562 1738.699219 2319.769531 1807.46875 2429.699219 C 1864.890625 2521.480469 1916.539062 2620.601562 1962.789062 2727.765625 C 1993.179688 2798.183594 2024.410156 2880.183594 2044.359375 2941.921875 C 2056.359375 2979.074219 2058.878906 2987.902344 2059.410156 2994.730469 C 2059.898438 3001.027344 2059.828125 3001.292969 2056.589844 3004.828125 C 2053.890625 3007.769531 2052.441406 3008.53125 2048.910156 3008.839844 C 2046.511719 3009.050781 2043.671875 3008.839844 2042.601562 3008.363281 Z M 899.042969 2823.503906 C 894.273438 2821.351562 891.808594 2817.484375 891.808594 2812.15625 C 891.808594 2808.132812 893.933594 2803.28125 908.320312 2774.480469 C 923.339844 2744.410156 944.34375 2704.539062 967.609375 2661.910156 C 1066.019531 2481.589844 1097.691406 2426 1146.28125 2348.230469 C 1221.230469 2228.269531 1261.730469 2169.859375 1316.070312 2103.378906 C 1349.070312 2063 1407.339844 1995.898438 1463.03125 1934.140625 C 1487.648438 1906.839844 1497.691406 1895.480469 1507.511719 1883.820312 C 1514.929688 1875 1518.519531 1872.96875 1523.921875 1874.519531 C 1530.820312 1876.5 1533.789062 1880.28125 1533.789062 1887.089844 C 1533.789062 1890.140625 1532.890625 1892.140625 1529.46875 1896.648438 C 1524.550781 1903.160156 1507.128906 1923.019531 1481.589844 1951.238281 C 1463.78125 1970.929688 1450.230469 1986.199219 1417.691406 2023.28125 C 1343.25 2108.109375 1307.78125 2151.929688 1267.980469 2208.230469 C 1224.308594 2269.980469 1152.628906 2383.300781 1105.960938 2464.339844 C 1070.960938 2525.089844 994.695312 2663.871094 949.125 2749.71875 C 946.132812 2755.351562 937.703125 2772.035156 930.390625 2786.792969 C 923.078125 2801.550781 916.34375 2815.125 915.425781 2816.957031 C 912.238281 2823.339844 905.050781 2826.210938 899.042969 2823.503906 Z M 346.738281 2093.980469 C 341.953125 2092.589844 338.609375 2087.960938 338.609375 2082.710938 C 338.609375 2077.03125 339.007812 2076.359375 351.203125 2061.390625 C 401.761719 1999.351562 497.933594 1890.019531 582.917969 1797.960938 C 743.707031 1623.789062 861.164062 1507.25 955.226562 1428.558594 C 1045.078125 1353.378906 1160.070312 1274.539062 1269.878906 1212.808594 C 1295.941406 1198.148438 1306.609375 1192.570312 1342.070312 1175.019531 C 1381.839844 1155.339844 1404.308594 1144.96875 1444.519531 1127.691406 C 1461.148438 1120.550781 1480.421875 1112.03125 1487.339844 1108.75 C 1495.519531 1104.878906 1501.140625 1102.808594 1503.441406 1102.808594 C 1513.839844 1102.820312 1519.550781 1114.640625 1513.101562 1122.839844 C 1510.640625 1125.96875 1496.488281 1132.859375 1463.058594 1147.179688 C 1336.410156 1201.460938 1246.929688 1250.289062 1132.039062 1327.820312 C 1010.480469 1409.859375 927.167969 1480.109375 796.644531 1610.609375 C 664.214844 1743.011719 463.25 1963.398438 368.503906 2080.140625 C 359.824219 2090.828125 357.421875 2093.199219 354.421875 2094.03125 C 352.433594 2094.589844 350.585938 2095 350.316406 2094.960938 C 350.046875 2094.910156 348.4375 2094.46875 346.738281 2093.980469 Z M 2406.328125 2039.960938 C 2404.621094 2039.210938 2402.140625 2036.898438 2400.828125 2034.820312 C 2392.128906 2021.03125 2328.609375 1944.570312 2299.269531 1912.570312 C 2296.550781 1909.601562 2292.558594 1905.210938 2290.410156 1902.808594 C 2223.910156 1828.671875 2129.96875 1739.871094 2050.398438 1675.960938 C 1968.570312 1610.21875 1807.011719 1501.660156 1694.769531 1436.988281 C 1612.878906 1389.808594 1551.339844 1360.78125 1510.589844 1350.109375 C 1499.578125 1347.21875 1498.109375 1346.46875 1495.691406 1342.511719 C 1492.03125 1336.511719 1493.648438 1329.53125 1499.660156 1325.429688 C 1504.460938 1322.160156 1509.488281 1322.890625 1530.558594 1329.929688 C 1583.191406 1347.5 1634.128906 1372.390625 1719.660156 1422.328125 C 1830.691406 1487.171875 1985.128906 1591.308594 2064.429688 1654.808594 C 2105.589844 1687.78125 2157.25 1733.25 2200.46875 1774.550781 C 2211.140625 1784.738281 2221.820312 1794.839844 2224.210938 1796.980469 C 2231.550781 1803.578125 2276.609375 1850.449219 2297.859375 1873.601562 C 2333.359375 1912.261719 2374.300781 1959.898438 2402.230469 1995.039062 C 2421.980469 2019.890625 2424.570312 2023.820312 2424.570312 2028.929688 C 2424.570312 2032.558594 2421.261719 2037.691406 2417.679688 2039.609375 C 2413.75 2041.710938 2410.589844 2041.808594 2406.328125 2039.960938 Z M 2566.78125 1186.070312 C 2563.679688 1184.789062 2562.121094 1182.851562 2556.371094 1173.128906 C 2528.570312 1126.160156 2462.601562 1035.511719 2419.621094 985.238281 C 2325.539062 875.199219 2214.820312 776.101562 2101.140625 700.179688 C 2001.429688 633.601562 1904.238281 587.179688 1770.878906 542.441406 C 1670.671875 508.820312 1572.859375 490.601562 1515.390625 494.851562 C 1499.308594 496.039062 1496.160156 495.351562 1492.839844 489.910156 C 1489.078125 483.730469 1491.308594 475.339844 1497.578125 472.101562 C 1502.339844 469.628906 1528.671875 468.429688 1551.628906 469.621094 C 1639.75 474.179688 1756.359375 505.359375 1893.050781 560.890625 C 2073.289062 634.109375 2246.039062 758.070312 2399.398438 924.261719 C 2451.320312 980.519531 2505.519531 1049.988281 2552.199219 1120.109375 C 2580.839844 1163.140625 2585.210938 1170.839844 2584.148438 1176.46875 C 2583.359375 1180.699219 2580.140625 1184.679688 2576.148438 1186.339844 C 2572.191406 1188 2571.359375 1187.96875 2566.78125 1186.070312 Z M 221.792969 1030.128906 C 214.828125 1027.109375 212.40625 1016.890625 217.285156 1011.101562 C 224.453125 1002.578125 261.933594 971.730469 295.710938 946.558594 C 368.984375 891.960938 453.875 837.859375 552.277344 783.078125 C 644.375 731.808594 699.246094 705.269531 757.652344 683.75 C 882.6875 637.691406 1065.089844 605.570312 1248.898438 597.261719 C 1287.46875 595.511719 1418.769531 595.628906 1456.230469 597.441406 C 1475.289062 598.371094 1504.390625 602.160156 1514.769531 605.058594 L 1517.691406 605.878906 L 1517.449219 615.058594 C 1517.308594 620.109375 1516.96875 626.058594 1516.679688 628.28125 L 1516.140625 632.320312 L 1511.558594 630.578125 C 1498.738281 625.730469 1469.078125 622.75 1425.011719 621.890625 C 1265.96875 618.78125 1170.609375 623.710938 1047.910156 641.410156 C 896.480469 663.261719 788.460938 692.960938 687.757812 740.441406 C 650.253906 758.121094 585.398438 792.78125 524.472656 827.691406 C 415.003906 890.429688 299.5 970.019531 241.542969 1022.671875 C 231.910156 1031.421875 228.078125 1032.871094 221.792969 1030.128906 Z M 221.792969 1030.128906 "/>
<path fill-rule="nonzero" fill="rgb(45.092773%, 61.131287%, 37.646484%)" fill-opacity="1" d="M 1781.601562 3659.675781 C 1776.199219 3657.746094 1770.929688 3653.390625 1767.691406 3648.171875 C 1763.351562 3641.167969 1728.140625 3480.570312 1707.730469 3374.628906 C 1687.148438 3267.84375 1652.988281 3078.019531 1635.648438 2974.117188 C 1612.460938 2835.144531 1586.28125 2657.558594 1571.210938 2537.019531 C 1534.089844 2239.96875 1503.410156 1826.179688 1491.210938 1457.941406 C 1482.449219 1193.460938 1477.25 734.808594 1481.859375 634 C 1484.941406 566.640625 1489.148438 512.578125 1496.058594 451.550781 C 1503.269531 387.910156 1503.039062 389.480469 1505.878906 384.25 C 1507.351562 381.558594 1508.808594 379.359375 1509.128906 379.359375 C 1509.441406 379.359375 1511.589844 383.058594 1513.890625 387.570312 C 1520.570312 400.640625 1530.738281 415.230469 1539.78125 424.71875 C 1544.378906 429.550781 1548.660156 434.449219 1549.289062 435.609375 C 1550.191406 437.269531 1549.890625 442.628906 1547.871094 460.980469 C 1539.738281 534.769531 1535.671875 593.230469 1533.488281 667.660156 C 1532.429688 704.101562 1532.871094 938.191406 1534.121094 997.429688 C 1534.390625 1010.308594 1535.058594 1052.238281 1535.601562 1090.609375 C 1539.070312 1336.539062 1544.519531 1515.691406 1554.140625 1699.910156 C 1569.238281 1989.390625 1593.089844 2280.96875 1619.558594 2499.460938 C 1637.988281 2651.671875 1669.378906 2862.410156 1698.96875 3032.660156 C 1744.238281 3293.125 1777.789062 3465.453125 1810.628906 3606.347656 C 1813.890625 3620.296875 1816.550781 3633.5 1816.550781 3635.6875 C 1816.550781 3653.171875 1798.359375 3665.65625 1781.601562 3659.675781 Z M 1544.578125 408.21875 C 1537.621094 398.28125 1528.109375 381.601562 1528.941406 380.769531 C 1529.179688 380.53125 1532.441406 385.269531 1536.179688 391.308594 C 1546.28125 407.578125 1552.21875 417.660156 1551.898438 417.96875 C 1551.75 418.128906 1548.449219 413.738281 1544.578125 408.21875 Z M 1551.621094 389.570312 C 1548.671875 381.5 1548.921875 378.878906 1552.050781 385.019531 C 1553.96875 388.800781 1555.859375 396.910156 1554.808594 396.910156 C 1554.519531 396.910156 1553.089844 393.609375 1551.621094 389.570312 Z M 1551.621094 389.570312 "/>
</svg>
