<?xml version="1.0" ?><svg viewBox="0 0 1000 1000" xmlns="http://www.w3.org/2000/svg"><path d="m386.15 510.88h-128.61a17 17 0 0 1 -17-17v-246.99a17 17 0 0 1 17-17h430.61a17 17 0 0 1 17 17v247a17 17 0 0 1 -17 17h-186.56" fill="#fff"/><path d="m698.84 229.86h-10.69a17 17 0 0 1 17 17v247a17 17 0 0 1 -17 17h10.69a17 17 0 0 0 17-17v-246.97a17 17 0 0 0 -17-17.03z" fill="#18c4ff"/><path d="m698.84 228.41h-10.69a1.45 1.45 0 0 0 0 2.89 15.76 15.76 0 0 1 15.59 15.6v2.36 244a16.11 16.11 0 0 1 -4.19 11.27 15.78 15.78 0 0 1 -11.4 5 1.44 1.44 0 0 0 0 2.88h7.76c3.15 0 6.25 0 9.26-1.12a18.71 18.71 0 0 0 12.15-17.44c0-3.45 0-6.91 0-10.36v-231.9c0-1.41 0-2.83 0-4.24a18.49 18.49 0 0 0 -18.48-18.94 1.45 1.45 0 0 0 0 2.89 15.77 15.77 0 0 1 15.6 15.62v2.69 242.79a19.61 19.61 0 0 1 -1 6.83 15.71 15.71 0 0 1 -9.08 9.19c-2.95 1.11-5.94 1-9 1h-7.25v2.88a18.66 18.66 0 0 0 18.32-16.17 31.23 31.23 0 0 0 .16-4.1v-244.78a18.49 18.49 0 0 0 -18.48-18.84v2.89h10.69a1.45 1.45 0 0 0 .04-2.89z" fill="#18c4ff"/><path d="m386.15 509.44h-105.66c-7.57 0-15.14.08-22.71 0a15.81 15.81 0 0 1 -15.78-15.61c0-1.08 0-2.15 0-3.23v-242.4c0-4.18.92-8.18 3.74-11.44a16.13 16.13 0 0 1 12.46-5.46h10.21 418.59a19 19 0 0 1 6.42.9c6.51 2.3 10.33 8.5 10.35 15.25v15.36 226.19 4.59a15.78 15.78 0 0 1 -14.29 15.82c-4.9.39-10 .05-14.86.05h-173a1.44 1.44 0 0 0 0 2.88h175.3c5.9 0 13 .86 18.56-1.52a18.75 18.75 0 0 0 11.15-17.22c0-1.51 0-3 0-4.53v-227.92c0-4.68 0-9.36 0-14-.12-10.94-8.82-18.71-19.5-18.71h-420.46c-3 0-5.94 0-8.92 0a18.81 18.81 0 0 0 -16.42 9.6 21.08 21.08 0 0 0 -2.27 10.31v243.3a28.19 28.19 0 0 0 .48 6.42 18.73 18.73 0 0 0 18.2 14.28c7.58.09 15.17 0 22.75 0h105.66a1.44 1.44 0 0 0 0-2.88z"/><path d="m688.15 229.86h-430.61a17 17 0 0 0 -17 17v3.43h464.65v-3.43a17 17 0 0 0 -17.04-17z"/><g fill="#18c4ff"><circle cx="265.64" cy="240.09" r="2.77"/><circle cx="285.37" cy="240.09" r="2.77"/><circle cx="305.1" cy="240.09" r="2.77"/></g><path d="m516.85 388h-88v-78.65a31.06 31.06 0 0 1 31.07-31.06h25.87a31.06 31.06 0 0 1 31.07 31.06z" fill="#fff"/><path d="m516.85 387.29h-86.68a4.58 4.58 0 0 0 -1.17 0h-.16l.73.72v-74.23c0-1.48 0-2.95 0-4.43a30.33 30.33 0 0 1 28.24-30.27c3.68-.25 7.42-.07 11.11-.07h14.81c5.43 0 10.65.7 15.58 3.17a30.59 30.59 0 0 1 14.83 16.35 33.43 33.43 0 0 1 2 12.05v77.42a.73.73 0 0 0 1.45 0v-75c0-2.12.06-4.27-.13-6.39a31.78 31.78 0 0 0 -29.21-28.9c-3.75-.29-7.58-.09-11.34-.09h-15.09a35.56 35.56 0 0 0 -15.58 3.08 31.91 31.91 0 0 0 -15.24 15.44 33.3 33.3 0 0 0 -2.88 14v77.86a.73.73 0 0 0 .72.72h84.4c1.13 0 2.32.1 3.45 0h.16a.72.72 0 0 0 0-1.43z"/><path d="m464.25 277.57c-5.3 0-10.48-.09-15.57 1.68a30.61 30.61 0 0 0 -20.56 29.07v73.68c0 1.89-.1 3.82 0 5.72a2.26 2.26 0 0 1 0 .26.73.73 0 0 0 .72.72h5.54a.73.73 0 0 0 .72-.72v-67.34c0-4.16 0-8.32 0-12.48a29.46 29.46 0 0 1 23.9-28.68 30.33 30.33 0 0 1 5.29-.47.72.72 0 0 0 0-1.44 30.89 30.89 0 0 0 -29.54 22.43c-1.49 5.42-1.09 11.19-1.09 16.76v69.24a9.32 9.32 0 0 0 0 1.83 1.77 1.77 0 0 1 0 .23l.72-.72h-5.54l.73.72v-70.94c0-6-.46-12.2 1.42-18a29.19 29.19 0 0 1 22.94-19.73 46.24 46.24 0 0 1 7.8-.39h2.52a.72.72 0 0 0 0-1.43z"/><path d="m464.25 278.29h-5.53a29.87 29.87 0 0 0 -29.88 29.87v79.84h5.54v-79.84a29.87 29.87 0 0 1 29.87-29.87z"/><path d="m242 246.89c.17-9.11 7.46-15.57 16.35-15.59h6.23 409.18c4.77 0 9.54-.07 14.31 0 9 .12 15.64 7.32 15.67 16.2v8.87 232.68a39.5 39.5 0 0 1 -.31 7.92 15.79 15.79 0 0 1 -15.29 12.47h-186.55a1.44 1.44 0 0 0 0 2.88h185.31c9.15 0 17.58-5.47 19.38-14.89a45.2 45.2 0 0 0 .35-8.31v-216.87c0-8.36.09-16.73 0-25.1a18.75 18.75 0 0 0 -18.52-18.74c-1.34 0-2.68 0-4 0h-410c-5.43 0-10.85 0-16.27 0a18.75 18.75 0 0 0 -18.76 18.48 1.45 1.45 0 0 0 2.89 0z"/><path d="m727.71 441.41c-9-10.82-21.12-18.84-34.08-24.39s-26.83-8.71-40.77-10.87c-12.33-1.91-25.08-3-37.18 0a8.32 8.32 0 0 0 -3.58 1.6 3.13 3.13 0 0 0 -1 3.57 4.9 4.9 0 0 0 2 1.8 40.74 40.74 0 0 1 8.11 6.51 36 36 0 0 0 -12.21 2.7c-1.35.56-2.84 1.41-3.09 2.85a3.19 3.19 0 0 0 2 3.23 9.32 9.32 0 0 0 4 .52 22.11 22.11 0 0 0 -13.5 4.07 2.7 2.7 0 0 0 -1 1.1c-.64 1.63 1.77 2.71 3.53 2.64a19 19 0 0 0 -15.16 9.12 3.9 3.9 0 0 0 -.7 2.19c.16 2 2.68 2.65 4.65 2.65 11.68 0 22.43-6.45 34-8a36.46 36.46 0 0 0 -23.37 19.33c-.63 1.31-1.16 2.92-.38 4.15a4.09 4.09 0 0 0 3.35 1.49c5.74.35 11.14-2.44 16.21-5.16l-6.07 8.66a3.15 3.15 0 0 0 -.83 2.39 2.5 2.5 0 0 0 1.75 1.58c2.86 1 6-.31 8.66-1.69a121.21 121.21 0 0 0 14-8.44c6.82-4.77 13.41-10.38 21.47-12.46a41.8 41.8 0 0 0 -10.81 17c-.77 2.31-1.2 5.23.61 6.87 2 1.79 5.15.72 7.42-.7 4.39-2.73 8.09-6.41 12.08-9.7a82.47 82.47 0 0 1 58.78-18.24" fill="#18c4ff"/><path d="m728.07 441.05c-11.56-14.5-28.68-23.69-46.11-29.22a196.51 196.51 0 0 0 -30-6.71c-10.07-1.52-20.34-2.48-30.48-1a33.41 33.41 0 0 0 -8 1.82c-1.92.79-3.65 2.5-3.41 4.75s2.57 3.12 4.18 4.2a39 39 0 0 1 6.5 5.39l.61-1.46a37.94 37.94 0 0 0 -8.07 1.15c-2.28.59-5 1.28-6.88 2.81a3.61 3.61 0 0 0 -.64 5.1c1.48 1.95 4 2.1 6.25 2.06a1 1 0 0 0 0-2 23.27 23.27 0 0 0 -13.35 3.71c-1.37.9-3 2.26-2.05 4.06.78 1.5 2.79 2 4.36 2v-2a20.18 20.18 0 0 0 -15.33 8.5c-1 1.46-2.16 3.36-1.2 5.14 1.79 3.34 7.33 2.42 10.31 2a79.36 79.36 0 0 0 13.79-3.56 89.55 89.55 0 0 1 15.45-4.04l-.55-2a37.74 37.74 0 0 0 -18.94 12 38.23 38.23 0 0 0 -3.35 4.64 17.61 17.61 0 0 0 -2.49 5.3c-.92 4.55 3.89 5.31 7.27 5 5.08-.48 9.68-2.89 14.1-5.27l-1.38-1.37-4.26 6.1c-1.07 1.53-3.23 3.64-2.71 5.71.45 1.78 2.52 2.46 4.14 2.61a12.31 12.31 0 0 0 6.12-1.37c8.54-3.84 15.91-9.63 23.56-14.9a43.26 43.26 0 0 1 13.26-6.65l-1-1.66a43.52 43.52 0 0 0 -7.15 8.9 32.41 32.41 0 0 0 -4.42 10.4c-.56 3 .3 6.51 3.78 7.09 3.65.61 7.15-2.16 9.83-4.24 3.21-2.48 6.15-5.28 9.31-7.83a78.22 78.22 0 0 1 9.64-6.6 81.91 81.91 0 0 1 21.67-8.75 80.56 80.56 0 0 1 26.12-2.09c1.26.1 1.25-1.87 0-2a83.54 83.54 0 0 0 -42.05 7.54 81.82 81.82 0 0 0 -18.24 11.69c-2.27 1.91-16.06 15.49-18.07 8.29-.48-1.74.17-3.65.76-5.28a38.83 38.83 0 0 1 2.62-5.81 41.53 41.53 0 0 1 7.65-9.94 1 1 0 0 0 -1-1.66c-7.54 2-13.73 6.86-20 11.34a123 123 0 0 1 -10.6 6.87c-1.81 1-3.64 2.06-5.51 3s-4 1.86-6.12 1.7c-1.32-.1-3-.68-2.1-2.28.58-1 1.36-2 2-2.91l4.43-6.29c.62-.87-.55-1.82-1.38-1.38a45.35 45.35 0 0 1 -10.56 4.51 15.88 15.88 0 0 1 -5.49.46 2.56 2.56 0 0 1 -2.21-1.18 3.73 3.73 0 0 1 .48-2.88 35.38 35.38 0 0 1 22.84-18.81c1.34-.36.73-2.19-.55-2-8 1.09-15.44 4.37-23.22 6.39a52.46 52.46 0 0 1 -6 1.22 20.68 20.68 0 0 1 -5.66.25c-1.8-.27-3.11-1.15-2.06-3a16.29 16.29 0 0 1 3.37-4.16 18.07 18.07 0 0 1 11-4.65 1 1 0 0 0 0-2c-.71 0-3.27-.39-2.4-1.54a7.27 7.27 0 0 1 2-1.37 22.48 22.48 0 0 1 2.07-1.07 21.31 21.31 0 0 1 9.38-1.84v-2c-1.63 0-4.13.14-5-1.63s1.55-2.83 2.86-3.35a35.4 35.4 0 0 1 11.45-2.46.86.86 0 0 0 .6-1.46 46.09 46.09 0 0 0 -4.93-4.43c-.77-.59-1.58-1.15-2.4-1.69s-2.05-1-2.53-1.92c-2.17-4 9.51-5.11 11.53-5.35 9.68-1.13 19.47-.14 29.06 1.34 18.26 2.81 36.57 7.4 52.66 16.76a89.84 89.84 0 0 1 22.06 18c.44.5 1.12-.22.72-.72z" fill="#18c4ff"/><path d="m976.89 723.55c-4.88-23.27-26.82-39.48-49.23-43.94-29.77-5.92-60.11 5-87 16.8-27.3 12-53.42 26.5-80.57 38.83-12.27 5.58-25.51 10.69-39.18 10.64a45.48 45.48 0 0 1 -31.38-12.5 38.26 38.26 0 0 1 -11.91-28.73 53.39 53.39 0 0 1 10-29.61c5.83-8.28 14.53-15.19 24.22-18.22a34.88 34.88 0 0 1 16.16-1.53 26.11 26.11 0 0 1 15.72 8.17c7.49 8.42 10 23.73 2.7 33a15.64 15.64 0 0 1 -6.37 4.84 13.17 13.17 0 0 1 -7.29.81c-5.59-1.15-10.08-6.29-13-11-7.49-12-7.24-26.75-5.62-40.35 1.81-15.14 5.29-30 9.29-44.74 2-7.44 4.22-14.83 6.49-22.2 2.2-7.15 4.67-14.14 7.3-21.14a90.78 90.78 0 0 0 5.72-21.77c.77-6.72 1.36-13.49 1.81-20.24.91-13.57 1-27.22-1.06-40.7a101.19 101.19 0 0 0 -4.69-18.88 90.88 90.88 0 0 0 -3.83-9.11 46.17 46.17 0 0 0 -5.12-8.79 5.31 5.31 0 0 0 -5.15-2.19 3.8 3.8 0 0 0 -3.1 3.57c-.12 3.77 4.64 6.07 6.89 2.55 2.15-3.36-3.2-6.46-5.33-3.12l-.13.2 1.11-1.11-.15.09 1.56-.42h-.16l1.56.42a2 2 0 0 1 .79 2l-.79 1.37-2.11.33a1.32 1.32 0 0 1 .39.46 6.08 6.08 0 0 0 .53.85c.44.71.86 1.42 1.28 2.14q1.23 2.15 2.32 4.37a77 77 0 0 1 3.65 8.76 101.6 101.6 0 0 1 4.53 19.15c1.87 13.24 1.49 26.78.51 40.08-.49 6.67-.83 13.52-2 20.12-1.28 7.45-4.08 14.48-6.87 21.47-5.69 14.3-10.1 29.21-14.16 44a279.13 279.13 0 0 0 -8.77 45.38c-1.43 14.18-.62 29.38 7.35 41.68 3.64 5.62 8.78 11.15 15.29 13.31a20.6 20.6 0 0 0 18.17-3.16c11.55-8.48 12.86-24.72 7.69-37.2a32.52 32.52 0 0 0 -12.65-15.42 36.07 36.07 0 0 0 -19.11-5.19c-11.67 0-22.84 4.92-31.66 12.37a61.35 61.35 0 0 0 -18.4 27.95c-3.47 10.76-4.09 23.1.09 33.75a49 49 0 0 0 23.51 25.54c12.32 6.25 26 6.91 39.3 3.88 13.73-3.13 26.51-9.5 39.07-15.66 13.58-6.65 27-13.52 40.49-20.4s27.34-13.78 41.53-19.49c13.89-5.59 28.39-10.39 43.33-12.07 13.37-1.51 27.1-.54 39.62 4.68 10.52 4.38 20.21 11.59 26.55 21.15a45.18 45.18 0 0 1 6.49 15.19c.55 2.47 4.3 1.42 3.78-1z"/><path d="m742 574.52a14.18 14.18 0 0 0 -5.66-2.79 14.9 14.9 0 0 0 -6.76-.76 12.55 12.55 0 0 0 -3.08 1 22.83 22.83 0 0 0 -4.24 2.55c-.41.31-.85.72-.82 1.24s.68 1 1.27 1.16a9.87 9.87 0 0 0 7.86-.82 3.84 3.84 0 0 0 1.47 3.16 11.29 11.29 0 0 0 3.18 1.69" fill="#fff"/><path d="m742.4 574.08c-2.27-2.1-5.5-3.18-8.48-3.8a13.34 13.34 0 0 0 -9.63 1.85c-1.14.66-2.93 1.55-3.55 2.78s.23 2.27 1.34 2.74a10.53 10.53 0 0 0 8.88-.77l-1.29-.75c-.12 2.91 2.71 5 5.3 5.61a.79.79 0 0 0 .61-1.44c-1.74-1-4.3-1.66-4.19-4.17a.87.87 0 0 0 -1.29-.74 9 9 0 0 1 -6.88.82c-.56-.17-1.19-.28-.63-.85a9 9 0 0 1 1.52-1.07 21.9 21.9 0 0 1 3.13-1.68 11.71 11.71 0 0 1 7.55-.47 15.57 15.57 0 0 1 6.72 2.83c.61.52 1.5-.33.89-.89z"/><path d="m817.68 551.43c-15.45 15.83-36.86 24.09-57.63 31.7-2.7 1-5.59 2-8.4 1.36-2-.44-3.93-1.69-5.92-1.22-1.08.26-2.11 1-3.19.74-1.29-.33-1.75-1.88-2-3.19l-1.05-5.82a3.29 3.29 0 0 1 .09-2.13c.37-.69 1.17-1 1.69-1.61a8.44 8.44 0 0 0 1.2-2.7c1.33-3.29 5.14-4.66 8.48-5.87 23.86-8.68 42.57-27.49 58.51-47.24"/><path d="m817.31 551.06c-8.8 8.73-19.41 15.22-30.57 20.47-5.61 2.63-11.36 5-17.15 7.17q-4.29 1.62-8.59 3.21c-3.17 1.16-6.53 2.6-9.92 1.57a17.81 17.81 0 0 0 -4.16-1.13 5.28 5.28 0 0 0 -1.81.24c-.79.24-1.88 1-2.69.48-1.06-.68-1.14-2.86-1.33-3.92l-.44-2.42a10.86 10.86 0 0 1 -.46-2.81c.09-.9.68-1.18 1.3-1.72a4.15 4.15 0 0 0 1.07-1.45c.57-1.24.8-2.5 1.74-3.55 1.76-2 4.48-2.82 6.87-3.7a105.53 105.53 0 0 0 30.72-18.08c10.49-8.65 19.68-18.77 28.25-29.29.77-.94-.58-2.3-1.35-1.35-15.89 19.82-34.42 38.41-58.71 47.35-2.47.91-5.14 1.9-7 3.89a8.29 8.29 0 0 0 -1.71 3 4.38 4.38 0 0 1 -1 1.87c-.53.53-1.2.85-1.58 1.54-.63 1.14-.21 2.55 0 3.74.33 1.81.58 3.67 1 5.45a4.66 4.66 0 0 0 1.48 2.67c1.21.93 2.5.48 3.79 0 1.83-.67 3.35 0 5.09.62a10.49 10.49 0 0 0 4.75.45c3.3-.45 6.47-1.91 9.57-3.06 5.94-2.21 11.84-4.51 17.64-7.06 13.14-5.78 25.87-13 35.85-23.49a.52.52 0 0 0 -.74-.73z"/><path d="m737.53 509.13a24.08 24.08 0 0 1 -5.55-4.06c-1.07-1.05-2.11-2.41-1.9-3.9a1.19 1.19 0 0 1 .32-.74 1.1 1.1 0 0 1 1.35 0 3.27 3.27 0 0 1 .89 1.15 3.69 3.69 0 0 1 -1.68-3.39 1.66 1.66 0 0 1 .53-1.16c.89-.68 2 .35 2.67 1.27a5.85 5.85 0 0 1 -1.48-2.46 2 2 0 0 1 1.19-2.34c1-.25 1.93.6 2.61 1.38a4.37 4.37 0 0 1 -1.61-2.42c-.28-1.13.13-2.6 1.26-2.89s2 .57 2.75 1.33l4.55 4.71c-.42-1.06-.74-2.46.15-3.15a2.23 2.23 0 0 1 1.12-.37c2.5-.22 7.42 7.23 3.66 17" fill="#fff"/><path d="m743.92 495.47c-.31-1-.71-2.65.78-2.73a1.53 1.53 0 0 1 1 .34 7.27 7.27 0 0 1 2.21 3 13.47 13.47 0 0 1 1.09 5.52 26.07 26.07 0 0 1 -1.45 7.31c-.26.87 1.1 1.49 1.5.63a17.84 17.84 0 0 0 .41-13c-.68-1.88-2.24-5.12-4.66-5.14a2.31 2.31 0 0 0 -2.26 1.34 4.16 4.16 0 0 0 .43 3.08c.23.53 1.11.16.93-.39z"/><path d="m736.84 494.52c-.19-.21-.33-.45-.5-.66a3.5 3.5 0 0 1 -.46-.63 3.08 3.08 0 0 1 -.29-.67c0-.13-.07-.27-.1-.4s0-.1 0 0 0-.13 0-.2 0-.23 0-.34 0-.19 0-.11a.68.68 0 0 1 0-.12 1 1 0 0 1 0-.16c0-.06 0 .06 0 0a2.53 2.53 0 0 0 .18-.27l.17-.27c-.1.16 0 0 0 0l.11-.11c.06-.07-.15.09 0 0a.54.54 0 0 0 .13-.07c.08-.06-.14 0 0 0a.87.87 0 0 0 .31-.14.82.82 0 0 0 -.41-1.52c-.7-.06-1.4.64-1.71 1.21a2.42 2.42 0 0 0 -.24 1s0 .21 0 .09v.31a3.38 3.38 0 0 0 0 .45 4.45 4.45 0 0 0 .57 1.95 6.09 6.09 0 0 0 .61.89 2.89 2.89 0 0 0 .92.65.51.51 0 0 0 .62-.8z"/><path d="m734.6 498c-.12-.22-.23-.46-.37-.67s-.31-.39-.45-.62a3.77 3.77 0 0 1 -.33-.62c0-.12-.07-.23-.1-.35s0-.12 0-.18a2.81 2.81 0 0 1 0-.29c0-.12 0 0 0 0v-.16c0-.06 0-.07 0 0a1.48 1.48 0 0 1 .08-.13c0-.08-.08.1 0 0l.18-.24.08-.13a2.08 2.08 0 0 1 .21-.21c-.18.15.07-.08.12-.07s-.15.06 0 0a.87.87 0 0 0 .31-.14.82.82 0 0 0 -.42-1.52 1.45 1.45 0 0 0 -1 .39 2.43 2.43 0 0 0 -.61.67 1.44 1.44 0 0 0 -.2.48 2.54 2.54 0 0 0 0 .29s0 .21 0 .11 0 .16 0 .22v.18a2.41 2.41 0 0 0 0 .38 3.63 3.63 0 0 0 .56 1.8c.15.25.32.49.49.73a3.55 3.55 0 0 0 .78.72.53.53 0 0 0 .67 0 .51.51 0 0 0 .13-.66z"/><path d="m733 501.22a2.09 2.09 0 0 1 -.2-.22l-.13-.16a1.93 1.93 0 0 0 -.27-.3l-.12-.12a.34.34 0 1 1 0 0 4.52 4.52 0 0 1 -.32-.52l-.07-.15c0-.11 0 .14 0-.06a3.18 3.18 0 0 1 -.17-.58v-.13c0 .09 0 0 0-.06a1 1 0 0 1 0-.3l.06-.15c0-.1 0-.2.08-.3v-.14s.07-.2 0-.09 0 0 0-.06.08-.12 0 0a2.76 2.76 0 0 0 .31-.37.84.84 0 0 0 -.06-.91.8.8 0 0 0 -.86-.29 1.48 1.48 0 0 0 -.84.79 2.59 2.59 0 0 0 -.28 1 2.08 2.08 0 0 0 .07.5.94.94 0 0 1 0 .16v.08a4.79 4.79 0 0 0 .16.84 4.14 4.14 0 0 0 .7 1.41 2.27 2.27 0 0 0 1.36 1c.5.18.84-.51.5-.85z"/><path d="m737.79 508.69a36.1 36.1 0 0 1 -4.72-3.51 6.92 6.92 0 0 1 -1.75-2.1 2.37 2.37 0 0 1 -.22-2.24.81.81 0 0 0 -.21-1.06.82.82 0 0 0 -1.07.07c-.93.76-.64 2.4-.22 3.34a5 5 0 0 0 .93 1.3 16.45 16.45 0 0 0 1.14 1.22 26.9 26.9 0 0 0 2.67 2.2c.46.32.92.66 1.4.95a12.45 12.45 0 0 0 1.66.76c.55.23.85-.63.39-.93z"/><path d="m844.92 551.56c-1.33 28.82-4.7 49.57 1.86 77.67 9.72 41.64 36.89 86.91 62.72 121 3 3.89 6.08 8.26 5.64 13.12-.14 1.63-.66 3.42.22 4.79 1.44 2.25 4.93 1.22 7.17-.23 7.45-4.83 8.18-3.93 11.93-12a7.45 7.45 0 0 0 .95-4.17c-.26-1.6-1.45-2.87-2.53-4.08-19.6-21.89-14.31-64-33.34-86.41-5.18-6.09-11.83-11.45-14.2-19.09a33.61 33.61 0 0 1 -1.16-9.59c-.14-12.12 1.58-24.21 1.25-36.33a108.33 108.33 0 0 0 -19.82-59.41"/><path d="m844.33 551.56c-.89 17.59-3 35.22-1.93 52.85s5.46 34.73 11.69 51.18a325 325 0 0 0 23.39 48.32 461.73 461.73 0 0 0 29.2 44c2.53 3.4 5.56 6.79 7 10.85a14.31 14.31 0 0 1 .42 6.47c-.16 1.64.11 3.41 1.58 4.4 2.88 1.93 6.44-.48 8.88-2a40.31 40.31 0 0 0 6.15-4.09 20.44 20.44 0 0 0 4.16-6.47c.85-1.78 1.76-3.69 1.33-5.72s-1.9-3.31-3.13-4.73a54.78 54.78 0 0 1 -9.62-17.24c-4.88-13.33-6.75-27.51-10.41-41.17a88.7 88.7 0 0 0 -7.08-18.94 49.33 49.33 0 0 0 -5.28-8c-2.52-3.08-5.39-5.84-8-8.83a29.72 29.72 0 0 1 -6.41-10.3c-1.47-4.62-1.27-9.68-1.15-14.46.24-10 1.39-19.95 1.26-29.95a109.83 109.83 0 0 0 -13.13-50.32 104.12 104.12 0 0 0 -6.81-11c-.68-1-2.3 0-1.61.94a108 108 0 0 1 18.87 47.86c1.23 9.24 1 18.49.42 27.77-.29 4.91-.63 9.81-.75 14.73-.11 4.58-.25 9.37.91 13.85 2 7.65 8.15 13.06 13.25 18.72a54.45 54.45 0 0 1 10.1 16.72c5.06 12.92 7 26.8 10.38 40.19a103.54 103.54 0 0 0 6.39 18.87 53.22 53.22 0 0 0 4.8 8.31 45.26 45.26 0 0 0 2.87 3.63c1.62 1.84 3.07 3.45 2.24 6a27.76 27.76 0 0 1 -2.38 5 13.32 13.32 0 0 1 -1.95 2.77 26.35 26.35 0 0 1 -5.58 3.87 20.76 20.76 0 0 1 -4.68 2.58c-2 .62-4 .22-4-2.27 0-2.06.49-3.91.09-6a17.61 17.61 0 0 0 -2.26-5.56c-2.09-3.51-4.78-6.68-7.2-10s-5-6.81-7.35-10.25q-7.5-10.75-14.39-21.89a364.37 364.37 0 0 1 -24.69-46.78c-6.83-15.84-12.38-32.47-14.81-49.59-2.41-16.93-1.3-34-.29-51 .27-4.5.52-9 .71-13.51 0-.77-1.15-.76-1.18 0z"/><path d="m810.72 557.7c-28.44 60.38-38.92 127.34-55.29 192-1.45 5.73-3.36 12-7.51 15.87a1.68 1.68 0 0 0 .91 2.89 92.55 92.55 0 0 0 18.22.82c2.68-.14 5.72-.59 7.25-2.8a9.89 9.89 0 0 0 1.29-4c6.13-34 31-62 39.71-95.48 1.33-5.1 2.27-10.31 4-15.29 2.69-7.78 7.2-14.78 11.65-21.7 7.81-12.15 15.64-24.51 20-38.27s5.08-29.27-1.24-42.25c-.76-1.58-1.88-3.28-3.62-3.47"/><path d="m810.25 557.42a415.72 415.72 0 0 0 -18.68 46.79c-5.38 16.13-10 32.52-14.16 49s-7.95 33-11.74 49.62q-2.85 12.43-5.75 24.85c-1.93 8.16-3.76 16.39-6 24.47a34.57 34.57 0 0 1 -4.21 10 16.54 16.54 0 0 1 -1.59 2 5.57 5.57 0 0 0 -1.41 1.76 2.58 2.58 0 0 0 1.05 3 5.13 5.13 0 0 0 2 .48c1.11.15 2.23.27 3.34.38 2.24.2 4.48.33 6.72.37s4.49 0 6.73-.09a17.76 17.76 0 0 0 4.92-.74 6.73 6.73 0 0 0 3.5-2.49c1.06-1.57 1.24-3.54 1.59-5.36a100.11 100.11 0 0 1 2.72-10.82 155.67 155.67 0 0 1 8.45-21.11c6.56-13.78 14.34-27 20.56-40.9a138.24 138.24 0 0 0 7.62-21.06c1.12-4.23 2-8.52 3.16-12.72a62 62 0 0 1 5-12.15c4-7.46 8.93-14.4 13.37-21.59a154.31 154.31 0 0 0 11.69-22.13c6-14.56 8.65-31.57 2.77-46.62-1-2.65-2.36-6.67-5.6-7.22-1.11-.18-1.58 1.51-.47 1.7 1.83.3 2.67 2.12 3.39 3.64a44.39 44.39 0 0 1 2.13 5.55 49.2 49.2 0 0 1 2 11.49 65.61 65.61 0 0 1 -2.93 23c-4.8 15.82-14.23 29.51-22.93 43.37-4.35 6.92-8.19 14-10.33 22-1.1 4.08-1.92 8.24-3 12.32-1 3.54-2.12 7-3.4 10.46-5.18 13.85-12.48 26.77-19.25 39.88-6.64 12.87-12.92 26.14-16 40.36-.4 1.8-.6 3.69-1.12 5.46a5.07 5.07 0 0 1 -3.66 3.57 21.46 21.46 0 0 1 -5.36.61c-2.16.07-4.33.07-6.49 0s-4.32-.25-6.47-.48c-1.15-.13-5.52-.11-3.61-2.13a25.26 25.26 0 0 0 5.2-8.44 87.42 87.42 0 0 0 3-10.42q1.5-6 2.94-12c1.93-8 3.79-16.09 5.64-24.15 3.68-16 7.28-32.12 11.18-48.12s8-31.68 12.79-47.3a466 466 0 0 1 16.71-46.43q2.38-5.58 5-11.08c.29-.63-.65-1.19-1-.55z"/><path d="m162.5 516.67a26.38 26.38 0 0 0 11.5-4.47c3-2.07 5.48-4.73 8.37-6.91s6.36-3.92 10-3.68a2.91 2.91 0 0 0 1.58-.14 4.28 4.28 0 0 0 .84-.71 4.06 4.06 0 0 1 4.27-.47 7.51 7.51 0 0 1 3.22 3.12c3.41 5.69 1.94 13.48-2.49 18.42s-11.22 7.29-17.85 7.48"/><path d="m162.5 517.25a28.91 28.91 0 0 0 14.85-6.76 64.94 64.94 0 0 1 7.15-5.67 14.2 14.2 0 0 1 8.22-2.24 3.32 3.32 0 0 0 1.65-.29c.54-.29.88-.81 1.41-1.1a3.56 3.56 0 0 1 3.74.47c2.06 1.5 3.13 4.33 3.48 6.77a16.16 16.16 0 0 1 -5.09 13.77 21.16 21.16 0 0 1 -7.48 4.42c-2.91 1-5.82 1.17-8.83 1.65-1.28.2-.84 2 .29 2.12a22.35 22.35 0 0 0 8.77-1.48 24.59 24.59 0 0 0 7.34-3.91 18.65 18.65 0 0 0 7.12-14.08c.09-4.54-2.26-11.75-7.78-11.93a4.86 4.86 0 0 0 -3.24 1.13 2.65 2.65 0 0 1 -2.16.57 11.85 11.85 0 0 0 -2.3.2 18.87 18.87 0 0 0 -8.19 4.12c-2.94 2.34-5.51 5.15-8.67 7.21a26.32 26.32 0 0 1 -10.4 3.92c-.63.1-.49 1.22.16 1.14z"/><g fill="#18c4ff"><path d="m160.23 560.58c17.34 61.81 31.35 125 33.77 189.14.19 5.11.57 10.81 4.34 14.26 1.73 1.58 4.2 4.15 2.36 5.6a3.41 3.41 0 0 1 -2 .5q-8 .18-16-.12c-2-.08-4.17-.28-5.46-1.78a7.37 7.37 0 0 1 -1.3-3q-7.78-29.89-15.56-59.81c-2.78-10.66-5.58-21.47-5.59-32.49 0-4.46.44-9-.51-13.36s-3.18-8.21-5.35-12c-8.2-14.5-15.87-29.47-20.22-45.54s-5.23-33.45.08-49.23"/><path d="m159.69 560.73c7.87 29.92 15.65 59.83 21.51 90.22a663.36 663.36 0 0 1 11.55 91.54c.18 3.52.22 7.06.51 10.57a22.37 22.37 0 0 0 2 8.26 12.19 12.19 0 0 0 2.47 3.31c.95.91 2.3 2 2.66 3.27.51 1.79-3.2 1.32-4.19 1.34-2 0-4 0-6 0s-3.82 0-5.73-.11a15 15 0 0 1 -5.21-.61c-1.78-.72-2.18-2.43-2.61-4.11q-.83-3.13-1.63-6.27l-6.02-23.14-6-23.15c-1.91-7.36-3.95-14.7-5.44-22.16a96.68 96.68 0 0 1 -1.65-11.6c-.29-3.84-.12-7.66-.11-11.5a30.05 30.05 0 0 0 -1.64-10.72 66.1 66.1 0 0 0 -4.66-9.29c-14.22-25.21-27.52-53.89-22.32-83.6a68.57 68.57 0 0 1 2.55-10.08c.37-1.13-1.4-1.61-1.77-.49-9.69 29.08 1.06 59.56 14.74 85.39 1.8 3.38 3.65 6.72 5.53 10a50.5 50.5 0 0 1 4.77 10.2c1.11 3.73 1.05 7.62 1 11.47a85 85 0 0 0 .48 11.94 168.29 168.29 0 0 0 4.73 22.75q3.06 11.79 6.14 23.58l6.16 23.63 3.14 12.06a15.37 15.37 0 0 0 1.64 4.82 5.59 5.59 0 0 0 3.59 2.21 26.07 26.07 0 0 0 4.59.36c2.08.06 4.15.1 6.23.13s4 0 6 0c1.48 0 3.46.26 4.68-.78 2.24-1.9-.12-4.72-1.62-6.2a11.89 11.89 0 0 1 -4.16-7.51 65.12 65.12 0 0 1 -.77-10.16q-.25-5.79-.63-11.56c-.52-8-1.23-16-2.08-24-1.68-15.58-3.94-31.1-6.67-46.53-5.56-31.21-12.98-62.08-21.45-92.63q-1.54-5.6-3.19-11.14a.56.56 0 0 0 -1.08.29z"/><path d="m136.91 537.25c3.4 24.73 6.42 40.71 1.38 65.16-4.08 19.84.19 65.54-29.72 66.78-15.5.64-33.73-10.09-42.61-22.34a382.3 382.3 0 0 1 -31.16-50.91 7.47 7.47 0 0 0 -4.8-3.85 14.59 14.59 0 0 1 -3.89-1.63 2.29 2.29 0 0 1 -.24-3.77 48.16 48.16 0 0 1 17.74-8.64 6 6 0 0 1 3.13-.18 5.45 5.45 0 0 1 2.67 2.2c2.24 3.06 3.47 6.73 5.42 10 3.8 6.32 9.78 11.06 15.84 15.27 23 16 27.53 24 29.3 32.08-.14-15-2.79-29.95-1.93-44.92s5.96-30.73 17.96-39.74c.68-.51 2.2-.22 1.65.43"/><path d="m136.39 537.25c1.83 14.67 4.33 29.35 3.75 44.2-.43 11.19-3.21 22-4.27 33.16-.87 9.16-1.51 18.4-3.49 27.41-1.75 7.94-4.62 16.57-11.2 21.83-8.43 6.74-20.48 4.84-29.78 1.14a60.22 60.22 0 0 1 -17.58-10.9c-5.39-4.8-9.35-10.75-13.39-16.67q-6.84-10-13-20.47c-4.18-7-7.94-14.27-11.82-21.47a8.63 8.63 0 0 0 -3.06-3.29c-1.49-.92-3.26-1.14-4.83-1.9-.67-.32-1.56-.67-1.76-1.46-.26-1.05.7-1.63 1.43-2.16a48.65 48.65 0 0 1 4.71-3.06 46.71 46.71 0 0 1 10.53-4.39 12.48 12.48 0 0 1 2.82-.62 3.49 3.49 0 0 1 2.9 1.46 24.53 24.53 0 0 1 3 5 48.63 48.63 0 0 0 5.56 9.37 50.13 50.13 0 0 0 7.8 7.54c5.79 4.6 12.06 8.54 17.79 13.23 6.19 5.08 12.83 11 15.64 18.75a31.8 31.8 0 0 1 1 3.7.88.88 0 0 0 1.72-.23c-.28-23.65-7-49.53 5.12-71.47a41.65 41.65 0 0 1 5-7.13 35.91 35.91 0 0 1 2.85-2.94c.55-.51 1.11-1 1.69-1.48l.59-.47a1.66 1.66 0 0 1 .65-.42c.48.08.51-.18.08-.78a1 1 0 0 0 1.67 1 1.33 1.33 0 0 0 -.73-2c-1.17-.46-2.16.16-3 .86a36.45 36.45 0 0 0 -6 6.05 49.52 49.52 0 0 0 -7.92 14.93c-4.22 12.41-4.08 25.56-3.17 38.47.59 8.46 1.46 16.91 1.56 25.4l1.72-.23c-1.59-7.13-5.87-12.83-11-17.83a137.4 137.4 0 0 0 -15.69-12.68c-6.35-4.54-13-8.93-17.49-15.47-2.26-3.29-3.55-7.1-5.7-10.46a8.46 8.46 0 0 0 -3.45-3.51c-1.71-.73-3.62-.13-5.31.34a49.13 49.13 0 0 0 -10.96 4.4 48 48 0 0 0 -4.91 3.14c-1.15.85-2.28 1.65-2.34 3.21-.16 3.71 4.81 3.92 7.17 5.21 1.77 1 2.59 2.57 3.48 4.29s1.93 3.73 2.93 5.58q6 11.22 12.74 22t14.19 21.11a57 57 0 0 0 14.37 13.82 58 58 0 0 0 19 8.64c5.46 1.28 11.37 1.7 16.81.11 8.41-2.47 13.62-9.61 16.6-17.48 3.38-8.93 4.45-18.64 5.32-28.08.42-4.51.75-9 1.23-13.52.58-5.37 1.81-10.62 2.55-16a123.57 123.57 0 0 0 1-22.5c-.34-7.45-1.31-14.85-2.35-22.23-.58-4.07-1.19-8.13-1.8-12.2-.09-.57-1.09-.44-1 .14z"/><path d="m249.68 490.05c17.57-15 36.74-30.61 59.73-32.62 3.9-.34 8.65.21 10.36 3.73 2.26 4.64-3.23 9.72-8.38 10.12a33.12 33.12 0 0 1 28.8-2.79 5.77 5.77 0 0 1 2.83 1.88c1.35 2-.11 4.87-2.28 5.88s-4.7.69-7.07.35c4.75-4.22 12.16-1.66 17.89 1.08a8.4 8.4 0 0 1 3.79 2.81c1.3 2.11.42 5-1.38 6.72s-4.28 2.46-6.69 3a65.26 65.26 0 0 1 -19.8 1.48c2.47-.29 5.08-.55 7.38.42s4.08 3.64 3.17 6c-1.08 2.77-4.79 3.14-7.76 3 3.18-1.74 7.11-.85 10.54.32 3.91 1.33 7.8 3 10.83 5.83s5.09 6.91 4.59 11c-.84 6.74-8.34 11-15.12 10.7s-12.93-3.9-18.74-7.4c4 1 8.12 2.51 10.88 5.6s3.68 8.17 1 11.35-7.19 3.26-11.15 2.74a51.71 51.71 0 0 1 -22.7-8.8c1.67-1.25 4.34.42 4.46 2.5s-1.67 3.91-3.68 4.48a11.7 11.7 0 0 1 -6.17-.35 46.31 46.31 0 0 1 -17.88-9.28 6.86 6.86 0 0 1 3.46 8.13 26.38 26.38 0 0 1 -15.38-.8"/><path d="m250 490.41c9.77-8.22 19.7-16.43 30.86-22.71a80.5 80.5 0 0 1 17.14-7.33 60 60 0 0 1 9.38-1.93 19.18 19.18 0 0 1 8.16.28c2.85.92 4.83 3.64 3.52 6.62s-4.59 4.81-7.64 5.1l.42 1.56a32.42 32.42 0 0 1 21.16-4.46 31.36 31.36 0 0 1 5.41 1.22c1.54.5 4 1.14 4.25 3.06a4 4 0 0 1 -2.37 3.71c-2 .91-4.35.56-6.43.26l.37 1.41c2.54-2.17 5.92-2.29 9.05-1.63a33.06 33.06 0 0 1 9.32 3.6c1.51.87 2.64 2.13 2.48 4a5.85 5.85 0 0 1 -2.78 4.3c-3 2-7.15 2.48-10.63 3a65 65 0 0 1 -14.22.44v1.7c3.33-.37 9.1-.79 9.87 3.71.64 3.78-4.58 4.05-7.08 4l.45 1.65c2.39-1.23 5.1-.94 7.62-.28a39.79 39.79 0 0 1 7.19 2.67c4.4 2.14 8.47 5.55 9.61 10.51a10.07 10.07 0 0 1 -4.57 10.6 16.41 16.41 0 0 1 -12.21 2.36c-5.65-1-10.67-4-15.53-7l-.71 1.7c3.68 1 7.51 2.25 10.2 5.07 2.32 2.43 3.57 6.57 1.75 9.64s-5.9 3.52-9.16 3.31a44.57 44.57 0 0 1 -11.55-2.55 51.24 51.24 0 0 1 -12.42-6.33v1.66a2 2 0 0 1 2.75.9c.67 1.19-.05 2.59-1 3.39-2.48 2.13-6.24.95-9 .11a44.91 44.91 0 0 1 -15.8-8.59l-1.22 1.58a5.9 5.9 0 0 1 3 7l.73-.73a26 26 0 0 1 -14.81-.83c-1.31-.47-1.88 1.62-.58 2.09a27.9 27.9 0 0 0 7.92 1.56 26 26 0 0 0 4.23-.13 12 12 0 0 0 3.92-.73c1.54-.79 1-4.16.53-5.46a7.85 7.85 0 0 0 -3.88-4.49c-1-.48-2.16.81-1.22 1.58a48.75 48.75 0 0 0 10.52 6.63c3.55 1.64 7.62 3.3 11.57 3.48 3.23.15 7.17-1.69 7.28-5.37.09-2.9-3.32-5.35-5.91-3.68a1 1 0 0 0 0 1.66c7.39 5.09 16.64 8.85 25.7 9.13 3.71.12 7.86-.77 10-4.14 2-3.22 1.3-7.59-.78-10.6-2.78-4-7.67-5.83-12.22-7a.93.93 0 0 0 -.71 1.7c8.72 5.23 19.92 11.13 29.59 4.57 3.81-2.58 6.22-6.77 5.61-11.44-.72-5.48-4.84-9.68-9.52-12.2a39.58 39.58 0 0 0 -9-3.47c-2.95-.75-6-.91-8.79.51a.89.89 0 0 0 .45 1.65c3.61.1 9.34-.81 8.84-5.69a6.38 6.38 0 0 0 -3.5-4.8c-2.51-1.26-5.44-1-8.13-.66a.85.85 0 0 0 0 1.7 67.84 67.84 0 0 0 14.66-.51c4-.59 8.94-1.21 12.14-4 2.62-2.28 3.6-6.57.86-9.15a17.18 17.18 0 0 0 -5-2.82 35.91 35.91 0 0 0 -5.44-1.94c-4-1-8.3-1-11.59 1.85a.84.84 0 0 0 .37 1.4c3.12.44 6.94.9 9.34-1.64 2-2.07 2.22-5.3-.29-7a15.33 15.33 0 0 0 -4.59-1.86 33.57 33.57 0 0 0 -5.17-1 34.58 34.58 0 0 0 -10.5.37 33.64 33.64 0 0 0 -11.27 4.3c-.66.4-.45 1.64.42 1.55 4.95-.48 11.64-5.26 9.27-11s-10.12-4.8-14.94-4.07c-14 2.11-26.5 9.19-37.73 17.43-6.47 4.75-12.59 9.94-18.68 15.18-.5.43.23 1.14.73.72z"/></g><path d="m386.15 509.44h-112.82c-5.18 0-10.4-.2-15.57 0h-.22a1.44 1.44 0 0 0 0 2.88h112.82c5.18 0 10.4.2 15.57 0h.22a1.44 1.44 0 0 0 0-2.88z"/><path d="m204.8 554.2a76.49 76.49 0 0 1 -13.1-36.48 7.1 7.1 0 0 1 .17-2.87 6.8 6.8 0 0 1 1.5-2.23c4.91-5.44 11-9.68 17-13.85q11.43-7.89 22.94-15.67a19 19 0 0 1 6.42-3.23c4.39-.94 8.84 1.31 12.41 4 13.4 10.27 19.82 27.91 19.35 44.79-.15 5.19-1.17 10.94-5.36 14.47-3.63 3.05-8.89 3.94-13.33 5.22-5.93 1.71-12 2.94-18 4.43-8 2-15.82 4-24 4.52-2 .13-4.7-.4-4.86-2.41" fill="#fff"/><path d="m205.37 553.87a77.31 77.31 0 0 1 -10-21.65 74.91 74.91 0 0 1 -2.37-11.68c-.21-1.76-.83-4.27.09-5.89a21 21 0 0 1 4-4.36c6.16-5.81 13.43-10.39 20.39-15.16q5.52-3.79 11.06-7.55l5.52-3.74a19.84 19.84 0 0 1 5.18-2.8c3.92-1.19 7.88.55 11.09 2.73a39.74 39.74 0 0 1 7.73 7.09 51.29 51.29 0 0 1 9.82 18.28 59.94 59.94 0 0 1 2.61 20.66 21 21 0 0 1 -2.53 9.76c-1.93 3.17-5.14 4.87-8.57 6-7.79 2.53-15.87 4.15-23.81 6.11-4.28 1.05-8.55 2.16-12.86 3.05-4.08.84-8.44 1.79-12.62 1.71-1.24 0-3-.26-3.21-1.74-.16-1.18-2-.68-1.79.5.46 3.39 4.94 3.19 7.43 3a104.28 104.28 0 0 0 13.73-2.27c9.29-2.08 18.59-4.3 27.78-6.8 3.66-1 7.48-1.77 10.78-3.72a14.73 14.73 0 0 0 6.44-8.18 33.17 33.17 0 0 0 1.35-10.77 64 64 0 0 0 -1.08-11.13 56.37 56.37 0 0 0 -8.13-20.68 47.39 47.39 0 0 0 -7-8.44 29.79 29.79 0 0 0 -9.79-6.6 12.72 12.72 0 0 0 -11.37 1.18c-4 2.4-7.88 5.26-11.77 7.91-7.66 5.22-15.53 10.27-22.81 16-1.77 1.39-3.48 2.84-5.11 4.39a23.37 23.37 0 0 0 -4 4.45c-1.07 1.77-.77 3.8-.55 5.75s.54 4 .92 6.06a76.33 76.33 0 0 0 9 23.92c1.06 1.82 2.2 3.59 3.4 5.32.49.69 1.62 0 1.15-.67z"/><path d="m150.6 463.43 3.27 6.45 1.53 3c.45.88 2 3 .6 3.7a.77.77 0 0 0 -.35.85c.86 2.61 1.83 5.48 1 8.23a5.45 5.45 0 0 1 -1.84 2.87c-.84.66-1.93.84-2.68 1.64s.41 1.81 1.09 1.09c.84-.9 2.21-1.12 3.11-2a7.45 7.45 0 0 0 1.78-3.17c.87-3-.1-6.15-1-9l-.34.84c2.66-1.25.5-4.44-.4-6.1q-2.43-4.44-4.88-8.86c-.31-.57-1.16-.06-.87.51z"/><path d="m141.38 472.76a3.27 3.27 0 0 0 -4.88.54 4 4 0 0 0 -.51 3 4.34 4.34 0 0 0 1.71 2.61 5.61 5.61 0 0 0 3.32 1 .79.79 0 0 0 0-1.58 3.61 3.61 0 0 1 -3.45-2 2.35 2.35 0 0 1 1.2-3.17 2 2 0 0 1 1.91.27.5.5 0 0 0 .7-.7z"/><path d="m141.05 475.81-1.1-.57a.51.51 0 0 0 -.7.19.53.53 0 0 0 -.05.39.53.53 0 0 0 .24.31l1.11.53a.51.51 0 0 0 .38 0 .52.52 0 0 0 .3-.22.53.53 0 0 0 .05-.39.48.48 0 0 0 -.23-.29z"/><path d="m150.07 466.44a6.68 6.68 0 0 0 -2.54 1.43.59.59 0 0 0 0 .81.54.54 0 0 0 .41.17.61.61 0 0 0 .41-.17h.06l.23-.18.23-.2s.09-.06 0 0l.12-.09.28-.19a7 7 0 0 1 1.15-.61.51.51 0 0 0 .22-.3.5.5 0 0 0 0-.32.49.49 0 0 0 -.59-.29z"/><path d="m150.12 471.24a.39.39 0 0 0 0 .15l.06.13a.54.54 0 0 1 0 .11v-.14a1.34 1.34 0 0 1 .07.27v-.16s0 .08 0 .12l.93-.53.13.09-.07-.06.1.13s-.05-.08-.07-.13l.06.16a.43.43 0 0 1 0-.11v.17a.14.14 0 0 1 0-.09.54.54 0 0 0 -.06-.25.46.46 0 0 0 -.13-.21.57.57 0 0 0 -.21-.13.54.54 0 0 0 -.25-.06h-.17a.61.61 0 0 0 -.28.16l-.11.14a.69.69 0 0 0 -.08.32.09.09 0 0 0 0 .07.83.83 0 0 0 0 .22.85.85 0 0 0 .11.26.58.58 0 0 0 .17.21 1.09 1.09 0 0 0 .17.13 1.21 1.21 0 0 0 .2.09.62.62 0 0 0 .33 0 .67.67 0 0 0 .27-.16.61.61 0 0 0 .16-.6c0-.1-.07-.2-.11-.3a1 1 0 0 0 -.08-.14c0-.08-.12-.16-.18-.24l-.06-.06a.42.42 0 0 0 -.18-.11.22.22 0 0 0 -.13 0h-.08a.36.36 0 0 0 -.21.05.39.39 0 0 0 -.17.11l-.08.11a.5.5 0 0 0 -.08.27z"/><path d="m332.68 278.29h25.88a31.06 31.06 0 0 1 31.06 31.06v78.65a0 0 0 0 1 0 0h-88a0 0 0 0 1 0 0v-78.65a31.06 31.06 0 0 1 31.06-31.06z"/><path d="m337.64 387.73 1.56-4.22c-3.68-1.72-6.64-5.3-6.85-9.36s2.87-8.24 6.92-8.55a8.63 8.63 0 0 1 -.41-4.54c.41-1.48 2-2.76 3.44-2.28s2 2.5 3.13 3.7c1.85 2 5.06 1.43 7.67.74a3.33 3.33 0 0 0 1.48-.66 3.75 3.75 0 0 0 .83-2c.46-2.12 2.2-4.56 4.24-3.84 1.66.59 2 2.74 2.49 4.42a3.18 3.18 0 0 0 .67 1.24 4.47 4.47 0 0 0 1.24.8 11.17 11.17 0 0 1 -.05 19.82 12 12 0 0 1 6.76 5.22" fill="#fff"/><path d="m338.07 388c.62-1.42 1.27-2.83 1.83-4.28a.73.73 0 0 0 -.33-.82c-3.34-1.65-6.26-4.85-6.45-8.73-.19-3.59 2.42-7.39 6.15-7.78a.78.78 0 0 0 .74-1 7.65 7.65 0 0 1 -.4-4.12c.37-1.23 1.78-2.39 3-1.44s1.64 2.89 3.1 3.87a7.29 7.29 0 0 0 5.12.8c1.5-.21 3.76-.44 4.68-1.82 1.07-1.61.68-4.14 2.73-5.12s2.71 2.28 3.14 3.64a3.93 3.93 0 0 0 1.26 2c.85.67 1.89 1 2.74 1.72a10.85 10.85 0 0 1 3.45 5.12 10.55 10.55 0 0 1 -5.24 12.28.79.79 0 0 0 .19 1.44 11.43 11.43 0 0 1 6.29 4.87c.54.86 1.92.06 1.37-.81a13.09 13.09 0 0 0 -7.24-5.58l.18 1.44a12 12 0 0 0 1.79-20.07c-1-.78-2.67-1.26-3.18-2.45-.74-1.73-.77-4-2.65-5s-3.56.18-4.57 1.66a8.56 8.56 0 0 0 -1.17 2.87 1.93 1.93 0 0 1 -1.37 1.66 11.35 11.35 0 0 1 -1.72.42 8.59 8.59 0 0 1 -3.67.13 4.33 4.33 0 0 1 -2.79-2.41c-1.07-1.78-2.74-3.42-4.94-2.19-2.77 1.56-2.27 4.9-1.57 7.48l.75-1a8.94 8.94 0 0 0 -7.7 8.63c-.17 4.68 3.22 8.75 7.27 10.68l-.34-.82c-.49 1.41-.9 2.85-1.34 4.28-.16.52.68.9.91.38z" fill="#fff"/><path d="m389.62 387.29h-86.62a4.66 4.66 0 0 0 -1.18 0h-.16l.73.72v-74.23c0-1.48 0-2.95 0-4.43a30.33 30.33 0 0 1 28.24-30.27c3.68-.25 7.42-.07 11.11-.07h14.76c5.43 0 10.65.7 15.58 3.17a30.59 30.59 0 0 1 14.83 16.35 33.43 33.43 0 0 1 2 12.05v77.42a.73.73 0 0 0 1.45 0v-75c0-2.12.06-4.27-.13-6.39a31.78 31.78 0 0 0 -29.23-28.95c-3.75-.29-7.58-.09-11.34-.09h-15.07a35.56 35.56 0 0 0 -15.59 3.08 31.91 31.91 0 0 0 -15.24 15.49 33.3 33.3 0 0 0 -2.88 14v77.86a.73.73 0 0 0 .72.72h84.4c1.13 0 2.32.1 3.45 0h.16a.72.72 0 0 0 .01-1.43z"/><path d="m337 277.57c-5.3 0-10.48-.09-15.57 1.68a30.61 30.61 0 0 0 -20.56 29.07v73.68c0 1.89-.1 3.82 0 5.72a2.26 2.26 0 0 1 0 .26.73.73 0 0 0 .72.72h5.54a.73.73 0 0 0 .72-.72v-67.34c0-4.16 0-8.32 0-12.48a29.46 29.46 0 0 1 23.86-28.68 30.33 30.33 0 0 1 5.29-.48.72.72 0 0 0 0-1.44 30.89 30.89 0 0 0 -29.48 22.44c-1.49 5.42-1.09 11.19-1.09 16.76v69.24a9.32 9.32 0 0 0 0 1.83 1.77 1.77 0 0 1 0 .23l.72-.72h-5.54l.73.72v-70.94c0-6-.46-12.2 1.42-18a29.19 29.19 0 0 1 22.94-19.72 46.24 46.24 0 0 1 7.8-.39h2.5a.72.72 0 0 0 0-1.44z"/><g fill="#18c4ff"><path d="m337 278.29h-5.53a29.87 29.87 0 0 0 -29.88 29.87v79.84h5.54v-79.84a29.87 29.87 0 0 1 29.87-29.87z"/><path d="m337 277.57c-5.3 0-10.48-.09-15.57 1.68a30.61 30.61 0 0 0 -20.56 29.07v73.68c0 1.89-.1 3.82 0 5.72a2.26 2.26 0 0 1 0 .26.73.73 0 0 0 .72.72h5.54a.73.73 0 0 0 .72-.72v-67.34c0-4.16 0-8.32 0-12.48a29.46 29.46 0 0 1 23.86-28.68 30.33 30.33 0 0 1 5.29-.48.72.72 0 0 0 0-1.44 30.89 30.89 0 0 0 -29.48 22.44c-1.49 5.42-1.09 11.19-1.09 16.76v69.24a9.32 9.32 0 0 0 0 1.83 1.77 1.77 0 0 1 0 .23l.72-.72h-5.54l.73.72v-70.94c0-6-.46-12.2 1.42-18a29.19 29.19 0 0 1 22.94-19.72 46.24 46.24 0 0 1 7.8-.39h2.5a.72.72 0 0 0 0-1.44z"/><path d="m644.07 388h-88v-78.65a31.06 31.06 0 0 1 31.07-31.06h25.86a31.05 31.05 0 0 1 31.06 31.06z"/></g><path d="m644.07 387.29h-86.67a4.58 4.58 0 0 0 -1.17 0h-.16l.73.72v-74.23c0-1.48 0-2.95 0-4.43a30.33 30.33 0 0 1 28.2-30.27c3.68-.25 7.42-.07 11.11-.07h14.89c5.43 0 10.65.7 15.58 3.17a30.59 30.59 0 0 1 14.83 16.35 33.43 33.43 0 0 1 2 12.05v77.42a.73.73 0 0 0 1.45 0v-75c0-2.12.06-4.27-.13-6.39a31.78 31.78 0 0 0 -29.21-28.9c-3.75-.29-7.58-.09-11.34-.09h-15.13a35.56 35.56 0 0 0 -15.58 3.08 32 32 0 0 0 -15.25 15.49 33.45 33.45 0 0 0 -2.87 14v77.81a.73.73 0 0 0 .72.72h84.4c1.13 0 2.32.1 3.45 0h.15a.72.72 0 0 0 0-1.43z"/><path d="m591.48 277.57c-5.3 0-10.48-.09-15.57 1.68a30.61 30.61 0 0 0 -20.56 29.07v73.68c0 1.89-.1 3.82 0 5.72a2.26 2.26 0 0 1 0 .26.73.73 0 0 0 .72.72h5.54a.73.73 0 0 0 .72-.72v-67.34c0-4.16 0-8.32 0-12.48a29.46 29.46 0 0 1 23.86-28.68 30.33 30.33 0 0 1 5.29-.47.72.72 0 0 0 0-1.44 30.89 30.89 0 0 0 -29.48 22.43c-1.49 5.42-1.1 11.19-1.1 16.76v69.24a10.17 10.17 0 0 0 0 1.83.89.89 0 0 1 0 .23l.73-.72h-5.54l.73.72v-70.94c0-6-.46-12.2 1.42-18a29.19 29.19 0 0 1 22.94-19.73 46.24 46.24 0 0 1 7.82-.39h2.52a.72.72 0 0 0 -.04-1.43z"/><path d="m591.48 278.29h-5.48a29.87 29.87 0 0 0 -29.88 29.87v79.84h5.54v-79.84a29.87 29.87 0 0 1 29.82-29.87z"/><path d="m382.32 513.88c4.1-.18 6.88-4.85 6.36-8.92-1-7.85-9-12.33-13.94-17.61-3.72-4-7-8.61-8.25-13.9-3.44-14.14 9-20.41 19.88-25 6.9-2.94 14.13-9.34 12.16-16.58-1.62-6-9-9.5-9.47-15.69-.42-5.92 5.67-10 10.95-12.69-3.66 2.61-5.05 8.45-2 11.77s10.05 1.19 9.84-3.31a4.22 4.22 0 0 1 3.92 4c0 1.32-.56 2.58-.75 3.89-.87 6 8.05 9.67 12.94 6.07s5.53-10.87 3.63-16.63-5.76-10.65-8.56-16-4.51-12-1.85-17.45c2.54-5.21 8.31-7.92 13.77-9.88s11.35-3.72 15.18-8.08 4.15-12.34-.93-15.13c5.79 1.49 9.83 7.44 9.94 13.42s-3.23 11.7-8 15.33c-3.7 2.83-8.35 4.68-10 9.53a5.55 5.55 0 0 0 1.39 5.91c3.16 2.84 7.4.15 8.78-3.22 2.18.73 2.52 3.76 1.77 5.94-1 2.77-3 5.31-1.71 8.45a6.62 6.62 0 0 0 8.64 3.34c5.89-2.31 7.46-8.71 8-14.49.46-4.92.57-10.16 3.28-14.3 3.75-5.73 11.13-7.5 17.48-10.07 15.42-6.23 28.2-21.74 26.33-38.28-.52-4.51-2.06-8.92-2-13.46a19.55 19.55 0 0 1 11.52-17.23c4.78-2.06 10.2-2.09 15.11-3.82s9.64-6.3 8.61-11.4c3.58 2.19 5 7 3.92 11.07-1.42 5.2-6.39 9-11.45 10.31a12.4 12.4 0 0 0 -4.68 2.18c-7.51 5.94-1.66 12.6 1.76 18.47a28.38 28.38 0 0 1 -3.5 32.51c-2.92 3.18-6.54 5.65-9.51 8.78-3.51 3.7-6.17 8.83-4.19 13.91a6.9 6.9 0 0 0 8.15 4.42c4.29-1.24 5.52-6.49 5.46-10.86 6 4.08 4.82 13.78.18 19.41s-11.53 8.89-16.84 13.89-8.94 13.44-4.85 19.49a10 10 0 0 0 18.31-6.97c3.75 4.93 2 12.11-1 17.51s-7.28 10.35-8.46 16.44c-.72 3.7.29 8.3 3.78 9.72a7.73 7.73 0 0 0 5.34-.11c6.51-2.22 10.21-9 12.55-15.49s4.16-13.51 9.09-18.3c4.52-4.4 11-6.21 15.89-10.19s7.54-12.36 2.57-16.24c6.43 3.64 9.11 12.67 5.72 19.24-2.13 4.11-6.08 7-8.84 10.68s-4 9.46-.72 12.69l5.92-4.63c2 9.39-6.32 17.8-14.75 22.38s-18.26 7.83-23.73 15.71c-1.26 1.81-2.23 4.27-1.06 6.14s5 .92 4.38-1.18c2.67 3.15.78 8.3-2.57 10.7s-7.65 2.95-11.65 4c-7.79 2-15.5 6.47-18.68 13.84a7.88 7.88 0 0 0 -.44 1.4c-.58 2.55 1.78 4.28 4.37 3.84a36.35 36.35 0 0 1 7.88-.37c1.43 7.15-8.24 13.35-14.07 17.73-13.89 10.42-33.93 15.09-50.22 9.07-6.53-2.41-10.4-3.8-17-5.9-7.34-2.33-15.25-1.61-22.92-1s-15.66 1.09-22.84-1.69-13.33-9.74-12.65-17.41c5-.9 21.7-.38 26.33.08" fill="#18c4ff"/><path d="m382.32 514.39c4.49-.24 7.41-4.86 7.21-9.09-.23-4.71-3.33-8.57-6.44-11.81-1.65-1.73-3.55-3.21-5.31-4.83a42.51 42.51 0 0 1 -5.34-5.88c-3.29-4.38-5.82-9.8-5.29-15.4.84-8.94 10.08-14 17.38-17.26 4.63-2.07 9.12-4.3 12.3-8.42 2.9-3.74 3.75-8.44 1.36-12.69s-7.61-7.33-8.41-12.38c-1-6.25 5.91-10.19 10.58-12.58l-.69-1.19c-4 3-6.13 10.44-1.21 13.74 3.72 2.49 10.23.21 10.19-4.68l-.81.81a3.46 3.46 0 0 1 2.94 2.32c.46 1.43-.3 2.89-.55 4.28a6.34 6.34 0 0 0 .93 4.76 10 10 0 0 0 8.73 4c9.18-.59 10.82-12.15 8.55-19.13-1.7-5.23-5-9.72-7.64-14.47s-5-10.27-3.77-15.73c2.32-10.52 15.43-11.74 23.44-15.8 4.3-2.18 8.07-5.54 9.07-10.45.81-4-.22-8.44-3.94-10.59l-.63 1.48a13.19 13.19 0 0 1 9 9.89c1.17 5-.68 10.25-3.85 14.13-2.95 3.59-7.19 5.33-10.52 8.43-2.91 2.71-5.1 7.47-2.15 11 3.36 4 8.8 1.2 10.57-2.83l-.92.38c1.38.55 1.64 2.26 1.5 3.57-.17 1.68-1.1 3.17-1.72 4.7-1.14 2.85-.92 6 1.49 8.14 4.59 4.06 11.07.85 13.75-3.78 3.3-5.7 2.38-12.48 3.77-18.69a14.77 14.77 0 0 1 5-8.48 30.59 30.59 0 0 1 8.69-4.51 94.45 94.45 0 0 0 8.79-3.56 46.83 46.83 0 0 0 8.05-5.11 43.3 43.3 0 0 0 12.12-14.57 32.26 32.26 0 0 0 3.46-17.52c-.4-4-1.67-7.89-2-11.91a18.41 18.41 0 0 1 2-10 18.72 18.72 0 0 1 7.63-7.79c3.78-2 8.16-2.43 12.3-3.33 3.69-.79 7.21-2.08 10-4.76a9.82 9.82 0 0 0 3.2-8.77l-1.13.97c4.24 2.73 4.82 8.59 2.46 12.75a14.72 14.72 0 0 1 -5.24 5.22c-2.16 1.31-4.51 1.71-6.79 2.68-4.13 1.76-7.3 5.73-6.51 10.36.73 4.31 3.81 7.79 5.79 11.55a27.68 27.68 0 0 1 -1.28 27.18c-3 4.68-7.63 7.68-11.49 11.53-3.48 3.48-6.46 8.25-5.64 13.37.78 4.85 5.5 8.94 10.5 7 4.48-1.77 5.55-7.27 5.51-11.55l-1.41.81c4.92 3.45 4.2 10.61 1.71 15.32-3.23 6.09-9.88 9.57-15.15 13.64-5 3.89-9.47 9-10.2 15.6a11.22 11.22 0 0 0 9.36 12.54 11 11 0 0 0 12.38-12l-1.69.46c3 4 2.28 9.19.53 13.55-1.86 4.63-5.15 8.53-7.49 12.91-2 3.73-3.54 8.09-2.44 12.34a7.2 7.2 0 0 0 9 5.46c8.93-2 12.74-11.87 15.39-19.54 1.58-4.56 3.16-9.32 6.25-13.11s7.67-5.91 11.93-8.26 8.11-5.16 10-9.85c1.53-3.82 1.46-8.49-1.94-11.29l-1.13 1.47a14.2 14.2 0 0 1 6.12 16.12c-2.14 6.8-9.69 10.1-11.85 17-1 3.24-.78 6.87 1.68 9.4a1 1 0 0 0 1.36 0l5.93-4.62-1.62-.43c2.17 11.12-9.34 18.87-17.85 23.09-4.61 2.29-9.38 4.4-13.6 7.4a29.34 29.34 0 0 0 -5.58 4.9c-1.57 1.85-3.23 4.13-3.21 6.67a3.7 3.7 0 0 0 4 3.94c1.88-.14 3.49-1.53 3-3.52l-1.79 1.03c1.31 1.67 1.08 4 .23 5.78a9.5 9.5 0 0 1 -4.79 4.5c-4.37 2-9.38 2.3-13.86 4.07a29.24 29.24 0 0 0 -10.94 7.2c-2.28 2.5-6.35 7.82-3.33 11.07 1.58 1.7 3.67 1.5 5.75 1.26a27.52 27.52 0 0 1 6.6-.2l-1-.78c.77 4.3-2.93 8.07-5.84 10.69a85.82 85.82 0 0 1 -11.14 8.38 58 58 0 0 1 -29.68 9.15 45.35 45.35 0 0 1 -14.86-2.11c-5.16-1.68-10.2-3.71-15.37-5.4a50 50 0 0 0 -8.78-2.24 52.11 52.11 0 0 0 -8.65-.38c-6 .18-11.94 1-17.93 1.07-6.28 0-12.83-.86-18.08-4.56-4.55-3.21-7.91-8.35-7.48-14.07l-.68.9c4.3-.76 8.88-.53 13.22-.48s8.6.09 12.86.51c1.09.1 1.08-1.6 0-1.7-4.38-.43-8.8-.52-13.19-.59s-9-.28-13.39.46a.94.94 0 0 0 -.68.9c-.38 5 1.91 9.72 5.41 13.2a25.75 25.75 0 0 0 14.71 6.85c12.62 1.83 25.61-2.85 38.05.67 5.6 1.59 11.1 3.66 16.56 5.67a49.37 49.37 0 0 0 15.84 3.19 59.19 59.19 0 0 0 31.27-8.42c2.47-1.46 4.75-3.16 7.06-4.85 2.16-1.6 4.36-3.16 6.4-4.92 3.66-3.14 7.32-7.31 6.4-12.49a1.08 1.08 0 0 0 -1-.78 25.38 25.38 0 0 0 -5.51.07c-1.67.15-4.24 1-5.42-.66s1-4.75 2-6.18a21.26 21.26 0 0 1 4.62-4.61 33 33 0 0 1 12.06-5.38c4.31-1 9.27-1.71 12.57-5 3-3 4.3-7.83 1.5-11.34-.71-.89-2 .09-1.79 1 .14.59-.65.8-1.1.83a1.46 1.46 0 0 1 -1.68-1.31c-.51-2.4 1.8-5 3.28-6.61 3.11-3.36 7.07-5.71 11.09-7.8 8-4.16 16.55-7.55 22.09-15.11a17.21 17.21 0 0 0 3.45-13.59 1 1 0 0 0 -1.62-.43l-5.92 4.63h1.36c-2.42-2.48-1.92-6.29-.54-9.18 1.61-3.38 4.61-5.83 7.05-8.58a17.44 17.44 0 0 0 4.56-8.57 16.26 16.26 0 0 0 -1-8.78 15.31 15.31 0 0 0 -6.46-7.62c-.89-.52-2 .78-1.13 1.47 3 2.48 2.79 6.6 1.28 9.89-1.82 4-5.24 6.28-8.94 8.33-3.91 2.16-8.07 4.07-11.22 7.34-3 3.09-4.81 7-6.31 11-2.82 7.5-4.88 17.05-12.51 21.26-2.06 1.14-4.83 2-7.08.88a6.05 6.05 0 0 1 -2.92-4.41c-.89-4.35 1.26-8.73 3.43-12.38 2.56-4.32 5.63-8.33 7.2-13.17 1.41-4.36 1.55-9.35-1.25-13.2-.47-.64-1.79-.53-1.69.46a9.19 9.19 0 0 1 -11.65 9.89 9 9 0 0 1 -6.18-6.23 13 13 0 0 1 1-8.59c5.15-11.73 20.74-14.33 25-26.64 1.84-5.29 1.32-11.72-3.57-15.15a.94.94 0 0 0 -1.41.81c0 3.76-.86 9.33-5.38 10.09a5.9 5.9 0 0 1 -5.8-2.79 9.14 9.14 0 0 1 -.68-7.69c1.67-5.18 6.3-8.56 10.22-12a30.25 30.25 0 0 0 8.3-11 29.34 29.34 0 0 0 -1.23-25.42c-2-3.54-5.25-7.16-5.51-11.39a7.4 7.4 0 0 1 3-6.13c2.08-1.74 4.62-2 7-3 4.42-1.79 8.41-5.37 9.69-10.09a10.93 10.93 0 0 0 -4.29-12c-.66-.44-1.34.27-1.22.94.6 3.5-1.7 6.58-4.43 8.49-2.91 2.05-6.41 2.75-9.85 3.4s-6.95 1.24-10.11 2.86a19.94 19.94 0 0 0 -6.72 5.69 20.5 20.5 0 0 0 -3.77 8.14 25.66 25.66 0 0 0 .3 10.14c.69 3.58 1.53 7.1 1.46 10.77a30.29 30.29 0 0 1 -1.58 8.95c-4 12-14.47 21-26.08 25.42-5.5 2.08-11.71 3.92-15.47 8.75-4.26 5.47-3.37 12.6-4.57 19-.58 3.12-1.64 6.33-4 8.55s-6.42 3.35-9.19.95c-3.53-3.06-.53-6.75.44-10.16.71-2.5.2-5.6-2.45-6.64a.81.81 0 0 0 -.92.37 6.37 6.37 0 0 1 -4.48 4c-2.56.41-4.53-1.95-4.5-4.37.06-4.58 4.84-7.26 8.14-9.49 7.16-4.84 12.5-13.66 9.15-22.4a14.58 14.58 0 0 0 -9.53-9.05.81.81 0 0 0 -.62 1.48c3.49 2 4 6.46 2.86 10-1.34 4.29-5.19 6.94-9.09 8.74-7.7 3.55-18.39 4.94-22.31 13.6-4.43 9.76 2.94 19.32 7.52 27.4 2.39 4.21 4.26 8.72 3.88 13.65-.29 3.81-2.25 8.31-6.26 9.42-3.42.95-8.41-.66-9.42-4.41-.61-2.31 1.07-4.48.52-6.79a5.15 5.15 0 0 0 -4.64-3.84.8.8 0 0 0 -.8.8c.06 3.7-5.11 5.22-7.82 3.38-3.92-2.68-2-8.86 1.14-11.25a.69.69 0 0 0 -.69-1.19c-4.05 2.12-8.66 4.87-10.52 9.27s.07 8.12 2.79 11.44c2.95 3.6 7 7.18 6 12.35s-6.07 8.95-10.55 11.14c-7.43 3.64-16.8 6.48-20.85 14.4-4.9 9.58 1.12 20.3 7.84 27.23 3.68 3.8 8.48 6.77 11.45 11.21 1.46 2.2 2.53 4.94 2.06 7.61-.49 2.84-2.52 5.57-5.54 5.87-.63.06-.66 1 0 1z" fill="#18c4ff"/><path d="m151.21 482.55v-.05l-.05.06.06-.07.14-.16v-.06l-.05.08c.1-.09.17-.2.28-.29s-.09.06 0 0l.07-.05.17-.1a2 2 0 0 1 .36-.18l-.17.07a2.23 2.23 0 0 1 .56-.16h-.19a1.74 1.74 0 0 1 .51 0h-.19.13a.72.72 0 0 0 .81-1.05.71.71 0 0 0 -.43-.33 2.8 2.8 0 0 0 -1.08 0 2.52 2.52 0 0 0 -.84.32 2.77 2.77 0 0 0 -.74.71 1.7 1.7 0 0 0 -.35.8.53.53 0 0 0 .31.62.52.52 0 0 0 .65-.22z"/><path d="m141 473.11c.33 0 1.19-.31 1.52-.31a2.83 2.83 0 0 1 .28-2.61 14.54 14.54 0 0 1 1.76-2.09 13.34 13.34 0 0 0 3.28-7.52c1 1.79 3.86 2.05 4.45 4a10.4 10.4 0 0 0 1.59-1.79 3 3 0 0 0 .49-1c.34-1.37-1-2.56-2.19-3.3a23.5 23.5 0 0 0 -7.5-3.16 12.83 12.83 0 0 0 -8 .81 6.12 6.12 0 0 0 -3 2.73 4.56 4.56 0 0 0 -3.18.61 10.43 10.43 0 0 0 -4.37 4.5c-1.66 3.33-1.41 7.27-2.44 10.84a15.35 15.35 0 0 1 -2.34 4.79c-1.66 2.29-5.29 5.78-2.52 8.62a9.59 9.59 0 0 0 2.06 1.37c1.61 1 1.91 2.87 3.11 4.19a4.22 4.22 0 0 0 4.8 1.07 7.5 7.5 0 0 1 3.88-.82c1.36.17 2.46.89 3.89.84a3.39 3.39 0 0 0 2.38-1c.43-.45.62-1.09 1-1.55.63-.66 1.29-.52 2.13-.76a3.82 3.82 0 0 0 2.38-2.42 6 6 0 0 0 -.37-5.09c-1-1.67-2.78-2.95-3.16-5-1.78.67-3 .52-4-1.06a4.38 4.38 0 0 1 .44-5.26c1-1.09 3-1.45 3.91-.25"/><path d="m141 473.6c.51-.05 1-.23 1.52-.27a.54.54 0 0 0 .51-.67c-.42-1.41.59-2.54 1.48-3.5a16.46 16.46 0 0 0 2-2.55 14.37 14.37 0 0 0 2-6l-1.3.35a5.61 5.61 0 0 0 2 1.81c.87.54 2 1 2.41 2a.72.72 0 0 0 1.18.31c1.66-1.52 3.29-3.58 1.6-5.69s-4.5-3.23-6.81-4.07c-4.57-1.67-12-1.86-14.59 3.17l.91-.37c-2.75-.51-5.43 1.38-7.11 3.43-1.88 2.3-2.52 5.11-2.94 8-.47 3.26-1 6.37-2.83 9.17-1.32 2-3.31 3.73-3.87 6.14a4.14 4.14 0 0 0 .36 3c.68 1.24 1.86 1.76 3 2.5s1.6 2.22 2.38 3.35a5.35 5.35 0 0 0 3 2.2 5.25 5.25 0 0 0 3.16-.2 10.1 10.1 0 0 1 2.78-.82 7.69 7.69 0 0 1 2.59.5 5.49 5.49 0 0 0 3.87 0 3.85 3.85 0 0 0 1.28-.86c.55-.58.75-1.53 1.53-1.85a15.1 15.1 0 0 0 2.13-.61 4.44 4.44 0 0 0 1.34-1.21 6.75 6.75 0 0 0 -.26-7.82c-1-1.31-2.3-2.36-2.62-4.07a.69.69 0 0 0 -.86-.49c-.92.27-1.84.58-2.65-.13a3.43 3.43 0 0 1 -1.11-2.61c0-1.62 2.1-4.55 3.76-2.63.63.72 1.67-.34 1-1.06a3.19 3.19 0 0 0 -3.83-.57 4.58 4.58 0 0 0 -2.41 3.55 5 5 0 0 0 1.5 4.36 3.67 3.67 0 0 0 4.06.44l-.86-.49c.61 2.18 2.44 3.51 3.39 5.48 1.12 2.33.24 5.61-2.46 6.15a3.11 3.11 0 0 0 -2.18 1.3c-.41.61-.63 1.2-1.34 1.56a3.5 3.5 0 0 1 -2.51.09 12.1 12.1 0 0 0 -3.19-.67 13.41 13.41 0 0 0 -3.77 1 3.46 3.46 0 0 1 -3.41-.73c-.91-.83-1.29-2.07-2-3.06a6 6 0 0 0 -2.09-1.82c-1.13-.65-2.25-1.5-2.12-2.95.19-2 2-3.75 3.16-5.28a16.69 16.69 0 0 0 3-6.57c.64-3 .61-6.19 1.86-9 1-2.35 3.92-5.66 6.82-5.12a.84.84 0 0 0 .91-.37c2.07-3.9 7.89-3.86 11.54-2.79a25.47 25.47 0 0 1 5.68 2.57c.81.49 2 1.18 2 2.24s-1.14 2.09-1.85 2.76l1.18.31c-.82-2.2-3.38-2.32-4.53-4.16a.7.7 0 0 0 -1.3.35 12.9 12.9 0 0 1 -3.33 7.32c-1.35 1.49-2.69 3.08-1.75 5.16l.32-.77c-.51.08-1 .28-1.51.35s-.42 1 .13 1z"/><path d="m787.81 462.92c-1.62 3-3.25 5.9-4.87 8.86-.89 1.65-3 4.85-.41 6.1l-.34-.84c-1.05 3.22-2.1 6.76-.68 10a6.52 6.52 0 0 0 2.64 3.11c1.21.7 2.61 1.09 3.87 1.71.88.44 1.66-.88.77-1.32-2.2-1.09-4.69-1.52-5.83-3.95-1.4-2.94-.28-6.29.67-9.19a.75.75 0 0 0 -.34-.84c-1.43-.68.13-2.82.59-3.72l1.53-3 3.27-6.45c.3-.57-.55-1.08-.87-.51z"/><path d="m798.61 473.46a1.9 1.9 0 0 1 1.64-.34 2 2 0 0 1 1.4 1.05 2.75 2.75 0 0 1 -1 3.49 4.13 4.13 0 0 1 -2.35.66.79.79 0 0 0 0 1.58 5 5 0 0 0 4.94-3.3 4.1 4.1 0 0 0 -.26-3 3.18 3.18 0 0 0 -2.22-1.63 3 3 0 0 0 -2.82.79.5.5 0 0 0 .7.7z"/><path d="m798.73 476.66 1.12-.53a.55.55 0 0 0 .23-.31.48.48 0 0 0 -.05-.39.51.51 0 0 0 -.3-.24.62.62 0 0 0 -.4.05l-1.1.57a.5.5 0 0 0 -.22.29.49.49 0 0 0 0 .39.47.47 0 0 0 .29.22.55.55 0 0 0 .38 0z"/><path d="m787.67 468.94.31-.16.12-.06h.08a4.84 4.84 0 0 1 .6-.22c.41-.14.84-.22 1.26-.32a.57.57 0 0 0 .42-.63.56.56 0 0 0 -.57-.5 4.36 4.36 0 0 0 -.8.16l-.62.23a8.39 8.39 0 0 0 -1.3.67.5.5 0 0 0 -.18.68.51.51 0 0 0 .68.18z"/><path d="m788.63 470.7h-.15a.56.56 0 0 0 -.25.14l-.06.06-.19.24a.61.61 0 0 0 -.07.14 1.57 1.57 0 0 0 -.12.3.64.64 0 0 0 .16.6.74.74 0 0 0 .27.16.62.62 0 0 0 .33 0 1.21 1.21 0 0 0 .2-.09.76.76 0 0 0 .17-.13.61.61 0 0 0 .18-.21 2 2 0 0 0 .11-.26 1.36 1.36 0 0 0 0-.29.54.54 0 0 0 -.06-.25.46.46 0 0 0 -.15-.11.57.57 0 0 0 -.21-.13.54.54 0 0 0 -.25-.06h-.17a.61.61 0 0 0 -.28.16l-.11.14a.69.69 0 0 0 -.08.32v.09-.17.11l.06-.16a.33.33 0 0 1 -.07.13l.1-.13-.07.06.13-.09.93.53a.49.49 0 0 1 0-.12v.16a.9.9 0 0 1 .07-.27l-.06.14a.54.54 0 0 1 0-.11.56.56 0 0 0 0-.51.5.5 0 0 0 -.11-.17.57.57 0 0 0 -.38-.16z"/><g fill="#18c4ff"><circle cx="384.52" cy="435.65" r="4.7"/><path d="m387.77 435.65v.4s0 .05 0 0a6.21 6.21 0 0 1 -.14.62 3.62 3.62 0 0 1 -.13.35c0-.06.12-.23 0 0s-.24.42-.37.63.12-.13 0 .05l-.21.22-.17.17s-.35.29-.09.09a4.45 4.45 0 0 1 -.51.33 2.39 2.39 0 0 1 -.22.12c-.15.07-.15.07 0 0l-.18.06a4.5 4.5 0 0 1 -.6.17c-.08 0-.36.05-.06 0h-.32c-.22 0-.44 0-.66 0s.33.07-.06 0l-.37-.08-.35-.12c-.07 0-.24-.12 0 0a4.63 4.63 0 0 1 -.54-.29l-.26-.17c-.18-.14.23.22 0 0s-.35-.33-.51-.52c.17.2 0 .05 0 0a3.28 3.28 0 0 1 -.2-.31l-.12-.21s-.19-.41-.06-.11a4.1 4.1 0 0 1 -.2-.59c0-.08 0-.17-.05-.25s0-.17 0 0c0-.06 0-.12 0-.19a3.88 3.88 0 0 1 0-.59c0-.05.07-.46 0-.13 0-.08 0-.16 0-.25s.12-.4.18-.6c.12-.37-.14.23.05-.11l.18-.32a2.33 2.33 0 0 1 .17-.26c0-.07.22-.27 0-.05a3.51 3.51 0 0 1 .42-.44s.3-.26.13-.13.16-.11.15-.1a5.19 5.19 0 0 1 .65-.37c-.06 0-.26.09 0 0s.23-.09.35-.12l.25-.06s.4-.07.18 0 .2 0 .2 0h.32.33c.34 0-.17-.06.12 0s.49.13.73.21-.15-.09.06 0l.38.2.2.14.2.14.43.44c.27.27-.14-.23.08.09l.2.31c.06.1.11.21.17.32s-.05-.2.06.11.14.48.2.73c0 .06 0 .28 0 0a4.67 4.67 0 0 1 0 .52 1.45 1.45 0 1 0 2.89 0 6.24 6.24 0 0 0 -4.07-5.77 6.12 6.12 0 0 0 -6.74 1.8 6.14 6.14 0 1 0 10.81 4 1.46 1.46 0 0 0 -1.44-1.44 1.48 1.48 0 0 0 -1.46 1.36z"/><circle cx="548.66" cy="485.38" r="2.35"/><path d="m549.56 485.38v.32l.05-.38a2.43 2.43 0 0 1 -.17.6l.15-.34a2.87 2.87 0 0 1 -.32.53l.23-.3a2.87 2.87 0 0 1 -.39.39l.29-.22a2.75 2.75 0 0 1 -.52.31l.34-.15a2.16 2.16 0 0 1 -.6.17l.38-.05a2.36 2.36 0 0 1 -.65 0l.39.05a2.22 2.22 0 0 1 -.61-.17l.35.15a2.54 2.54 0 0 1 -.53-.31l.29.22a2.87 2.87 0 0 1 -.39-.39l.23.3a2.87 2.87 0 0 1 -.32-.53l.15.34a2.43 2.43 0 0 1 -.17-.6v.38a2.36 2.36 0 0 1 0-.65v.39a2.64 2.64 0 0 1 .17-.61l-.15.35a2.58 2.58 0 0 1 .32-.53l-.23.29a3.59 3.59 0 0 1 .39-.39l-.29.23a2.17 2.17 0 0 1 .53-.31l-.35.14a2.64 2.64 0 0 1 .61-.17l-.39.05a3.53 3.53 0 0 1 .65 0l-.38-.05a2.56 2.56 0 0 1 .6.17l-.34-.14a2.31 2.31 0 0 1 .52.31l-.29-.23a3.59 3.59 0 0 1 .39.39l-.23-.29a2.58 2.58 0 0 1 .32.53l-.15-.35a2.64 2.64 0 0 1 .17.61l-.05-.39v.33a1.45 1.45 0 0 0 2.89 0 3.89 3.89 0 0 0 -2.57-3.59 3.79 3.79 0 0 0 -4.07 1.09 4 4 0 0 0 -.93 2.27 3.65 3.65 0 0 0 .51 2.16 3.77 3.77 0 0 0 1.58 1.46 4 4 0 0 0 2.49.31 3.61 3.61 0 0 0 2-1.18 4 4 0 0 0 1-2.52 1.45 1.45 0 0 0 -2.89 0z"/><circle cx="368.26" cy="444.11" r="2.35"/><path d="m369.16 444.11v.32l.05-.38a2.43 2.43 0 0 1 -.17.6l.15-.34a2.87 2.87 0 0 1 -.32.53l.23-.3a2.4 2.4 0 0 1 -.39.39l.29-.22a2.75 2.75 0 0 1 -.52.31l.34-.14a2.41 2.41 0 0 1 -.6.16l.38-.05a2.36 2.36 0 0 1 -.65 0l.39.05a2.61 2.61 0 0 1 -.61-.16l.35.14a2.54 2.54 0 0 1 -.53-.31l.29.22a2.4 2.4 0 0 1 -.39-.39l.23.3a2.87 2.87 0 0 1 -.32-.53l.15.34a2.43 2.43 0 0 1 -.17-.6l.05.38a3.53 3.53 0 0 1 0-.65l-.05.39a2.64 2.64 0 0 1 .17-.61l-.15.35a2.87 2.87 0 0 1 .32-.53l-.23.29a2.79 2.79 0 0 1 .39-.38l-.29.22a2.17 2.17 0 0 1 .53-.31l-.35.14a3.25 3.25 0 0 1 .61-.17l-.39.06a2.36 2.36 0 0 1 .65 0l-.38-.06a3 3 0 0 1 .6.17l-.34-.14a2.31 2.31 0 0 1 .52.31l-.29-.22a2.79 2.79 0 0 1 .39.38l-.23-.29a2.87 2.87 0 0 1 .32.53l-.15-.35a2.64 2.64 0 0 1 .17.61l-.05-.39v.33a1.45 1.45 0 0 0 2.89 0 3.89 3.89 0 0 0 -2.57-3.59 3.79 3.79 0 0 0 -4.07 1.09 4.05 4.05 0 0 0 -.93 2.27 3.72 3.72 0 0 0 .52 2.12 3.77 3.77 0 0 0 1.58 1.46 4 4 0 0 0 2.49.31 3.55 3.55 0 0 0 2-1.18 4 4 0 0 0 1-2.52 1.45 1.45 0 0 0 -2.89 0z"/><path d="m371.62 429.47h-2l-.22-1.75 2-.51a1 1 0 0 0 -.53-.18 1.14 1.14 0 0 0 -.58 0 1.64 1.64 0 0 0 -.86.66l-.15.35a1.4 1.4 0 0 0 0 .76l.15.35a1.44 1.44 0 0 0 .52.52 1.11 1.11 0 0 0 .53.17 1.14 1.14 0 0 0 .58 0l.34-.14a1.44 1.44 0 0 0 .52-.52l.15-.35a1.1 1.1 0 0 0 0-.57.65.65 0 0 0 -.1-.36 1 1 0 0 0 -.3-.47 1.08 1.08 0 0 0 -.46-.3 1.07 1.07 0 0 0 -.56-.12l-.38.05a1.48 1.48 0 0 0 -.64.37 1 1 0 0 0 -.29.47 1 1 0 0 0 -.13.55 1.08 1.08 0 0 0 .13.56 1 1 0 0 0 .29.46l.3.23a1.39 1.39 0 0 0 .72.19l.39-.05a1.44 1.44 0 0 0 .58-.37z"/></g><path d="m785.67 479.91a1.86 1.86 0 0 1 1.9.31 3.1 3.1 0 0 1 1.12 1.21 1.71 1.71 0 0 1 0 1.6.69.69 0 0 1 -.23.25.65.65 0 0 1 -.3.09 4.4 4.4 0 0 1 -.73.05 1.29 1.29 0 0 1 -.95-.33 1.2 1.2 0 0 1 -.24-.58 4.49 4.49 0 0 1 0-2"/><path d="m786 480.47h.1s.12-.05 0 0h.24c-.1 0 0 0 0 0h.14s.24.09.1 0a.76.76 0 0 1 .18.09 4.64 4.64 0 0 1 .42.25l.09.07s.08.07 0 0l.09.07a2.65 2.65 0 0 1 .33.34v.06c.07.08-.07-.11 0 0s.07.1.1.16l.11.19c.07.14 0 0 0 0a.57.57 0 0 1 0 .14l.06.21c0 .09 0-.06 0-.07a.49.49 0 0 0 0 .12 1.7 1.7 0 0 1 0 .22v-.05s0 .12 0 .14v.1-.06s-.1.19-.11.18-.11.06 0 0 .17-.05.05 0h-.11c.12-.05.12 0 0 0h-.73c-.14 0 0 0 0 0h-.2c-.11 0 0 0 .06 0h-.09c0-.05 0-.05 0 0v-.07c-.06-.08 0 .17 0 0a2.5 2.5 0 0 1 -.07-.26s0-.08 0-.12a.17.17 0 0 1 0-.07c0-.06 0 0 0 .07a.74.74 0 0 1 0-.26c0-.11 0-.22 0-.33a2.44 2.44 0 0 1 0-.27.62.62 0 0 1 0-.13s0-.22 0-.08 0 0 0 0v-.16a1 1 0 0 0 -.1-.8.85.85 0 0 0 -1.16-.3 1 1 0 0 0 -.46.62 4.29 4.29 0 0 0 -.07.5 3.66 3.66 0 0 0 0 .66 4.36 4.36 0 0 0 .22 1.43 1.79 1.79 0 0 0 1.21 1.15 3.74 3.74 0 0 0 1.49 0 1.55 1.55 0 0 0 1.24-.8 2.53 2.53 0 0 0 .22-1.53 3.34 3.34 0 0 0 -1.45-2.12 2.59 2.59 0 0 0 -2.82-.38.65.65 0 0 0 -.24.88.67.67 0 0 0 .89.23z"/><path d="m798.1 472.78-2-1a16.63 16.63 0 0 1 1.41-2.63 1.56 1.56 0 0 0 .34-.78 1.74 1.74 0 0 0 -.23-.72 7.83 7.83 0 0 1 .31-7.17c-1.12.35-2.1 1.83-8.08 2.19a6.86 6.86 0 0 1 -5.4-2.25.66.66 0 0 1 .24-1l1.13-.47a12.54 12.54 0 0 1 -2.18-2.42 1.1 1.1 0 0 1 .77-1.7 7.13 7.13 0 0 1 2.35 0 8.38 8.38 0 0 1 -2-1.6 1.19 1.19 0 0 1 -.41-.86c0-.55.72-.78 1.26-.85 4.7-.56 9.25 1.62 13.41 3.88a1.43 1.43 0 0 0 .49.21 1.85 1.85 0 0 0 .62 0c3-.36 5.88 1.47 8.27 3.38a17.41 17.41 0 0 1 4.32 4.58c.76 1.32 1.11 2.85 1.75 4.23a10.72 10.72 0 0 1 1.37 4.49c0 2.35-1.57 4-2.62 6s-2.21 4-3.4 5.89a4.31 4.31 0 0 1 -1.13 1.44 2.79 2.79 0 0 1 -1.57.29 12.4 12.4 0 0 1 -3.35-.63 2.91 2.91 0 0 1 -2.08-1.91c-.5-1-1-2.06-1.4-3.11a.85.85 0 0 1 -.09-.41c0-.34.45-.47.77-.58a3.58 3.58 0 0 0 2.14-2.39 4.46 4.46 0 0 0 -.42-3.22 3.66 3.66 0 0 0 -1.93-1.77 2.34 2.34 0 0 0 -2.46.53"/><path d="m798.41 472.24-2-1.05.27 1c.72-1.52 2.23-3 1.62-4.72a7.51 7.51 0 0 1 .24-6.57.79.79 0 0 0 -.88-1.14l-.45.14a.78.78 0 0 0 .42 1.5l.89-.28c1-.29.55-1.79-.41-1.5-1.53.47-2.8 1.39-4.39 1.77a12 12 0 0 1 -6 .28 5.28 5.28 0 0 1 -2.54-1.51c-.37 0-.43 0-.2-.06l.39-.16.56-.24a.81.81 0 0 0 .35-1.34 14.29 14.29 0 0 1 -1.62-1.68c-.34-.44-.77-.71.12-1.12a4.2 4.2 0 0 1 1.66.07.81.81 0 0 0 .63-1.48 8.93 8.93 0 0 1 -1.34-1c-.42-.39-.77-.53-.24-.75a8 8 0 0 1 3.44 0 22.39 22.39 0 0 1 6.42 2.1c1.57.74 3.13 2.06 4.92 1.93a9.47 9.47 0 0 1 5.94 2 22.28 22.28 0 0 1 4.75 4.18c1.36 1.67 1.83 3.68 2.68 5.61.95 2.15 1.7 4.12.59 6.37-.89 1.82-2.06 3.56-3.06 5.32-.64 1.13-1.3 2.24-2 3.35a5.32 5.32 0 0 1 -.95 1.43c-.53.42-1.59.24-2.21.15-1.16-.17-2.64-.4-3.32-1.45a12.9 12.9 0 0 1 -1.68-3.82l-.1.71c.15-.34 1.24-.66 1.57-.94a4.67 4.67 0 0 0 1.2-1.68 5.17 5.17 0 0 0 -.08-4c-1-2.37-3.89-3.85-6-1.9-.86.78.42 2.06 1.27 1.28 1.66-1.51 3.34 1.13 3.41 2.59a2.89 2.89 0 0 1 -.79 2.18c-.55.55-1.4.58-1.91 1.15-.81.91 0 2.17.42 3.1.61 1.4 1.15 3 2.61 3.77 2 1 5.79 1.84 7.37-.26 2-2.66 3.36-5.85 5.1-8.68 1.62-2.64 2.05-5.08.81-8s-2.08-5.72-4.13-8a22.53 22.53 0 0 0 -7.27-5.39 9.07 9.07 0 0 0 -4-.82 3 3 0 0 1 -1.88-.46c-.93-.49-1.86-1-2.82-1.4-3.11-1.42-6.54-2.54-10-2.17-1 .11-2.25.49-2.3 1.69-.06 1.4 1.77 2.53 2.78 3.16l.63-1.48c-1.44-.22-3.71-.49-4.25 1.3-.48 1.6 1.48 3.21 2.52 4.13l.36-1.34c-1.16.48-2.9 1.24-1.79 2.77 1.42 1.95 4.23 2.69 6.5 2.53a18.2 18.2 0 0 0 5.88-1.22 23.31 23.31 0 0 1 2.38-1.12l-.41-1.5-.9.28.42 1.5.44-.14-.87-1.14a8.79 8.79 0 0 0 -1 5.71c.13.8.93 2.11.67 2.85a12.17 12.17 0 0 1 -.84 1.41 15.2 15.2 0 0 0 -.7 1.53.75.75 0 0 0 .52.9l2.06.84c.65.26 1.08-.8.47-1.13z"/><path d="m150.19 499.66a45.46 45.46 0 0 1 3.06-8.41.77.77 0 1 0 -1.42-.6 49.35 49.35 0 0 0 -2.61 8.74c-.12.63.8.9 1 .27z"/><path d="m136.9 497.41c.85-1.36 1.6-2.8 2.33-4.23a12.9 12.9 0 0 0 1.64-4.39.66.66 0 0 0 -.65-.65.67.67 0 0 0 -.66.65 13.08 13.08 0 0 1 -1.58 4c-.65 1.35-1.38 2.68-2 4.05a.53.53 0 0 0 .91.53z"/><path d="m167.44 503.86c-8.44-6.32-18.22-7-27.37-7.75-4.49-.39-9-.78-13.5 0s-8.86 2.74-11.6 6.33c-2.94 3.85-3.58 9-3.7 13.8a82.73 82.73 0 0 0 .75 13.16c.6 4.31 1.45 9-.85 12.74-1.52 2.43-4.34 4.3-4.47 7.16-.12 2.67 2.21 4.76 4.44 6.24 12.7 8.45 28.49 11.21 43.73 10.69a13.48 13.48 0 0 0 5.78-1.1c2.78-1.41 4.35-4.47 5.09-7.5s.8-6.19 1.52-9.22c1.12-4.68 3.75-8.85 5.39-13.38a33.4 33.4 0 0 0 -2.4-27.58 12.17 12.17 0 0 0 -2.81-3.56"/><path d="m167.74 503.35c-6.27-4.81-13.8-6.59-21.52-7.46-4-.45-8.12-.87-12.19-1a30.36 30.36 0 0 0 -12.19 1.6 17 17 0 0 0 -8.08 6.17 21.75 21.75 0 0 0 -3.17 10.34 70.8 70.8 0 0 0 .21 13.26c.39 4 1.54 8.15.85 12.14-.62 3.66-3.93 5.61-5.34 8.86s.53 6.09 3 8c6 4.72 13.74 7.63 21.06 9.44a89.23 89.23 0 0 0 23.63 2.4c3.66-.1 7.29-.47 9.79-3.47s3-6.58 3.48-10.17a37.38 37.38 0 0 1 1.32-6.74 51.58 51.58 0 0 1 2.42-5.86 44.55 44.55 0 0 0 3.83-11 34.39 34.39 0 0 0 -3.6-22.05 14.72 14.72 0 0 0 -3.32-4.42c-.7-.59-1.71.41-1 1 2.76 2.35 4.38 6.29 5.4 9.69a34.11 34.11 0 0 1 1.41 10.82 32.25 32.25 0 0 1 -2.21 10.72c-1.38 3.54-3.28 6.85-4.49 10.46-2.05 6.12-.54 17.19-8.82 19a29.22 29.22 0 0 1 -5.69.38c-1.84 0-3.69 0-5.53-.09a84.11 84.11 0 0 1 -11.19-1.2 65.21 65.21 0 0 1 -20.8-7.31c-2.6-1.47-7-3.62-7.4-7s3.46-5.15 4.68-7.8c1.45-3.19 1.39-6.62 1-10a118.15 118.15 0 0 1 -1.12-12.16c-.14-7.09.2-15.43 6.62-19.87 6.57-4.53 15-3.61 22.51-3 7.19.59 14.41 1.35 21 4.48a32.8 32.8 0 0 1 4.88 2.89c.64.45 1.19-.57.6-1z"/><path d="m232.15 514.61a18.39 18.39 0 0 1 6.95-5.1 5.91 5.91 0 0 1 3.84-.52 2.6 2.6 0 0 1 1.95 3 4.26 4.26 0 0 1 -2.37.5 4.83 4.83 0 0 1 3.83.63 14.63 14.63 0 0 1 3 2.63 3.19 3.19 0 0 1 1.09 1.94 1.56 1.56 0 0 1 -3 .63l1.76 1.67a2.07 2.07 0 0 1 .7 1c.13.73-.62 1.38-1.36 1.43a3.92 3.92 0 0 1 -2.09-.67 4.54 4.54 0 0 1 2.62 3.42.74.74 0 0 1 -.06.55.78.78 0 0 1 -.8.2 5.45 5.45 0 0 1 -2.21-.92 2.56 2.56 0 0 1 .68 4.51 1.67 1.67 0 0 1 -1.8.19 1 1 0 0 1 -.15-1.61 57.54 57.54 0 0 1 -7.35-4.59" fill="#fff"/><path d="m246.37 529.08c-.27.11-.82.29-1.08.07-.09-.08-.07-.16-.12-.26s.09-.18-.06-.06a.81.81 0 0 0 0-1.39 56.54 56.54 0 0 1 -7.34-4.62.83.83 0 0 0 -.84 1.43 62.88 62.88 0 0 0 7.37 4.58v-1.39a1.74 1.74 0 0 0 -.19 2.67 2.14 2.14 0 0 0 2.93-.17c.48-.47-.13-1.09-.67-.86z"/><path d="m248.58 524.87a1 1 0 0 0 -.12.28.94.94 0 0 0 0 .09c0 .07.08-.11 0 0s.1-.1 0 0 .14-.1.05 0c.15-.09.13-.06.06 0h-.08.07-.28c-.1 0 .2 0 .08 0h-.13l-.24-.05-.45-.12-.23-.08h-.1-.07.09a1.13 1.13 0 0 0 -.22-.11l-.19-.1c-.15-.09-.3-.18-.44-.28a.82.82 0 0 0 -1.13.3.84.84 0 0 0 .29 1.13 6.78 6.78 0 0 0 2.37.91 1.64 1.64 0 0 0 1.51-.31 1.21 1.21 0 0 0 .32-.81 1.07 1.07 0 0 0 -.31-.79.55.55 0 0 0 -.86.11z"/><path d="m249.35 520.82c0-.06 0-.07 0 0a2 2 0 0 0 -.09.22.32.32 0 0 1 0 .09s.09-.15 0 0-.06.09-.06.1.11-.12 0-.05l-.16.15-.17.16c-.07.07.13-.08 0 0l-.11.06-.11.06s-.13.06 0 0 0 0-.05 0h-.11s-.15 0 0 0 0 0 0 0h-.27c-.1 0 .15 0 0 0h-.12l-.3-.09h-.11c-.19-.07.09 0 0 0l-.25-.12-.55-.3a.83.83 0 0 0 -.84 1.43 4.15 4.15 0 0 0 3.09.65 2 2 0 0 0 1.24-.93 1.93 1.93 0 0 0 .21-.79 1.13 1.13 0 0 0 -.29-.8.52.52 0 0 0 -.53-.14.56.56 0 0 0 -.38.38z"/><path d="m250 517.38c-.05.08 0 .06 0 0a.78.78 0 0 0 -.18.32c-.05.14.07-.13 0 0a1.17 1.17 0 0 1 -.05.11l-.07.11c-.08.11.11-.13 0 0s-.16.21-.25.3.14-.16 0 0l-.09.09-.07.08c-.11.1.14-.1 0 0l-.22.13c-.13.07.19-.06 0 0h-.12c-.08 0-.19 0 0 0h-.22s-.2 0 0 0 0 0 0 0h-.1-.12c.13.06.15.07.08 0l-.21-.13c.19.12.08.07 0 0l-.09-.09-.08-.09.08.1-.05-.07c0-.06-.15-.33 0-.06a.94.94 0 0 0 -.38-.5.83.83 0 0 0 -1.17.4.85.85 0 0 0 0 .73 2.47 2.47 0 0 0 2.72 1.31 2.36 2.36 0 0 0 1.37-1 1.71 1.71 0 0 0 .27-.85 1.23 1.23 0 0 0 -.15-.82.56.56 0 0 0 -.95 0z"/><path d="m232.54 515a23.41 23.41 0 0 1 6-4.36 7.15 7.15 0 0 1 3.68-1c1 .11 2.17 1 1.89 2.09l.37-.48a3.71 3.71 0 0 1 -2 .38l.21 1.59a4.2 4.2 0 0 1 3.2.56.82.82 0 0 0 .83-1.42 5.79 5.79 0 0 0 -4.46-.7.81.81 0 0 0 .22 1.59 4.48 4.48 0 0 0 2.86-.67c.63-.52.41-1.71.13-2.35a4 4 0 0 0 -4.37-2.15 13.44 13.44 0 0 0 -5.36 2.25 15.37 15.37 0 0 0 -4.1 4c-.37.53.42 1.09.86.67z"/><path d="m162.56 501.21a149.19 149.19 0 0 1 28.2 19.79 10.55 10.55 0 0 0 3.09 2.15c2.43.91 5.12-.18 7.48-1.26l19.53-8.89c1.7-.78 3.81-1.52 5.3-.4.45.33.82.83 1.37 1 .9.21 1.67-.66 2.54-1 1.92-.69 3.67 1.34 4.6 3.16a49.56 49.56 0 0 1 2.94 6.92 2.35 2.35 0 0 1 .14 1.56c-.19.51-.7.82-1.1 1.19-1 1-1.37 2.41-2.07 3.62a13.07 13.07 0 0 1 -4.67 4.11c-6.31 3.93-12.8 7.66-19.82 10.13s-14.61 3.64-21.93 2.35c-12.72-2.24-23-11.47-31.55-21.17"/><path d="m162.3 501.65a160.56 160.56 0 0 1 15.87 10.16c2.55 1.85 5 3.79 7.48 5.79 2.21 1.84 4.28 4.11 6.7 5.66s5.39 1 8-.06c3.08-1.27 6.09-2.74 9.12-4.11l9.09-4.12a32.39 32.39 0 0 1 4.33-1.85 4 4 0 0 1 2.11-.12c.76.21 1.17.87 1.83 1.22a2.73 2.73 0 0 0 2.73-.34 2.06 2.06 0 0 1 2.06-.34 4.74 4.74 0 0 1 1.79 1.74 24.61 24.61 0 0 1 2 3.94c.46 1.07 2.15 4.09 1.31 5.14-.35.44-.85.74-1.19 1.2a8.49 8.49 0 0 0 -.81 1.4 10.24 10.24 0 0 1 -2.47 3.62 49.12 49.12 0 0 1 -7.81 5c-11 6.37-23.83 11.69-36.76 9.06-12.6-2.55-21.9-11.7-30.34-20.75-.87-.94-2.18.43-1.39 1.38 7.29 8.74 16.67 17.06 27.75 20.43 12.87 3.91 26.22-.22 37.66-6.37 2.94-1.58 5.81-3.3 8.64-5.07 2.42-1.51 4.64-3 5.87-5.7a11 11 0 0 1 1-1.93c.39-.53 1-.87 1.37-1.4.83-1.11.33-2.38-.09-3.55-1-2.78-2.12-6-4.12-8.27a4.5 4.5 0 0 0 -2.92-1.65 3.23 3.23 0 0 0 -1.41.24c-.86.34-1.46 1.17-2.4.59-1.1-.68-1.72-1.29-3.12-1.25a10.2 10.2 0 0 0 -3.69 1.08c-6.66 3-13.23 6.14-19.9 9.09-1.74.77-3.74 1.61-5.68 1.25s-3.47-2.11-4.93-3.37q-4-3.43-8.18-6.59a141.67 141.67 0 0 0 -18.94-12 .51.51 0 0 0 -.52.88z"/><path d="m40.31 605.93a10.46 10.46 0 0 0 5.29-1.31 50.32 50.32 0 0 0 5.09-2.68 27.23 27.23 0 0 0 4.31-3.29c1.23-1.17 2.71-2.69 2.6-4.52a.62.62 0 0 0 -1.24 0c-.2 1.71-1.59 3-2.82 4.07a26.79 26.79 0 0 1 -4 2.91q-2 1.21-4.15 2.29a10 10 0 0 1 -5.08 1.51c-.66 0-.64 1 0 1z"/><path d="m170.46 742.26a44.45 44.45 0 0 0 23-3.76c.84-.37.11-1.6-.72-1.23a50.44 50.44 0 0 1 -22.24 4c-.68 0-.64 1 0 1z"/><path d="m126.94 608.91a7.88 7.88 0 0 0 1 3.65q1 2 2.06 4.06l2.08 4.09c.68 1.36 1.31 2.79 2.11 4.07.35.55 1.37.2 1.1-.46-1.07-2.62-2.59-5.12-3.89-7.63l-2-3.8a10.78 10.78 0 0 1 -1.54-4 .5.5 0 0 0 -1 0z"/><path d="m104.76 570a27.44 27.44 0 0 0 10.24 5.3.62.62 0 0 0 .33-1.2 26.08 26.08 0 0 1 -9.89-4.86c-.5-.39-1.21.3-.71.72z"/><path d="m135.34 579.62a59.25 59.25 0 0 0 7.6 1.34q1.89.19 3.78.27a21.72 21.72 0 0 0 3.95 0c.73-.11.46-1.14-.16-1.2-1.25-.13-2.54 0-3.79 0s-2.42-.12-3.63-.23a69.51 69.51 0 0 1 -7.48-1.11c-.64-.13-.92.83-.27 1z"/><path d="m199.68 501.64a15.28 15.28 0 0 1 2.71-2.3 10 10 0 0 1 2.79-1.6 11.71 11.71 0 0 1 3.53-.44 4.14 4.14 0 0 1 1.55.37c.21.1 1 .52.87.77a.85.85 0 0 0 1.55.66c.74-1.39-.75-2.64-1.92-3.12a8.26 8.26 0 0 0 -4.7-.05 7.27 7.27 0 0 0 -2.08.64 12.27 12.27 0 0 0 -1.78 1.27 18.52 18.52 0 0 0 -3.31 3.19c-.35.46.41 1 .79.61z"/><path d="m176.49 510.3q3.36 2.77 6.79 5.47c1.11.87 2.21 1.76 3.35 2.59s2.35 1.82 3.62 2.58c.73.43 1.62-.63.94-1.22-1.07-.92-2.27-1.7-3.41-2.53s-2.4-1.72-3.61-2.57c-2.37-1.68-4.72-3.4-7.07-5.12-.46-.35-1.06.43-.61.8z" fill="#18c4ff"/><path d="m153 526.27c3 2.19 6 4.38 9 6.53s6 4.42 9.06 6.43c.56.35 1.26-.52.72-.94-2.91-2.26-6-4.3-9-6.43s-6.16-4.31-9.26-6.44c-.54-.37-1 .48-.5.85z" fill="#18c4ff"/><path d="m226.34 487.83c.07-7.27 1.65-14.55 5.95-20.54a22.36 22.36 0 0 1 17.44-9.55 16.84 16.84 0 0 1 16.52 10.13c3.78 7.62 4.06 16.84 2.88 25.12-1.41 9.85-5 19.21-8.53 28.45a1.14 1.14 0 0 0 .51 1.26s-.16.19-.19.2l1.08.28a1.82 1.82 0 0 1 -.53-1l-.11.85-.77-.77a1.4 1.4 0 0 1 -.51 1.6h1.56a.74.74 0 0 1 -.21-1l-1.24.5-.13-.1.78-.32-.06.09c-.32-.93-1.94-.87-1.83.24.13 1.41 1.84 2.66 2.94 1.27a2.13 2.13 0 0 0 -1.12-3.3 1.11 1.11 0 0 0 -1.24.51 3 3 0 0 0 .55 3.65 1.13 1.13 0 0 0 1.56 0 3.55 3.55 0 0 0 1.08-3.75 1.07 1.07 0 0 0 -.77-.77 2.22 2.22 0 0 0 -2.66 1.31c-.25.95.73 2.71 1.74 2.85a2.13 2.13 0 0 0 2.11-1.64 2.36 2.36 0 0 0 -.94-2.63l.51 1.25c6.51-16.79 13.87-36.55 6-54.21a21.46 21.46 0 0 0 -7.18-9 19.33 19.33 0 0 0 -9.9-3.22 23.49 23.49 0 0 0 -19.11 8.31c-5.48 6.52-7.87 15.51-7.3 23.94a.54.54 0 0 0 1.08 0z"/><path d="m257.54 512.32a1.44 1.44 0 0 0 0-2.88 1.44 1.44 0 0 0 0 2.88z"/><path d="m386.15 512.32a1.44 1.44 0 0 0 0-2.88 1.44 1.44 0 0 0 0 2.88z"/><path d="m786.22 490.73a5.22 5.22 0 0 0 1.23.72 13.23 13.23 0 0 1 1.28.82 15.7 15.7 0 0 1 2.29 2 21.65 21.65 0 0 1 2 2.31 14 14 0 0 1 .78 1.22 4 4 0 0 0 .91 1.38c.55.4 1.18-.16 1.23-.71a3.09 3.09 0 0 0 -.63-1.55c-.27-.46-.57-.9-.88-1.33a16.05 16.05 0 0 0 -2.25-2.55 18.28 18.28 0 0 0 -2.71-2 11.37 11.37 0 0 0 -1.34-.7 3.26 3.26 0 0 0 -1.53-.47.51.51 0 0 0 -.35.85z"/><path d="m806.78 484.74a23.88 23.88 0 0 0 2.71 3.54c.49.55 1 1.07 1.51 1.58.26.26.53.5.8.74s.27.23.38.35a.93.93 0 0 1 .16.22.76.76 0 0 0 1.49-.2c.06-.88-.71-1.39-1.32-1.89s-1.2-1-1.77-1.56c-1.13-1.06-2.13-2.23-3.17-3.39-.38-.43-1.08.13-.79.61z"/><path d="m859.64 519.78c-3.67-7.53-7.4-15.15-12.85-21.51s-12.91-11.42-21.25-12.27c-10-1-19.5 4.17-27.91 9.66-4 2.59-7.92 5.34-11 8.94s-5.24 8.2-5.08 12.93a22.28 22.28 0 0 0 1.69 7.16c3.17 8.16 8.7 15.25 15.13 21.19 2.83 2.61 6.17 5.94 5.15 9.67-.41 1.54-1.57 2.84-1.8 4.43-.33 2.17 1.22 4.29 3.18 5.26a13 13 0 0 0 6.45.93c9.59-.45 18.81-3.65 27.88-6.81 8.61-3 17.39-6.1 24.54-11.76 3.38-2.68 6.55-6.5 6.05-10.79-.27-2.28-1.56-4.29-2.81-6.22l-6.24-9.59" fill="#18c4ff"/><path d="m860.11 519.5c-3.81-8-7.69-16.17-13.7-22.83-5.33-5.9-12.45-10.57-20.48-11.49-8.87-1-17.43 2.79-24.87 7.24-7.24 4.32-15.31 9.37-18.85 17.39a17.93 17.93 0 0 0 -.8 12.55 44.85 44.85 0 0 0 5.45 11.54 63.74 63.74 0 0 0 7.84 9.79c1.48 1.52 3.07 2.92 4.57 4.42s3 3.14 3.38 5.2-1 3.74-1.68 5.68a5.51 5.51 0 0 0 .93 5c2.66 3.59 7.58 3.41 11.57 3.07 9.57-.82 18.69-4.08 27.69-7.22 8.2-2.86 16.52-6 23.39-11.43 3-2.4 5.89-5.65 6.32-9.64.49-4.55-2.88-8.41-5.24-11.94l-4.17-6.23c-.57-.85-1.94-.07-1.39.81 2.45 3.9 5.13 7.72 7.36 11.74a8.55 8.55 0 0 1 1.27 5.9 11.2 11.2 0 0 1 -2.78 5.08 34.58 34.58 0 0 1 -9.55 7.06 86.76 86.76 0 0 1 -11.46 5.07c-8.21 3-16.58 6.16-25.19 7.89a60.75 60.75 0 0 1 -6.72 1 17.29 17.29 0 0 1 -6.61-.3c-1.79-.56-3.66-2.05-3.73-4.08s1.54-3.45 1.9-5.27c.73-3.58-1.82-6.68-4.2-9a104.21 104.21 0 0 1 -8.17-8.51 53.25 53.25 0 0 1 -6.51-10.08c-1.87-3.8-3.53-8.06-3.07-12.36.9-8.54 8.34-14.24 15-18.61 6.93-4.57 14.57-9.14 23-9.94 8-.75 15.47 2.44 21.42 7.6 6.3 5.47 10.5 12.71 14.35 20 1 1.82 1.9 3.66 2.82 5.5.32.62 1.23.08.94-.55z" fill="#18c4ff"/><g fill="#fff"><path d="m100 634.67a40 40 0 0 1 3.63 11.18c.13.75 1.28.43 1.15-.32a39 39 0 0 0 -3.87-11.39c-.32-.6-1.2-.07-.91.53z"/><path d="m157.62 660a6.44 6.44 0 0 0 5.23.24.56.56 0 0 0 .38-.68.54.54 0 0 0 -.67-.38 5.86 5.86 0 0 1 -4.43-.06.53.53 0 0 0 -.7.18.52.52 0 0 0 .19.7z"/><path d="m160.71 665.67 3.22-1.09a.6.6 0 0 0 .4-.71.59.59 0 0 0 -.71-.39l-3.2 1.13a.56.56 0 0 0 -.38.68.55.55 0 0 0 .67.38z"/><path d="m818.88 497.71q6.79 9.38 12.71 19.34c3.95 6.66 7.34 13.55 10.89 20.42.34.66 1.26.08 1-.57a186.79 186.79 0 0 0 -10.9-20.42q-5.94-9.94-12.77-19.3c-.4-.55-1.31 0-.91.53z"/><path d="m846 545.05.07-.1c0-.07 0 0 0 0s.09-.12.14-.17.2-.21.31-.31l.1-.08s.05 0 .06-.05h.08a3.26 3.26 0 0 1 .4-.24l.2-.1h.12l.42-.13h.21.1.07c-.06 0 0 0 0 0h.37a.51.51 0 0 0 .51-.52.53.53 0 0 0 -.51-.52 4.42 4.42 0 0 0 -3.64 1.93.52.52 0 0 0 .18.71.53.53 0 0 0 .71-.18z"/></g><path d="m790.49 500.26c-12.51 11.5-19.94 27.36-27.06 42.8l1.12-4.32a51.88 51.88 0 0 1 -9.06-22.14c-.5-3.2-1.7-7.4-4.94-7.32-.1-2.43-2.64-4.22-5.07-4.24s-8.64 1.53-9.87 3.62c-1.75 3 2.61 2.51.4 4.16s-3.41 3.21-2.42 7.3c2.06 8.58 2.4 21.6 4.4 30.19 1 4.51 2.25 9.06 4.61 13 3.37 5.7 9 9.86 15.1 12.36a18.79 18.79 0 0 0 7.75 1.66c6.57-.27 11.7-5.62 15.78-10.78a193.89 193.89 0 0 0 21.08-33" fill="#18c4ff"/><path d="m790.13 499.91c-12.85 11.52-20.32 27.32-27.44 42.71l1.58.67.87-3.36c.22-.84.39-1.25-.09-2-1-1.56-2.07-3.1-3-4.75a50.65 50.65 0 0 1 -4.36-10.52c-.92-3.2-1.11-6.62-2.21-9.75-.81-2.31-2.29-4.48-5-4.52l.87.87a5.68 5.68 0 0 0 -4.39-4.9 12.07 12.07 0 0 0 -5.95.49c-1.94.51-4.29 1.22-5.72 2.72-1.08 1.12-1.47 2.86-.27 4a2.49 2.49 0 0 0 .6.48c.4.16 0-.16 0-.16-.24 0-1 .83-1.24 1a6.72 6.72 0 0 0 -1 1.1c-1.37 1.8-1.23 4-.76 6.11a162.29 162.29 0 0 1 2.49 17.3c1.3 11.66 2.91 24.84 12.26 33 4.29 3.75 10.06 7 15.78 7.67 5.94.71 11-2.63 15-6.74 5-5.17 9.16-11.3 13.13-17.26a158.4 158.4 0 0 0 11.72-20.07c.44-.94-.91-1.77-1.42-.83-3 5.48-5.93 10.95-9.27 16.22a188.69 188.69 0 0 1 -10.87 15.48c-3.25 4.17-6.93 8.76-12 10.74-5.51 2.14-11.41-.25-16.21-3.11a27.69 27.69 0 0 1 -11.15-12c-2.38-5.11-3.55-10.9-4.35-16.46-.78-5.4-1.21-10.85-1.93-16.26-.33-2.44-.7-4.88-1.24-7.29-.45-2-1-4.18.58-5.84.87-.93 3.25-2.05 2-3.59-.27-.34-.89-.56-1-1-.29-.76.66-1.55 1.21-1.9a17 17 0 0 1 6.56-2.19c2.34-.36 5.56.37 5.81 3.24a.9.9 0 0 0 .87.86c2.41 0 3.28 2.89 3.74 4.82.65 2.72 1 5.48 1.76 8.18a52.91 52.91 0 0 0 7.74 16l-.09-.67c-.36 1.44-.73 2.88-1.1 4.32-.23.91 1.16 1.58 1.58.66 7-15.28 14.31-31.08 26.66-42.87.47-.45-.23-1.14-.71-.71z" fill="#18c4ff"/><path d="m796.5 547.31 3-5.39c.48-.86.95-1.73 1.42-2.61a25.73 25.73 0 0 0 1.43-2.76c.24-.64-.69-.92-1-.44a23.51 23.51 0 0 0 -1.42 2.61c-.48.9-1 1.81-1.43 2.72l-2.78 5.37c-.3.56.54 1.06.85.5z"/><path d="m741 583.85a12.66 12.66 0 0 1 -5.92 2.86c-1.05.25-2.13.43-3.2.59a10.13 10.13 0 0 1 -3.8.09c-.89-.19-1.58 1.14-.66 1.55a6.86 6.86 0 0 0 4.16.08c1.27-.24 2.55-.49 3.8-.83a14.2 14.2 0 0 0 6.49-3.47.62.62 0 0 0 -.87-.87z"/><path d="m718.83 578a6 6 0 0 0 .46 1.81 4.38 4.38 0 0 0 1 1.45.58.58 0 0 0 .8 0 .59.59 0 0 0 0-.8l-.05-.07-.11-.15a4 4 0 0 0 -.22-.34 4.94 4.94 0 0 1 -.4-.67 3.54 3.54 0 0 1 -.16-.34c0-.06 0 0 0 0a.36.36 0 0 1 0-.09l-.07-.18a5.16 5.16 0 0 1 -.21-.77.52.52 0 0 0 -.57-.38.54.54 0 0 0 -.46.52z"/><path d="m717.1 582.21a3.81 3.81 0 0 0 1.14 2 3.88 3.88 0 0 0 .94.66 3.3 3.3 0 0 0 1.26.35.58.58 0 0 0 .16-1.13l-.48-.11-.23-.07h-.11-.08.07a.65.65 0 0 1 -.22-.11.88.88 0 0 1 -.21-.12l-.21-.13h-.06a.48.48 0 0 1 -.11-.09l-.35-.35-.07-.09s0 0 0 0l-.14-.2-.12-.21v-.11s-.06-.14 0-.07v-.07s0-.07 0-.11a2.33 2.33 0 0 1 -.07-.25.52.52 0 0 0 -.63-.36.53.53 0 0 0 -.36.63z"/><g fill="#fff"><path d="m283.7 484.84a27.76 27.76 0 0 1 6.61-3.56c2.1-.77 5.09-1.39 6.73.63s.13 4.8-1.28 6.38a10.09 10.09 0 0 1 -5.74 3.19l1 1.35c.75-1.57 4-2.06 5.48-1.27 2.57 1.37-2.15 4.27-3 5.14-.64.62 0 1.95.93 1.59 1.67-.65 3.74-1 5.34 0a3.15 3.15 0 0 1 1.08 4c-.36.75.6 1.66 1.23.94 1.52-1.73.93-4.42-.61-6-2-2-5.13-1.84-7.55-.89l.93 1.59c1.34-1.33 3.15-2.14 3.92-4a3.17 3.17 0 0 0 -1.06-4c-2.27-1.45-7-.75-8.24 1.82a.93.93 0 0 0 1 1.35 11.68 11.68 0 0 0 6.9-4.2c1.64-2.07 2.82-5.17 1.34-7.64s-4.4-2.78-6.85-2.23a24.48 24.48 0 0 0 -8.86 4.67c-.66.5 0 1.64.67 1.14z"/><path d="m666.85 416.65a13.8 13.8 0 0 0 -6-1.22 50.43 50.43 0 0 0 -7 .18 24.32 24.32 0 0 0 -11.61 4c-2.51 1.79-6.46 5.56-4.4 9 .94 1.54 2.92 2.45 4.5 3.16a22.87 22.87 0 0 0 6.34 1.74v-1.71c-2.14-.13-4.62-.21-6.36 1.26a4.2 4.2 0 0 0 -1.3 4.85c1 2 3.73 2.18 5.69 2.17a16.16 16.16 0 0 0 7.43-1.89l-1.05-1.37c-1.11 1.1-2.71 1.55-3.45 3a2.46 2.46 0 0 0 .59 3.13c2.65 2.14 6.17-.3 8.25-2l-1.41-.58a4.59 4.59 0 0 0 5.63 4.63c1-.25.55-1.64-.41-1.48a3 3 0 0 1 -3.5-3.21c.06-.79-.92-1-1.42-.59-1.36 1.11-3.76 3.08-5.66 2.09-2.13-1.11 1.89-3.05 2.67-3.8s-.2-1.8-1.06-1.36a14.73 14.73 0 0 1 -5.27 1.56c-1.43.14-3.77.31-5-.65s-.33-2.74.74-3.43c1.41-.91 3.32-.74 4.92-.66 1.12.06 1.06-1.58 0-1.71a20.94 20.94 0 0 1 -5.29-1.38c-1.41-.58-3.85-1.51-4.37-3.11s1-3.51 2-4.64a16.3 16.3 0 0 1 4-3 25.61 25.61 0 0 1 10.19-2.75c1.85-.15 3.7-.2 5.56-.18a12.42 12.42 0 0 1 5.4.93c.67.32 1.27-.67.59-1z"/><path d="m683.4 445.64a.73.73 0 0 0 0-1.45.73.73 0 0 0 0 1.45z"/><path d="m626 433-.05.25a.86.86 0 0 0 0 .32.54.54 0 0 0 .16.26l.12.09a.53.53 0 0 0 .3.09.49.49 0 0 0 .23-.06.44.44 0 0 0 .19-.12.61.61 0 0 0 .15-.26.58.58 0 0 0 0-.32v-.25l-.06-.13a.36.36 0 0 0 -.14-.16l-.12-.07a.39.39 0 0 0 -.21 0h-.15l-.13.06a.34.34 0 0 0 -.15.14.35.35 0 0 0 -.1.19z"/><path d="m626.68 442.35.8-.27a.55.55 0 0 0 .24-.12.52.52 0 0 0 .17-.19.46.46 0 0 0 .08-.25.53.53 0 0 0 0-.28.74.74 0 0 0 -.31-.41.7.7 0 0 0 -.53-.06l-.81.26a.59.59 0 0 0 -.23.13.45.45 0 0 0 -.17.19.58.58 0 0 0 -.09.25.5.5 0 0 0 0 .27.65.65 0 0 0 .31.41.66.66 0 0 0 .53.07z"/><path d="m704 431.79c-1.79 1.18-2.29 3.4-2.28 5.42a6 6 0 0 0 .84 3.42 3.15 3.15 0 0 0 2.82 1.5.69.69 0 0 0 0-1.37c-1.89 0-2.27-2.38-2.27-3.82s.26-3.18 1.52-4.06c.66-.46.05-1.55-.63-1.09z"/><path d="m402.51 465.29c5.26 1.3 11.59.84 16-2.5a10.74 10.74 0 0 0 4.17-6.49c.76-3.76 0-7.67 2.57-10.85a10.15 10.15 0 0 1 9.89-3.61l-.15-1.17c-3.06 1.92-6.46 5.56-4.3 9.41 1.51 2.69 6.24 2.69 6.86-.7l-1.17.31c.65.64-.23 1.84-.56 2.45a6.71 6.71 0 0 0 -.74 1.94 6.4 6.4 0 0 0 .41 3.54 7.65 7.65 0 0 0 5.62 4.68 9.62 9.62 0 0 0 7.93-2.67 13.92 13.92 0 0 0 4.1-8.63c.46-3.55-.09-7.05-.52-10.57s-.73-7.5 1.21-10.72c3.37-5.59 11-6.43 15.86-10.22 2.48-1.93 4.7-4.62 4.91-7.89a15.4 15.4 0 0 0 -.71-4.41c-.28-1.22-1-3.62.63-4.19l-.8-1c-1.24 1.7-.85 3.9.18 5.62 1.25 2.09 3.48 3.26 5 5.1 3.75 4.53-.13 10.33-3.66 13.53-3.69 3.34-8.16 6.15-10.06 11-1.56 4-.37 8.85 3.78 10.69a5.56 5.56 0 0 0 6-.9c1.83-1.58 2.69-4 3.39-6.24l-1 .57c4.46 1.44 4.29 7.56 2.25 10.85-2.87 4.65-8.11 7.14-11.46 11.38-2.82 3.58-4.31 8.53-1.43 12.54a11.07 11.07 0 0 0 11.21 4.21c5.2-1.17 8.93-5.83 10.41-10.74l-1.47.19a11.87 11.87 0 0 1 1.95 8.7c-.54 3.11-2.94 5.42-3.49 8.48-.37 2 .21 4.68 2.45 5.28a3 3 0 0 0 4-2.49c.06-.88-1.31-.87-1.37 0s-1.37 1.39-2.21 1.14c-1.18-.36-1.54-1.76-1.51-2.85.08-2.48 2-4.51 2.94-6.72a13.38 13.38 0 0 0 -1.33-12.36.82.82 0 0 0 -1.48.2c-1.37 4.45-4.75 8.56-9.48 9.56-4.13.87-9.16-1.6-10.27-5.84-1.37-5.21 3.34-9.65 6.92-12.63s7.62-6.06 8.51-10.74c.74-3.85-.61-8.44-4.67-9.74a.83.83 0 0 0 -1 .57c-.58 1.87-1.25 3.92-2.71 5.31a4.09 4.09 0 0 1 -5.41.21c-4.06-3-2.58-8.21.1-11.55 2.82-3.53 6.86-5.8 9.79-9.23 2.44-2.87 4.21-7 2.93-10.77-.74-2.17-2.44-3.58-4.12-5s-4.14-4.17-2.39-6.56a.72.72 0 0 0 -.8-1.05c-2.34.82-2.19 3.25-1.77 5.3a25.74 25.74 0 0 1 .8 4 7.29 7.29 0 0 1 -1.47 4.47c-3.68 5.29-10.51 6.2-15.48 9.76a12.16 12.16 0 0 0 -5 7c-.84 3.36-.31 6.86.12 10.23.83 6.39 1 15.31-6.33 18.07a6.25 6.25 0 0 1 -8.3-3.62c-.61-1.73-.1-3 .67-4.57.58-1.18 1-2.5 0-3.53a.7.7 0 0 0 -1.17.31 2.18 2.18 0 0 1 -2.4 1.69 2.7 2.7 0 0 1 -2.32-2.35c-.61-2.95 1.94-5.16 4.15-6.57a.65.65 0 0 0 -.15-1.17c-5.79-1.24-12.13 2.63-13.3 8.53-.7 3.57 0 7.3-2.16 10.46a12.66 12.66 0 0 1 -7.14 4.62 20.72 20.72 0 0 1 -10.14.12c-.62-.15-.89.8-.27 1z"/><path d="m405.14 513.08c5.68.59 11.45.56 17.16.67s11.44.15 17.16.19c11.44.08 22.88.25 34.32.3 6.44 0 13 .31 19.39-.13 2-.14 2-3.25 0-3.11l-2.85.2a1.36 1.36 0 0 0 0 2.72l2.85.19v-3.11c-5.68-.39-11.45-.16-17.15-.14s-11.44.05-17.16.07c-11.44.06-22.88.23-34.32.39-6.45.09-13 .05-19.4.71a.53.53 0 0 0 0 1.05z"/></g><path d="m583.39 388.19 5.26-11.3a30.52 30.52 0 0 0 3.06-8.82c.25-2 .13-4.09 1-5.88s3.42-3 4.94-1.66c1.27 1.09 1.22 3.34 2.69 4.12a4 4 0 0 0 1.66.35l8.06.44a6.67 6.67 0 0 1 3.58-4.5c1.85-.72 4.37.25 4.71 2.2.22 1.25-.44 2.62.13 3.76.7 1.42 2.7 1.41 4.14 2.11 2.72 1.31 3.1 5 3.11 8a5.36 5.36 0 0 1 -.6 3 4.87 4.87 0 0 1 -1.92 1.48 35 35 0 0 1 -7.17 2.77l-.12 2.69"/><path d="m583.83 388.44c2.11-4.08 4.07-8.24 6-12.41a36 36 0 0 0 2.16-5.58c.55-2.06.47-4.17.9-6.24.32-1.59 1.59-3.88 3.62-3.4 1.47.35 1.66 2.52 2.44 3.59 1 1.41 2.66 1.35 4.25 1.44l6.88.38a.82.82 0 0 0 .76-.58c.53-1.64 1.53-3.53 3.31-4.05 1.43-.41 3.29.31 3.47 1.92s-.56 2.87.48 4.2c.87 1.13 2.31 1.31 3.57 1.75 3.12 1.09 3.29 4.91 3.27 7.71a3.6 3.6 0 0 1 -.82 2.77 9 9 0 0 1 -2.32 1.32 36.07 36.07 0 0 1 -6 2.19.86.86 0 0 0 -.61.8l-.12 2.69c0 1.07 1.61 1.06 1.66 0l.13-2.69-.61.8a37.46 37.46 0 0 0 5.53-2c1.38-.63 3-1.27 3.94-2.54s.84-3 .78-4.56a14.32 14.32 0 0 0 -.72-4.31 6.17 6.17 0 0 0 -2.11-3c-1.2-.85-2.86-.78-4-1.64-1.36-1-.16-3.36-.77-4.81a4 4 0 0 0 -2.56-2.16c-3.53-1.08-6.09 2.1-7 5.11l.76-.58-7.59-.42c-1.12-.06-2-.15-2.55-1.23-.38-.71-.58-1.5-1-2.19-1.75-2.77-5.52-1.52-6.85 1-1 1.79-.88 3.89-1.09 5.84a23.51 23.51 0 0 1 -2 6.85c-2 4.54-4.15 9-6.06 13.56-.22.53.67.9.93.39z"/><g fill="#18c4ff"><path d="m302.25 405.43c6.16.31 12.35.24 18.52.28s12.36.31 18.52.06a.85.85 0 0 0 0-1.7c-6.16-.25-12.36 0-18.52.06s-12.36 0-18.52.28a.51.51 0 0 0 0 1z"/><path d="m302.25 413.48c6.16.32 12.35.24 18.52.28s12.36.31 18.52.06a.85.85 0 0 0 0-1.7c-6.16-.25-12.36 0-18.52.06s-12.36 0-18.52.28a.51.51 0 0 0 0 1z"/><path d="m302.25 421.54c6.16.31 12.35.23 18.52.27s12.36.31 18.52.06a.85.85 0 0 0 0-1.69c-6.16-.25-12.36 0-18.52.06s-12.36 0-18.52.27a.52.52 0 0 0 0 1z"/><path d="m303.33 434.22c6.16.31 12.35.23 18.52.28s12.36.31 18.52.06a.85.85 0 0 0 0-1.7c-6.16-.25-12.36 0-18.52.06s-12.36 0-18.52.28a.51.51 0 0 0 0 1z"/><path d="m303.33 442.27c6.16.31 12.35.24 18.52.28s12.36.31 18.52.06a.85.85 0 0 0 0-1.7c-6.16-.25-12.36 0-18.52.06s-12.36 0-18.52.28a.51.51 0 0 0 0 1z"/><path d="m303.33 450.32c6.16.32 12.35.24 18.52.28s12.36.31 18.52.06a.85.85 0 0 0 0-1.7c-6.16-.25-12.36 0-18.52.07s-12.36 0-18.52.27a.51.51 0 0 0 0 1z"/></g><path d="m345.42 371a1.56 1.56 0 0 0 -.49.5 1.91 1.91 0 0 0 -.19.57 2.36 2.36 0 0 0 0 .75 2 2 0 0 0 .22.59.68.68 0 0 0 1.06.14 1.57 1.57 0 0 0 .44-1.11c0-.52-.31-1.25-.93-1.24a.7.7 0 0 0 -.49.2.8.8 0 0 0 -.2.48.81.81 0 0 0 .25.57l-.11-.15.11.19-.07-.16a.86.86 0 0 1 .06.23v-.18a1.31 1.31 0 0 1 0 .28v-.18a.86.86 0 0 1 -.06.23l.07-.16a1 1 0 0 1 -.1.17l.1-.13 1.05.14a1.35 1.35 0 0 1 -.15-.26l.07.16a1 1 0 0 1 -.09-.34v.17a1.15 1.15 0 0 1 0-.37v.16a2 2 0 0 1 .15-.52l-.05.13a1.19 1.19 0 0 1 .08-.16.51.51 0 0 0 -.08-.63.65.65 0 0 0 -.23-.13.51.51 0 0 0 -.4 0z"/><path d="m354.5 371.68a.5.5 0 0 0 0-1 .5.5 0 0 0 0 1z"/><path d="m354.5 370.64a1.31 1.31 0 0 0 -.79.21 1.41 1.41 0 0 0 -.6.76 1.27 1.27 0 0 0 0 .86 1.69 1.69 0 0 0 .19.38 1.64 1.64 0 0 0 .42.41.66.66 0 0 0 .51.07.63.63 0 0 0 .4-.31 2.87 2.87 0 0 0 .17-.44c0-.15.05-.31.07-.47a1.34 1.34 0 0 0 -.29-1 .65.65 0 0 0 -1.08.29 1.84 1.84 0 0 0 0 .62v-.18a1.93 1.93 0 0 1 0 .48v-.18a1.83 1.83 0 0 1 -.09.39l1-.4h-.07l.14.1a.54.54 0 0 1 -.15-.15l.1.14a.84.84 0 0 1 -.11-.21l.06.16a2.5 2.5 0 0 1 -.07-.26v.16a.67.67 0 0 1 0-.2v.16a.61.61 0 0 1 .05-.18l-.06.14a.54.54 0 0 1 .11-.18l-.1.12.16-.16-.12.09a1.18 1.18 0 0 1 .19-.11l-.14.06a.83.83 0 0 1 .21-.06h-.14a.62.62 0 0 0 .38-.16.52.52 0 0 0 .15-.38.54.54 0 0 0 -.53-.53z"/><path d="m349.22 376.6.58.06a5.72 5.72 0 0 0 .58 0 .66.66 0 0 0 .42-.17.59.59 0 0 0 -.42-1 5.66 5.66 0 0 0 -.58 0l-.58.06a.53.53 0 0 0 -.36.15.49.49 0 0 0 -.15.36.53.53 0 0 0 .15.36l.1.08a.48.48 0 0 0 .26.07z"/><path d="m346.35 379.33a2.75 2.75 0 0 0 4.11-.41l-.84.22a4.68 4.68 0 0 0 2.71.9 2.41 2.41 0 0 0 2.22-1.31.58.58 0 0 0 -.84-.65 2.42 2.42 0 0 1 -1.54.66 4 4 0 0 1 -1.93-.66.64.64 0 0 0 -.84.22 1.6 1.6 0 0 1 -2.31.3c-.51-.42-1.24.28-.74.73z"/><g fill="#fff"><path d="m607 370.34a1.11 1.11 0 0 0 -.25.05.67.67 0 0 0 -.27.16h-.05a1.11 1.11 0 0 0 -.26.39 1.28 1.28 0 0 0 -.1.47.15.15 0 0 0 0 .07.76.76 0 0 0 0 .21 1.25 1.25 0 0 0 .1.27l.1.12a.39.39 0 0 0 .2.13.26.26 0 0 0 .15 0 .43.43 0 0 0 .25 0 1.83 1.83 0 0 0 .46-.18 1.07 1.07 0 0 0 .48-.59.14.14 0 0 0 0-.06 2 2 0 0 0 0-.24 1.66 1.66 0 0 0 0-.22s0-.05 0-.07a1 1 0 0 0 -.23-.38.93.93 0 0 0 -.38-.23.5.5 0 0 0 -.27 0 .46.46 0 0 0 -.25.08.52.52 0 0 0 -.19.17.51.51 0 0 0 -.12.23.68.68 0 0 0 .47.82l-.16-.06-.13-.1-.11-.14v.06l-.07-.16a.29.29 0 0 1 0 .09v-.18.1-.17a.19.19 0 0 1 0 .08l.06-.15v.08l.1-.14a.8.8 0 0 1 -.13.13l.13-.11a1.2 1.2 0 0 1 -.27.16l.84.22-.06-.11.06.14a.57.57 0 0 1 0-.14v.16-.17.15a1.09 1.09 0 0 1 0-.17l-.06.14a.64.64 0 0 1 .08-.14l-.08.11.15-.2-.08.11.06-.07.08-.1.05-.12a.5.5 0 0 0 0-.32.53.53 0 0 0 -.16-.2.46.46 0 0 0 -.3-.11z"/><path d="m613.19 371a.67.67 0 0 0 -.14.15 1.79 1.79 0 0 0 -.2.28 1.53 1.53 0 0 0 -.16.7.73.73 0 0 0 .09.32.49.49 0 0 0 .17.18.43.43 0 0 0 .21.11.65.65 0 0 0 .34 0h.17a1.59 1.59 0 0 0 .29-.15 1.73 1.73 0 0 0 .25-.21 2.47 2.47 0 0 0 .21-.27 2 2 0 0 0 .13-.31 1.19 1.19 0 0 0 .05-.26.65.65 0 0 0 -.07-.34.69.69 0 0 0 -.15-.24.61.61 0 0 0 -.16-.12.79.79 0 0 0 -.39-.11.7.7 0 0 0 -.52.21.71.71 0 0 0 -.21.51.69.69 0 0 0 .09.34.66.66 0 0 0 .24.23.63.63 0 0 0 .33.09.69.69 0 0 0 .34-.09l-.1-.02h-.18-.18.23-.19l-.17-.07-.14-.11-.11-.14s0 0 0 0l-.07-.17v-.18a.06.06 0 0 1 0 .06v-.18a.78.78 0 0 1 0 .14l.07-.17a.78.78 0 0 1 -.11.2l.1-.14a.61.61 0 0 1 -.16.16l.14-.1-.2.15.14-.1-.17.1.94.38a.5.5 0 0 1 0-.12v.16a1.29 1.29 0 0 1 0-.34v.15a2.5 2.5 0 0 1 .07-.26v.13-.07a.49.49 0 0 0 0-.39v-.12a.63.63 0 0 0 -.24-.21.41.41 0 0 0 -.19 0h-.13a.53.53 0 0 0 -.23.13z"/><path d="m609.28 381.6.18-.16s0 0 0 0h.05l.08-.06a3.38 3.38 0 0 1 .41-.24l.09-.05h.06l.22-.08a3.94 3.94 0 0 1 .47-.1h-.17a3.71 3.71 0 0 1 .47 0 .68.68 0 0 0 .67-.67.67.67 0 0 0 -.67-.67 3.37 3.37 0 0 0 -1.49.42 3.29 3.29 0 0 0 -1.12 1 .53.53 0 0 0 .83.64z"/></g></svg>